{
.appVersion = "1230";
classes = (
{
automatic = 1;

glyphs = (
{
color = 3;
glyphname = A;
lastChange = "2019-07-17 15:12:59 +0000";
layers = (
{
anchors = (
{
name = bottom;
position = "{470, 0}";
},
{
name = ogonek;
position = "{893, 0}";
},
{
name = top;
position = "{470, 705}";
}
);
background = {
anchors = (
{
name = bottom;
position = "{359, 0}";
},
{
name = ogonek;
position = "{682, 0}";
},
{
name = top;
position = "{359, 705}";
}
);
paths = (
{
closed = 1;
nodes = (
"681 0 LINE",
"378 705 LINE",
"338 705 LINE",
"35 0 LINE",
"81 0 LINE",
"169 204 LINE",
"141 195 LINE",
"577 195 LINE",
"549 204 LINE",
"636 0 LINE"
);
},
{
closed = 1;
nodes = (
"372 680 LINE",
"345 680 LINE",
"538 228 LINE",
"560 235 LINE",
"158 235 LINE",
"179 228 LINE"
);
}
);
};
layerId = "F1F93986-3ED8-4AAE-84C4-CA3EEECDDFA0";
paths = (
{
closed = 1;
nodes = (
"885 0 LINE",
"489 705 LINE",
"447 705 LINE",
"52 0 LINE",
"99 0 LINE",
"215 204 LINE",
"182 195 LINE",
"757 195 LINE",
"724 204 LINE",
"839 0 LINE"
);
},
{
closed = 1;
nodes = (
"487 680 LINE",
"451 680 LINE",
"711 228 LINE",
"739 234 LINE",
"200 234 LINE",
"227 228 LINE"
);
}
);
width = 937;
},
{
anchors = (
{
name = bottom;
position = "{498, 0}";
},
{
name = ogonek;
position = "{933, 0}";
},
{
name = top;
position = "{497, 705}";
}
);
background = {
anchors = (
{
name = bottom;
position = "{387, 0}";
},
{
name = ogonek;
position = "{722, 0}";
},
{
name = top;
position = "{386, 705}";
}
);
paths = (
{
closed = 1;
nodes = (
"806 0 LINE",
"471 705 LINE",
"302 705 LINE",
"-33 0 LINE",
"183 0 LINE",
"265 191 LINE",
"185 135 LINE",
"592 135 LINE",
"512 191 LINE",
"595 0 LINE"
);
},
{
closed = 1;
nodes = (
"407 530 LINE",
"371 530 LINE",
"492 238 LINE",
"523 295 LINE",
"255 295 LINE",
"285 238 LINE"
);
}
);
};
layerId = "4121B50C-FD42-45C5-8FBE-41E76D98F91E";
paths = (
{
closed = 1;
nodes = (
"1010 0 LINE",
"582 705 LINE",
"411 705 LINE",
"-16 0 LINE",
"201 0 LINE",
"311 191 LINE",
"226 131 LINE",
"772 131 LINE",
"687 191 LINE",
"798 0 LINE"
);
},
{
closed = 1;
nodes = (
"522 530 LINE",
"477 530 LINE",
"665 238 LINE",
"702 295 LINE",
"297 295 LINE",
"333 238 LINE"
);
}
);
width = 994;
}
);
leftKerningGroup = A;
rightKerningGroup = A;
unicode = 0041;
userData = {
anchors = (
);
b = {
};
com.typemytype.robofont.layerData = {
b = {
anchors = (
);
components = (
);
contours = (
{
points = (
{
segmentType = line;
smooth = 0;
x = 403;
y = 502;
},
{
segmentType = line;
smooth = 0;
x = 703;
y = 1275;
},
{
segmentType = line;
smooth = 0;
x = 705;
y = 1275;
},
{
segmentType = line;
smooth = 0;
x = 1004;
y = 502;
}
);
},
{
points = (
{
segmentType = curve;
smooth = 1;
x = 150;
y = 0;
},
{
smooth = 0;
x = 181;
y = 0;
},
{
smooth = 0;
x = 214;
y = 15;
},
{
segmentType = curve;
smooth = 1;
x = 229;
y = 53;
},
{
segmentType = line;
smooth = 0;
x = 356;
y = 373;
},
{
segmentType = line;
smooth = 0;
x = 1051;
y = 373;
},
{
segmentType = line;
smooth = 1;
x = 1179;
y = 53;
},
{
smooth = 0;
x = 1193;
y = 17;
},
{
smooth = 0;
x = 1228;
y = 0;
},
{
segmentType = curve;
smooth = 1;
x = 1260;
y = 0;
},
{
smooth = 0;
x = 1306;
y = 0;
},
{
smooth = 0;
x = 1354;
y = 31;
},
{
segmentType = curve;
smooth = 1;
x = 1354;
y = 80;
},
{
smooth = 0;
x = 1354;
y = 87;
},
{
smooth = 0;
x = 1352;
y = 97;
},
{
segmentType = curve;
smooth = 0;
x = 1349;
y = 108;
},
{
segmentType = line;
smooth = 1;
x = 871;
y = 1288;
},
{
smooth = 0;
x = 817;
y = 1420;
},
{
smooth = 0;
x = 777;
y = 1430;
},
{
segmentType = curve;
smooth = 1;
x = 710;
y = 1430;
},
{
smooth = 0;
x = 644;
y = 1430;
},
{
smooth = 0;
x = 596;
y = 1413;
},
{
segmentType = curve;
smooth = 1;
x = 542;
y = 1280;
},
{
segmentType = line;
smooth = 1;
x = 66;
y = 108;
},
{
smooth = 0;
x = 62;
y = 97;
},
{
smooth = 0;
x = 60;
y = 87;
},
{
segmentType = curve;
smooth = 1;
x = 60;
y = 78;
},
{
smooth = 0;
x = 60;
y = 32;
},
{
smooth = 0;
x = 106;
y = 0;
}
);
}
);
lib = {
};
name = A;
unicodes = (
);
width = 1414;
};
};
components = (
);
contours = {
};
lib = {
};
name = A;
points = {
};
segmentType = line;
unicodes = (
);
width = 1445;
x = 718;
y = 1232;
};
},
{
color = 3;
glyphname = AE;
lastChange = "2019-07-17 15:12:59 +0000";
layers = (
{
anchors = (
{
name = bottom;
position = "{639, 0}";
},
{
name = top;
position = "{638, 705}";
}
);
background = {
anchors = (
{
name = bottom;
position = "{487, 0}";
},
{
name = top;
position = "{486, 705}";
}
);
paths = (
{
closed = 1;
nodes = (
"921 705 LINE",
"422 705 LINE",
"2 0 LINE",
"49 0 LINE",
"172 208 LINE",
"143 195 LINE",
"548 195 LINE",
"527 207 LINE",
"570 0 LINE",
"921 0 LINE",
"921 40 LINE",
"586 40 LINE",
"607 20 LINE",
"537 350 LINE",
"515 338 LINE",
"901 338 LINE",
"901 377 LINE",
"507 377 LINE",
"533 368 LINE",
"466 690 LINE",
"459 665 LINE",
"921 665 LINE"
);
},
{
closed = 1;
nodes = (
"450 676 LINE",
"428 676 LINE",
"522 225 LINE",
"530 235 LINE",
"153 235 LINE",
"182 225 LINE"
);
}
);
};
guideLines = (
{
angle = 101.863;
position = "{499, 338}";
}
);
layerId = "F1F93986-3ED8-4AAE-84C4-CA3EEECDDFA0";
paths = (
{
closed = 1;
nodes = (
"1205 705 LINE",
"558 705 LINE",
"9 0 LINE",
"56 0 LINE",
"218 208 LINE",
"185 195 LINE",
"718 195 LINE",
"695 207 LINE",
"751 0 LINE",
"1205 0 LINE",
"1205 39 LINE",
"766 39 LINE",
"789 20 LINE",
"697 348 LINE",
"668 338 LINE",
"1179 338 LINE",
"1179 377 LINE",
"660 377 LINE",
"692 366 LINE",
"602 690 LINE",
"596 666 LINE",
"1205 666 LINE"
);
},
{
closed = 1;
nodes = (
"589 676 LINE",
"562 676 LINE",
"690 225 LINE",
"695 234 LINE",
"191 234 LINE",
"229 225 LINE"
);
}
);
width = 1273;
},
{
anchors = (
{
name = bottom;
position = "{641, 0}";
},
{
name = top;
position = "{642, 705}";
}
);
background = {
anchors = (
{
name = bottom;
position = "{489, 0}";
},
{
name = top;
position = "{490, 705}";
}
);
paths = (
{
closed = 1;
nodes = (
"961 705 LINE",
"382 705 LINE",
"-74 0 LINE",
"160 0 LINE",
"270 186 LINE",
"184 135 LINE",
"562 135 LINE",
"491 194 LINE",
"536 0 LINE",
"961 0 LINE",
"961 164 LINE",
"636 164 LINE",
"707 109 LINE",
"655 335 LINE",
"613 277 LINE",
"941 277 LINE",
"941 441 LINE",
"576 441 LINE",
"644 381 LINE",
"597 584 LINE",
"546 541 LINE",
"961 541 LINE"
);
},
{
closed = 1;
nodes = (
"468 523 LINE",
"419 523 LINE",
"483 235 LINE",
"531 293 LINE",
"285 293 LINE",
"304 243 LINE"
);
}
);
};
guideLines = (
{
angle = 102.61;
position = "{478, 262}";
},
{
angle = 102.61;
position = "{672, 261}";
}
);
layerId = "4121B50C-FD42-45C5-8FBE-41E76D98F91E";
paths = (
{
closed = 1;
nodes = (
"1245 705 LINE",
"518 705 LINE",
"-67 0 LINE",
"167 0 LINE",
"316 186 LINE",
"226 131 LINE",
"732 131 LINE",
"661 194 LINE",
"717 0 LINE",
"1245 0 LINE",
"1245 164 LINE",
"816 164 LINE",
"888 109 LINE",
"814 335 LINE",
"766 274 LINE",
"1219 274 LINE",
"1219 438 LINE",
"729 438 LINE",
"803 381 LINE",
"736 584 LINE",
"683 541 LINE",
"1245 541 LINE"
);
},
{
closed = 1;
nodes = (
"607 523 LINE",
"553 523 LINE",
"651 235 LINE",
"696 295 LINE",
"323 295 LINE",
"351 243 LINE"
);
}
);
width = 1292;
}
);
leftKerningGroup = A;
rightKerningGroup = E;
rightMetricsKey = E;
unicode = 00C6;
userData = {
com.typemytype.robofont.layerData = {
b = {
anchors = (
);
components = (
);
contours = (
);
lib = {
};
name = AE;
unicodes = (
);
width = 1976;
};
};
};
},
{
color = 3;
glyphname = B;
lastChange = "2019-07-17 15:12:59 +0000";
layers = (
{
anchors = (
{
name = bottom;
position = "{440, 0}";
},
{
name = top;
position = "{439, 705}";
}
);
background = {
anchors = (
{
name = bottom;
position = "{337, 0}";
},
{
name = top;
position = "{336, 705}";
}
);
paths = (
{
closed = 1;
nodes = (
"524 372 OFFCURVE",
"579 431 OFFCURVE",
"579 520 CURVE SMOOTH",
"579 641 OFFCURVE",
"498 705 OFFCURVE",
"356 705 CURVE SMOOTH",
"96 705 LINE",
"96 0 LINE",
"367 0 LINE SMOOTH",
"513 0 OFFCURVE",
"595 65 OFFCURVE",
"595 191 CURVE SMOOTH",
"595 292 OFFCURVE",
"535 357 OFFCURVE",
"432 367 CURVE",
"433 353 LINE"
);
},
{
closed = 1;
nodes = (
"475 666 OFFCURVE",
"535 619 OFFCURVE",
"535 526 CURVE SMOOTH",
"535 430 OFFCURVE",
"471 378 OFFCURVE",
"351 378 CURVE SMOOTH",
"138 378 LINE",
"138 666 LINE",
"351 666 LINE SMOOTH"
);
},
{
closed = 1;
nodes = (
"138 39 LINE",
"138 338 LINE",
"366 338 LINE SMOOTH",
"489 338 OFFCURVE",
"551 286 OFFCURVE",
"551 186 CURVE SMOOTH",
"551 86 OFFCURVE",
"491 39 OFFCURVE",
"366 39 CURVE SMOOTH"
);
}
);
};
layerId = "F1F93986-3ED8-4AAE-84C4-CA3EEECDDFA0";
paths = (
{
closed = 1;
nodes = (
"681 372 OFFCURVE",
"754 432 OFFCURVE",
"754 520 CURVE SMOOTH",
"754 641 OFFCURVE",
"647 705 OFFCURVE",
"463 705 CURVE SMOOTH",
"129 705 LINE",
"129 0 LINE",
"477 0 LINE SMOOTH",
"667 0 OFFCURVE",
"774 65 OFFCURVE",
"774 191 CURVE SMOOTH",
"774 291 OFFCURVE",
"695 357 OFFCURVE",
"560 367 CURVE",
"561 353 LINE"
);
},
{
closed = 1;
nodes = (
"625 666 OFFCURVE",
"707 619 OFFCURVE",
"707 526 CURVE SMOOTH",
"707 430 OFFCURVE",
"620 376 OFFCURVE",
"459 376 CURVE SMOOTH",
"171 376 LINE",
"171 666 LINE",
"459 666 LINE SMOOTH"
);
},
{
closed = 1;
nodes = (
"171 39 LINE",
"171 338 LINE",
"478 338 LINE SMOOTH",
"644 338 OFFCURVE",
"728 286 OFFCURVE",
"728 186 CURVE SMOOTH",
"728 74 OFFCURVE",
"624 39 OFFCURVE",
"478 39 CURVE SMOOTH"
);
}
);
width = 871;
},
{
anchors = (
{
name = bottom;
position = "{458, 0}";
},
{
name = top;
position = "{458, 705}";
}
);
background = {
anchors = (
{
name = bottom;
position = "{355, 0}";
},
{
name = top;
position = "{355, 705}";
}
);
paths = (
{
closed = 1;
nodes = (
"609 379 OFFCURVE",
"662 441 OFFCURVE",
"662 523 CURVE SMOOTH",
"662 633 OFFCURVE",
"564 705 OFFCURVE",
"416 705 CURVE SMOOTH",
"57 705 LINE",
"57 0 LINE",
"425 0 LINE SMOOTH",
"580 0 OFFCURVE",
"681 77 OFFCURVE",
"681 194 CURVE SMOOTH",
"681 292 OFFCURVE",
"625 355 OFFCURVE",
"519 375 CURVE",
"521 358 LINE"
);
},
{
closed = 1;
nodes = (
"439 544 OFFCURVE",
"461 527 OFFCURVE",
"461 492 CURVE SMOOTH",
"461 453 OFFCURVE",
"435 439 OFFCURVE",
"379 439 CURVE SMOOTH",
"266 439 LINE",
"266 544 LINE",
"379 544 LINE SMOOTH"
);
},
{
closed = 1;
nodes = (
"266 161 LINE",
"266 278 LINE",
"398 278 LINE SMOOTH",
"458 278 OFFCURVE",
"481 263 OFFCURVE",
"481 219 CURVE SMOOTH",
"481 179 OFFCURVE",
"456 161 OFFCURVE",
"398 161 CURVE SMOOTH"
);
}
);
};
layerId = "4121B50C-FD42-45C5-8FBE-41E76D98F91E";
paths = (
{
closed = 1;
nodes = (
"766 379 OFFCURVE",
"837 442 OFFCURVE",
"837 523 CURVE SMOOTH",
"837 633 OFFCURVE",
"713 705 OFFCURVE",
"523 705 CURVE SMOOTH",
"90 705 LINE",
"90 0 LINE",
"535 0 LINE SMOOTH",
"734 0 OFFCURVE",
"860 77 OFFCURVE",
"860 194 CURVE SMOOTH",
"860 291 OFFCURVE",
"785 355 OFFCURVE",
"647 375 CURVE",
"649 358 LINE"
);
},
{
closed = 1;
nodes = (
"571 546 OFFCURVE",
"633 537 OFFCURVE",
"633 493 CURVE SMOOTH",
"633 441 OFFCURVE",
"554 438 OFFCURVE",
"487 438 CURVE SMOOTH",
"298 438 LINE",
"298 546 LINE",
"487 546 LINE SMOOTH"
);
},
{
closed = 1;
nodes = (
"298 159 LINE",
"298 279 LINE",
"510 279 LINE SMOOTH",
"594 279 OFFCURVE",
"658 273 OFFCURVE",
"658 218 CURVE SMOOTH",
"658 170 OFFCURVE",
"591 159 OFFCURVE",
"510 159 CURVE SMOOTH"
);
}
);
width = 907;
}
);
leftKerningGroup = H;
leftMetricsKey = H;
rightKerningGroup = B;
unicode = 0042;
userData = {
anchors = (
);
b = {
};
com.typemytype.robofont.layerData = {
b = {
anchors = (
);
components = (
);
contours = (
{
points = (
{
segmentType = curve;
smooth = 1;
x = 266;
y = 0;
},
{
segmentType = line;
smooth = 1;
x = 1035;
y = 0;
},
{
smooth = 0;
x = 1084;
y = 0;
},
{
smooth = 0;
x = 1108;
y = 36;
},
{
segmentType = curve;
smooth = 1;
x = 1108;
y = 73;
},
{
smooth = 0;
x = 1108;
y = 109;
},
{
smooth = 0;
x = 1084;
y = 145;
},
{
segmentType = curve;
smooth = 1;
x = 1035;
y = 145;
},
{
segmentType = line;
smooth = 0;
x = 353;
y = 145;
},
{
segmentType = line;
smooth = 0;
x = 353;
y = 662;
},
{
segmentType = line;
smooth = 1;
x = 975;
y = 662;
},
{
smooth = 0;
x = 1024;
y = 662;
},
{
smooth = 0;
x = 1049;
y = 698;
},
{
segmentType = curve;
smooth = 1;
x = 1049;
y = 734;
},
{
smooth = 0;
x = 1049;
y = 770;
},
{
smooth = 0;
x = 1026;
y = 806;
},
{
segmentType = curve;
smooth = 1;
x = 975;
y = 806;
},
{
segmentType = line;
smooth = 0;
x = 353;
y = 806;
},
{
segmentType = line;
smooth = 0;
x = 353;
y = 1281;
},
{
segmentType = line;
smooth = 1;
x = 1007;
y = 1281;
},
{
smooth = 0;
x = 1056;
y = 1281;
},
{
smooth = 0;
x = 1080;
y = 1317;
},
{
segmentType = curve;
smooth = 1;
x = 1080;
y = 1354;
},
{
smooth = 0;
x = 1080;
y = 1390;
},
{
smooth = 0;
x = 1056;
y = 1426;
},
{
segmentType = curve;
smooth = 1;
x = 1007;
y = 1426;
},
{
segmentType = line;
smooth = 1;
x = 261;
y = 1426;
},
{
smooth = 0;
x = 213;
y = 1426;
},
{
smooth = 0;
x = 178;
y = 1383;
},
{
segmentType = curve;
smooth = 1;
x = 178;
y = 1340;
},
{
segmentType = line;
smooth = 1;
x = 178;
y = 86;
},
{
smooth = 0;
x = 178;
y = 41;
},
{
smooth = 0;
x = 222;
y = 0;
}
);
}
);
lib = {
};
name = B;
unicodes = (
);
width = 1292;
};
};
components = (
);
contours = {
};
lib = {
};
name = B;
points = {
};
segmentType = curve;
unicodes = (
);
width = 1395;
x = 676;
y = 1260;
};
},
{
color = 3;
glyphname = C;
lastChange = "2019-07-17 15:12:59 +0000";
layers = (
{
anchors = (
{
name = bottom;
position = "{497, 0}";
},
{
name = top;
position = "{500, 705}";
}
);
background = {
anchors = (
{
name = bottom;
position = "{380, 0}";
},
{
name = top;
position = "{382, 705}";
}
);
paths = (
{
closed = 1;
nodes = (
"479 -8 OFFCURVE",
"560 24 OFFCURVE",
"621 87 CURVE",
"600 122 LINE",
"534 59 OFFCURVE",
"468 33 OFFCURVE",
"380 33 CURVE SMOOTH",
"209 33 OFFCURVE",
"111 150 OFFCURVE",
"111 353 CURVE SMOOTH",
"111 555 OFFCURVE",
"210 672 OFFCURVE",
"380 672 CURVE SMOOTH",
"468 672 OFFCURVE",
"534 646 OFFCURVE",
"600 583 CURVE",
"621 618 LINE",
"560 681 OFFCURVE",
"479 713 OFFCURVE",
"381 713 CURVE SMOOTH",
"185 713 OFFCURVE",
"67 577 OFFCURVE",
"67 353 CURVE SMOOTH",
"67 128 OFFCURVE",
"186 -8 OFFCURVE",
"381 -8 CURVE SMOOTH"
);
}
);
};
layerId = "F1F93986-3ED8-4AAE-84C4-CA3EEECDDFA0";
paths = (
{
closed = 1;
nodes = (
"626 -8 OFFCURVE",
"732 24 OFFCURVE",
"813 87 CURVE",
"789 122 LINE",
"701 59 OFFCURVE",
"614 33 OFFCURVE",
"496 33 CURVE SMOOTH",
"267 33 OFFCURVE",
"134 150 OFFCURVE",
"134 353 CURVE SMOOTH",
"134 555 OFFCURVE",
"269 672 OFFCURVE",
"496 672 CURVE SMOOTH",
"613 672 OFFCURVE",
"701 646 OFFCURVE",
"789 583 CURVE",
"813 618 LINE",
"732 681 OFFCURVE",
"625 713 OFFCURVE",
"498 713 CURVE SMOOTH",
"244 713 OFFCURVE",
"90 577 OFFCURVE",
"90 353 CURVE SMOOTH",
"90 128 OFFCURVE",
"245 -8 OFFCURVE",
"498 -8 CURVE SMOOTH"
);
}
);
width = 886;
},
{
anchors = (
{
name = bottom;
position = "{519, 0}";
},
{
name = top;
position = "{519, 705}";
}
);
background = {
anchors = (
{
name = bottom;
position = "{402, 0}";
},
{
name = top;
position = "{401, 705}";
}
);
paths = (
{
closed = 1;
nodes = (
"502 -10 OFFCURVE",
"598 20 OFFCURVE",
"650 64 CURVE",
"585 215 LINE",
"527 178 OFFCURVE",
"471 160 OFFCURVE",
"416 160 CURVE SMOOTH",
"313 160 OFFCURVE",
"259 226 OFFCURVE",
"259 353 CURVE SMOOTH",
"259 480 OFFCURVE",
"312 545 OFFCURVE",
"416 545 CURVE SMOOTH",
"471 545 OFFCURVE",
"527 527 OFFCURVE",
"585 490 CURVE",
"650 641 LINE",
"598 685 OFFCURVE",
"502 715 OFFCURVE",
"412 715 CURVE SMOOTH",
"187 715 OFFCURVE",
"41 572 OFFCURVE",
"41 353 CURVE SMOOTH",
"41 133 OFFCURVE",
"188 -10 OFFCURVE",
"412 -10 CURVE SMOOTH"
);
}
);
};
layerId = "4121B50C-FD42-45C5-8FBE-41E76D98F91E";
paths = (
{
closed = 1;
nodes = (
"649 -10 OFFCURVE",
"770 20 OFFCURVE",
"842 64 CURVE",
"774 215 LINE",
"694 178 OFFCURVE",
"616 160 OFFCURVE",
"532 160 CURVE SMOOTH",
"371 160 OFFCURVE",
"282 226 OFFCURVE",
"282 353 CURVE SMOOTH",
"282 480 OFFCURVE",
"371 545 OFFCURVE",
"532 545 CURVE SMOOTH",
"616 545 OFFCURVE",
"694 527 OFFCURVE",
"774 490 CURVE",
"842 641 LINE",
"770 685 OFFCURVE",
"648 715 OFFCURVE",
"529 715 CURVE SMOOTH",
"246 715 OFFCURVE",
"64 572 OFFCURVE",
"64 353 CURVE SMOOTH",
"64 133 OFFCURVE",
"247 -10 OFFCURVE",
"529 -10 CURVE SMOOTH"
);
}
);
width = 890;
}
);
leftKerningGroup = O;
leftMetricsKey = O;
rightKerningGroup = C;
unicode = 0043;
userData = {
anchors = (
);
b = {
};
com.typemytype.robofont.layerData = {
b = {
anchors = (
);
components = (
);
contours = (
);
lib = {
};
name = C;
unicodes = (
);
width = 1353.89001;
};
};
components = (
);
contours = (
);
lib = {
};
name = C;
unicodes = (
);
width = 1354;
};
},
{
color = 3;
glyphname = D;
lastChange = "2019-07-17 15:12:59 +0000";
layers = (
{
anchors = (
{
name = bottom;
position = "{475, 0}";
},
{
name = center;
position = "{224, 358}";
},
{
name = top;
position = "{472, 705}";
}
);
background = {
anchors = (
{
name = bottom;
position = "{363, 0}";
},
{
name = center;
position = "{173, 358}";
},
{
name = top;
position = "{362, 705}";
}
);
paths = (
{
closed = 1;
nodes = (
"313 0 LINE SMOOTH",
"533 0 OFFCURVE",
"658 127 OFFCURVE",
"658 353 CURVE SMOOTH",
"658 579 OFFCURVE",
"535 705 OFFCURVE",
"313 705 CURVE SMOOTH",
"96 705 LINE",
"96 0 LINE"
);
},
{
closed = 1;
nodes = (
"138 667 LINE",
"312 667 LINE SMOOTH",
"512 667 OFFCURVE",
"613 561 OFFCURVE",
"613 353 CURVE SMOOTH",
"613 145 OFFCURVE",
"511 38 OFFCURVE",
"312 38 CURVE SMOOTH",
"138 38 LINE"
);
}
);
};
layerId = "F1F93986-3ED8-4AAE-84C4-CA3EEECDDFA0";
paths = (
{
closed = 1;
nodes = (
"407 0 LINE SMOOTH",
"693 0 OFFCURVE",
"857 127 OFFCURVE",
"857 353 CURVE SMOOTH",
"857 579 OFFCURVE",
"696 705 OFFCURVE",
"407 705 CURVE SMOOTH",
"129 705 LINE",
"129 0 LINE"
);
},
{
closed = 1;
nodes = (
"171 666 LINE",
"407 666 LINE SMOOTH",
"674 666 OFFCURVE",
"811 561 OFFCURVE",
"811 353 CURVE SMOOTH",
"811 145 OFFCURVE",
"672 39 OFFCURVE",
"407 39 CURVE SMOOTH",
"171 39 LINE"
);
}
);
width = 947;
},
{
anchors = (
{
name = bottom;
position = "{503, 0}";
},
{
name = center;
position = "{265, 358}";
},
{
name = top;
position = "{501, 705}";
}
);
background = {
anchors = (
{
name = bottom;
position = "{391, 0}";
},
{
name = center;
position = "{214, 358}";
},
{
name = top;
position = "{391, 705}";
}
);
paths = (
{
closed = 1;
nodes = (
"360 0 LINE SMOOTH",
"599 0 OFFCURVE",
"743 132 OFFCURVE",
"743 353 CURVE SMOOTH",
"743 571 OFFCURVE",
"598 705 OFFCURVE",
"360 705 CURVE SMOOTH",
"57 705 LINE",
"57 0 LINE"
);
},
{
closed = 1;
nodes = (
"272 533 LINE",
"344 533 LINE SMOOTH",
"468 533 OFFCURVE",
"528 475 OFFCURVE",
"528 353 CURVE SMOOTH",
"528 231 OFFCURVE",
"469 172 OFFCURVE",
"344 172 CURVE SMOOTH",
"272 172 LINE"
);
}
);
};
layerId = "4121B50C-FD42-45C5-8FBE-41E76D98F91E";
paths = (
{
closed = 1;
nodes = (
"454 0 LINE SMOOTH",
"759 0 OFFCURVE",
"942 132 OFFCURVE",
"942 353 CURVE SMOOTH",
"942 571 OFFCURVE",
"759 705 OFFCURVE",
"454 705 CURVE SMOOTH",
"90 705 LINE",
"90 0 LINE"
);
},
{
closed = 1;
nodes = (
"305 533 LINE",
"439 533 LINE SMOOTH",
"630 533 OFFCURVE",
"726 475 OFFCURVE",
"726 353 CURVE SMOOTH",
"726 231 OFFCURVE",
"630 172 OFFCURVE",
"439 172 CURVE SMOOTH",
"305 172 LINE"
);
}
);
width = 1006;
}
);
leftKerningGroup = H;
leftMetricsKey = H;
rightKerningGroup = O;
rightMetricsKey = O;
unicode = 0044;
userData = {
anchors = (
);
b = {
};
com.typemytype.robofont.layerData = {
b = {
anchors = (
);
components = (
);
contours = (
{
points = (
{
segmentType = curve;
smooth = 1;
x = 266;
y = 0;
},
{
segmentType = line;
smooth = 1;
x = 1035;
y = 0;
},
{
smooth = 0;
x = 1084;
y = 0;
},
{
smooth = 0;
x = 1108;
y = 34;
},
{
segmentType = curve;
smooth = 1;
x = 1108;
y = 71;
},
{
smooth = 0;
x = 1108;
y = 107;
},
{
smooth = 0;
x = 1084;
y = 141;
},
{
segmentType = curve;
smooth = 1;
x = 1035;
y = 141;
},
{
segmentType = line;
smooth = 0;
x = 356;
y = 141;
},
{
segmentType = line;
smooth = 0;
x = 356;
y = 665;
},
{
segmentType = line;
smooth = 1;
x = 975;
y = 665;
},
{
smooth = 0;
x = 1024;
y = 665;
},
{
smooth = 0;
x = 1049;
y = 698;
},
{
segmentType = curve;
smooth = 1;
x = 1049;
y = 734;
},
{
smooth = 0;
x = 1049;
y = 770;
},
{
smooth = 0;
x = 1026;
y = 803;
},
{
segmentType = curve;
smooth = 1;
x = 975;
y = 803;
},
{
segmentType = line;
smooth = 0;
x = 356;
y = 803;
},
{
segmentType = line;
smooth = 0;
x = 356;
y = 1285;
},
{
segmentType = line;
smooth = 1;
x = 1007;
y = 1285;
},
{
smooth = 0;
x = 1056;
y = 1285;
},
{
smooth = 0;
x = 1080;
y = 1319;
},
{
segmentType = curve;
smooth = 1;
x = 1080;
y = 1356;
},
{
smooth = 0;
x = 1080;
y = 1392;
},
{
smooth = 0;
x = 1056;
y = 1426;
},
{
segmentType = curve;
smooth = 1;
x = 1007;
y = 1426;
},
{
segmentType = line;
smooth = 1;
x = 261;
y = 1426;
},
{
smooth = 0;
x = 213;
y = 1426;
},
{
smooth = 0;
x = 178;
y = 1383;
},
{
segmentType = curve;
smooth = 1;
x = 178;
y = 1340;
},
{
segmentType = line;
smooth = 1;
x = 178;
y = 86;
},
{
smooth = 0;
x = 178;
y = 41;
},
{
smooth = 0;
x = 222;
y = 0;
}
);
}
);
lib = {
};
name = D;
unicodes = (
);
width = 1499;
};
};
components = (
);
contours = (
);
lib = {
};
name = D;
unicodes = (
);
width = 1535;
};
},
{
color = 3;
glyphname = E;
lastChange = "2019-07-17 15:12:59 +0000";
layers = (
{
anchors = (
{
name = bottom;
position = "{419, 0}";
},
{
name = ogonek;
position = "{639, 0}";
},
{
name = top;
position = "{419, 705}";
},
{
name = topleft;
position = "{36, 705}";
}
);
background = {
anchors = (
{
name = bottom;
position = "{320, 0}";
},
{
name = ogonek;
position = "{501, 0}";
},
{
name = top;
position = "{320, 705}";
},
{
name = topleft;
position = "{27, 705}";
}
);
paths = (
{
closed = 1;
nodes = (
"520 705 LINE",
"96 705 LINE",
"96 0 LINE",
"520 0 LINE",
"520 39 LINE",
"138 39 LINE",
"138 338 LINE",
"500 338 LINE",
"500 377 LINE",
"138 377 LINE",
"138 666 LINE",
"520 666 LINE"
);
}
);
};
guideLines = (
{
angle = 270;
position = "{520, 353}";
}
);
layerId = "F1F93986-3ED8-4AAE-84C4-CA3EEECDDFA0";
paths = (
{
closed = 1;
nodes = (
"678 705 LINE",
"129 705 LINE",
"129 0 LINE",
"678 0 LINE",
"678 39 LINE",
"171 39 LINE",
"171 338 LINE",
"652 338 LINE",
"652 377 LINE",
"171 377 LINE",
"171 666 LINE",
"678 666 LINE"
);
}
);
width = 746;
},
{
anchors = (
{
name = bottom;
position = "{435, 0}";
},
{
name = ogonek;
position = "{694, 0}";
},
{
name = top;
position = "{435, 705}";
},
{
name = topleft;
position = "{27, 705}";
}
);
background = {
anchors = (
{
name = bottom;
position = "{336, 0}";
},
{
name = ogonek;
position = "{552, 0}";
},
{
name = top;
position = "{336, 705}";
},
{
name = topleft;
position = "{18, 705}";
}
);
paths = (
{
closed = 1;
nodes = (
"575 705 LINE",
"57 705 LINE",
"57 0 LINE",
"575 0 LINE",
"575 164 LINE",
"266 164 LINE",
"266 277 LINE",
"555 277 LINE",
"555 441 LINE",
"266 441 LINE",
"266 541 LINE",
"575 541 LINE"
);
}
);
};
guideLines = (
{
angle = 270;
position = "{575, 353}";
}
);
layerId = "4121B50C-FD42-45C5-8FBE-41E76D98F91E";
paths = (
{
closed = 1;
nodes = (
"733 705 LINE",
"90 705 LINE",
"90 0 LINE",
"733 0 LINE",
"733 164 LINE",
"298 164 LINE",
"298 274 LINE",
"707 274 LINE",
"707 438 LINE",
"298 438 LINE",
"298 541 LINE",
"733 541 LINE"
);
}
);
width = 780;
}
);
leftKerningGroup = H;
leftMetricsKey = H;
rightKerningGroup = E;
unicode = 0045;
userData = {
anchors = (
);
b = {
};
com.typemytype.robofont.layerData = {
b = {
anchors = (
);
components = (
);
contours = (
);
lib = {
};
name = E;
unicodes = (
);
width = 1234;
};
};
components = (
);
contours = (
);
lib = {
};
name = E;
unicodes = (
);
width = 1258;
};
},
{
color = 3;
glyphname = F;
lastChange = "2019-07-17 15:12:59 +0000";
layers = (
{
anchors = (
{
name = bottom;
position = "{383, 0}";
},
{
name = top;
position = "{383, 705}";
}
);
background = {
anchors = (
{
name = bottom;
position = "{293, 0}";
},
{
name = top;
position = "{293, 705}";
}
);
paths = (
{
closed = 1;
nodes = (
"510 705 LINE",
"96 705 LINE",
"96 0 LINE",
"138 0 LINE",
"138 338 LINE",
"490 338 LINE",
"490 377 LINE",
"138 377 LINE",
"138 666 LINE",
"510 666 LINE"
);
}
);
};
layerId = "F1F93986-3ED8-4AAE-84C4-CA3EEECDDFA0";
paths = (
{
closed = 1;
nodes = (
"666 705 LINE",
"129 705 LINE",
"129 0 LINE",
"171 0 LINE",
"171 338 LINE",
"639 338 LINE",
"639 377 LINE",
"171 377 LINE",
"171 666 LINE",
"666 666 LINE"
);
}
);
width = 717;
},
{
anchors = (
{
name = bottom;
position = "{392, 0}";
},
{
name = top;
position = "{392, 705}";
}
);
background = {
anchors = (
{
name = bottom;
position = "{302, 0}";
},
{
name = top;
position = "{302, 705}";
}
);
paths = (
{
closed = 1;
nodes = (
"565 705 LINE",
"57 705 LINE",
"57 0 LINE",
"269 0 LINE",
"269 275 LINE",
"545 275 LINE",
"545 442 LINE",
"269 442 LINE",
"269 538 LINE",
"565 538 LINE"
);
}
);
};
layerId = "4121B50C-FD42-45C5-8FBE-41E76D98F91E";
paths = (
{
closed = 1;
nodes = (
"721 705 LINE",
"90 705 LINE",
"90 0 LINE",
"301 0 LINE",
"301 267 LINE",
"694 267 LINE",
"694 431 LINE",
"301 431 LINE",
"301 541 LINE",
"721 541 LINE"
);
}
);
width = 753;
}
);
leftKerningGroup = H;
leftMetricsKey = H;
rightKerningGroup = F;
unicode = 0046;
userData = {
anchors = (
);
b = {
};
com.typemytype.robofont.layerData = {
b = {
anchors = (
);
components = (
);
contours = (
{
points = (
{
segmentType = curve;
smooth = 1;
x = 266;
y = 0;
},
{
segmentType = line;
smooth = 1;
x = 1035;
y = 0;
},
{
smooth = 0;
x = 1084;
y = 0;
},
{
smooth = 0;
x = 1108;
y = 34;
},
{
segmentType = curve;
smooth = 1;
x = 1108;
y = 71;
},
{
smooth = 0;
x = 1108;
y = 107;
},
{
smooth = 0;
x = 1084;
y = 141;
},
{
segmentType = curve;
smooth = 1;
x = 1035;
y = 141;
},
{
segmentType = line;
smooth = 0;
x = 353;
y = 141;
},
{
segmentType = line;
smooth = 0;
x = 353;
y = 665;
},
{
segmentType = line;
smooth = 1;
x = 975;
y = 665;
},
{
smooth = 0;
x = 1024;
y = 665;
},
{
smooth = 0;
x = 1049;
y = 698;
},
{
segmentType = curve;
smooth = 1;
x = 1049;
y = 734;
},
{
smooth = 0;
x = 1049;
y = 770;
},
{
smooth = 0;
x = 1026;
y = 803;
},
{
segmentType = curve;
smooth = 1;
x = 975;
y = 803;
},
{
segmentType = line;
smooth = 0;
x = 353;
y = 803;
},
{
segmentType = line;
smooth = 0;
x = 353;
y = 1285;
},
{
segmentType = line;
smooth = 1;
x = 1007;
y = 1285;
},
{
smooth = 0;
x = 1056;
y = 1285;
},
{
smooth = 0;
x = 1080;
y = 1319;
},
{
segmentType = curve;
smooth = 1;
x = 1080;
y = 1356;
},
{
smooth = 0;
x = 1080;
y = 1392;
},
{
smooth = 0;
x = 1056;
y = 1426;
},
{
segmentType = curve;
smooth = 1;
x = 1007;
y = 1426;
},
{
segmentType = line;
smooth = 1;
x = 261;
y = 1426;
},
{
smooth = 0;
x = 213;
y = 1426;
},
{
smooth = 0;
x = 178;
y = 1383;
},
{
segmentType = curve;
smooth = 1;
x = 178;
y = 1340;
},
{
segmentType = line;
smooth = 1;
x = 178;
y = 86;
},
{
smooth = 0;
x = 178;
y = 41;
},
{
smooth = 0;
x = 222;
y = 0;
}
);
}
);
lib = {
};
name = F;
unicodes = (
);
width = 1142;
};
};
components = (
);
contours = (
);
lib = {
};
name = F;
unicodes = (
);
width = 1175;
};
},
{
color = 3;
glyphname = G;
lastChange = "2019-07-17 15:12:59 +0000";
layers = (
{
anchors = (
{
name = bottom;
position = "{509, 0}";
},
{
name = top;
position = "{500, 705}";
}
);
background = {
anchors = (
{
name = bottom;
position = "{390, 0}";
},
{
name = top;
position = "{383, 705}";
}
);
paths = (
{
closed = 1;
nodes = (
"482 -8 OFFCURVE",
"579 13 OFFCURVE",
"628 40 CURVE",
"628 355 LINE",
"394 355 LINE",
"394 315 LINE",
"589 315 LINE",
"589 35 LINE",
"600 73 LINE",
"543 47 OFFCURVE",
"475 33 OFFCURVE",
"401 33 CURVE SMOOTH",
"210 33 OFFCURVE",
"111 142 OFFCURVE",
"111 353 CURVE SMOOTH",
"111 555 OFFCURVE",
"210 672 OFFCURVE",
"383 672 CURVE SMOOTH",
"473 672 OFFCURVE",
"541 644 OFFCURVE",
"602 582 CURVE",
"623 618 LINE",
"566 680 OFFCURVE",
"483 713 OFFCURVE",
"386 713 CURVE SMOOTH",
"184 713 OFFCURVE",
"67 579 OFFCURVE",
"67 353 CURVE SMOOTH",
"67 121 OFFCURVE",
"187 -8 OFFCURVE",
"402 -8 CURVE SMOOTH"
);
}
);
};
layerId = "F1F93986-3ED8-4AAE-84C4-CA3EEECDDFA0";
paths = (
{
closed = 1;
nodes = (
"629 -8 OFFCURVE",
"757 13 OFFCURVE",
"819 40 CURVE",
"819 355 LINE",
"517 355 LINE",
"517 316 LINE",
"778 316 LINE",
"778 35 LINE",
"791 73 LINE",
"719 48 OFFCURVE",
"627 33 OFFCURVE",
"524 33 CURVE SMOOTH",
"268 33 OFFCURVE",
"134 142 OFFCURVE",
"134 353 CURVE SMOOTH",
"134 555 OFFCURVE",
"269 672 OFFCURVE",
"499 672 CURVE SMOOTH",
"620 672 OFFCURVE",
"709 644 OFFCURVE",
"789 582 CURVE",
"814 618 LINE",
"739 680 OFFCURVE",
"629 713 OFFCURVE",
"504 713 CURVE SMOOTH",
"242 713 OFFCURVE",
"90 579 OFFCURVE",
"90 353 CURVE SMOOTH",
"90 121 OFFCURVE",
"246 -8 OFFCURVE",
"526 -8 CURVE SMOOTH"
);
}
);
width = 938;
},
{
anchors = (
{
name = bottom;
position = "{545, 0}";
},
{
name = top;
position = "{536, 705}";
}
);
background = {
anchors = (
{
name = bottom;
position = "{426, 0}";
},
{
name = top;
position = "{419, 705}";
}
);
paths = (
{
closed = 1;
nodes = (
"525 -10 OFFCURVE",
"621 9 OFFCURVE",
"701 46 CURVE",
"701 407 LINE",
"400 407 LINE",
"400 263 LINE",
"509 263 LINE",
"509 112 LINE",
"555 169 LINE",
"509 157 OFFCURVE",
"465 153 OFFCURVE",
"432 153 CURVE SMOOTH",
"315 153 OFFCURVE",
"258 214 OFFCURVE",
"258 353 CURVE SMOOTH",
"258 488 OFFCURVE",
"310 547 OFFCURVE",
"427 547 CURVE SMOOTH",
"491 547 OFFCURVE",
"544 530 OFFCURVE",
"611 493 CURVE",
"675 644 LINE",
"619 687 OFFCURVE",
"522 715 OFFCURVE",
"418 715 CURVE SMOOTH",
"190 715 OFFCURVE",
"41 572 OFFCURVE",
"41 353 CURVE SMOOTH",
"41 128 OFFCURVE",
"191 -10 OFFCURVE",
"421 -10 CURVE SMOOTH"
);
}
);
};
layerId = "4121B50C-FD42-45C5-8FBE-41E76D98F91E";
paths = (
{
closed = 1;
nodes = (
"671 -10 OFFCURVE",
"799 9 OFFCURVE",
"892 46 CURVE",
"892 407 LINE",
"523 407 LINE",
"523 259 LINE",
"707 259 LINE",
"707 112 LINE",
"746 169 LINE",
"682 157 OFFCURVE",
"614 153 OFFCURVE",
"555 153 CURVE SMOOTH",
"373 153 OFFCURVE",
"281 214 OFFCURVE",
"281 353 CURVE SMOOTH",
"281 488 OFFCURVE",
"369 547 OFFCURVE",
"543 547 CURVE SMOOTH",
"638 547 OFFCURVE",
"712 530 OFFCURVE",
"798 493 CURVE",
"866 644 LINE",
"792 687 OFFCURVE",
"668 715 OFFCURVE",
"536 715 CURVE SMOOTH",
"248 715 OFFCURVE",
"64 572 OFFCURVE",
"64 353 CURVE SMOOTH",
"64 128 OFFCURVE",
"250 -10 OFFCURVE",
"545 -10 CURVE SMOOTH"
);
}
);
width = 970;
}
);
leftKerningGroup = O;
leftMetricsKey = O;
rightKerningGroup = G;
unicode = 0047;
userData = {
anchors = (
);
b = {
};
com.typemytype.robofont.layerData = {
b = {
anchors = (
);
components = (
);
contours = (
{
points = (
{
segmentType = curve;
smooth = 1;
x = 783;
y = "-22";
},
{
smooth = 0;
x = 965;
y = "-22";
},
{
smooth = 0;
x = 1086;
y = 34;
},
{
segmentType = curve;
smooth = 1;
x = 1166;
y = 86;
},
{
smooth = 0;
x = 1270;
y = 154;
},
{
smooth = 0;
x = 1186;
y = 258;
},
{
segmentType = curve;
smooth = 1;
x = 1112;
y = 214;
},
{
smooth = 0;
x = 1024;
y = 162;
},
{
smooth = 0;
x = 939;
y = 120;
},
{
segmentType = curve;
smooth = 1;
x = 806;
y = 120;
},
{
smooth = 0;
x = 446;
y = 120;
},
{
smooth = 0;
x = 316;
y = 406;
},
{
segmentType = curve;
smooth = 1;
x = 316;
y = 706;
},
{
smooth = 0;
x = 316;
y = 1005;
},
{
smooth = 0;
x = 450;
y = 1296;
},
{
segmentType = curve;
smooth = 1;
x = 801;
y = 1296;
},
{
smooth = 0;
x = 980;
y = 1296;
},
{
smooth = 0;
x = 1053;
y = 1246;
},
{
segmentType = curve;
smooth = 1;
x = 1094;
y = 1225;
},
{
smooth = 0;
x = 1174;
y = 1184;
},
{
smooth = 0;
x = 1231;
y = 1300;
},
{
segmentType = curve;
smooth = 1;
x = 1156;
y = 1343;
},
{
smooth = 0;
x = 1106;
y = 1372;
},
{
smooth = 0;
x = 995;
y = 1438;
},
{
segmentType = curve;
smooth = 1;
x = 797;
y = 1438;
},
{
smooth = 0;
x = 359;
y = 1438;
},
{
smooth = 0;
x = 128;
y = 1093;
},
{
segmentType = curve;
smooth = 1;
x = 128;
y = 704;
},
{
smooth = 0;
x = 128;
y = 307;
},
{
smooth = 0;
x = 350;
y = "-22";
}
);
}
);
lib = {
};
name = G;
unicodes = (
);
width = 1448;
};
};
components = (
);
contours = (
);
lib = {
};
name = G;
unicodes = (
);
width = 1538;
};
},
{
color = 3;
glyphname = H;
lastChange = "2019-07-17 15:12:59 +0000";
layers = (
{
anchors = (
{
name = bottom;
position = "{492, 0}";
},
{
name = center;
position = "{492, 546}";
},
{
name = top;
position = "{490, 705}";
},
{
name = topleft;
position = "{36, 705}";
}
);
background = {
anchors = (
{
name = bottom;
position = "{376, 0}";
},
{
name = center;
position = "{376, 546}";
},
{
name = top;
position = "{375, 705}";
},
{
name = topleft;
position = "{27, 705}";
}
);
paths = (
{
closed = 1;
nodes = (
"613 377 LINE",
"138 377 LINE",
"138 705 LINE",
"96 705 LINE",
"96 0 LINE",
"138 0 LINE",
"138 339 LINE",
"613 339 LINE",
"613 0 LINE",
"655 0 LINE",
"655 705 LINE",
"613 705 LINE"
);
}
);
};
layerId = "F1F93986-3ED8-4AAE-84C4-CA3EEECDDFA0";
paths = (
{
closed = 1;
nodes = (
"813 377 LINE",
"171 377 LINE",
"171 705 LINE",
"129 705 LINE",
"129 0 LINE",
"171 0 LINE",
"171 338 LINE",
"813 338 LINE",
"813 0 LINE",
"853 0 LINE",
"853 705 LINE",
"813 705 LINE"
);
}
);
width = 982;
},
{
anchors = (
{
name = bottom;
position = "{511, 0}";
},
{
name = center;
position = "{511, 575}";
},
{
name = top;
position = "{510, 705}";
},
{
name = topleft;
position = "{27, 705}";
}
);
background = {
anchors = (
{
name = bottom;
position = "{391, 0}";
},
{
name = center;
position = "{391, 575}";
},
{
name = top;
position = "{391, 705}";
},
{
name = topleft;
position = "{18, 705}";
}
);
paths = (
{
closed = 1;
nodes = (
"514 442 LINE",
"268 442 LINE",
"268 705 LINE",
"57 705 LINE",
"57 0 LINE",
"268 0 LINE",
"268 274 LINE",
"514 274 LINE",
"514 0 LINE",
"725 0 LINE",
"725 705 LINE",
"514 705 LINE"
);
}
);
};
layerId = "4121B50C-FD42-45C5-8FBE-41E76D98F91E";
paths = (
{
closed = 1;
nodes = (
"718 445 LINE",
"305 445 LINE",
"305 705 LINE",
"90 705 LINE",
"90 0 LINE",
"305 0 LINE",
"305 271 LINE",
"718 271 LINE",
"718 0 LINE",
"931 0 LINE",
"931 705 LINE",
"718 705 LINE"
);
}
);
width = 1021;
}
);
leftKerningGroup = H;
rightKerningGroup = H;
rightMetricsKey = "=|";
unicode = 0048;
userData = {
anchors = (
);
b = {
};
com.typemytype.robofont.layerData = {
b = {
anchors = (
);
components = (
);
contours = (
);
lib = {
};
name = H;
unicodes = (
);
width = 1464;
};
};
components = (
);
contours = (
);
lib = {
};
name = H;
unicodes = (
);
width = 1524;
};
},
{
color = 3;
glyphname = I;
lastChange = "2019-07-17 15:12:59 +0000";
layers = (
{
anchors = (
{
name = bottom;
position = "{150, 0}";
},
{
name = ogonek;
position = "{175, 0}";
},
{
name = top;
position = "{150, 705}";
},
{
name = topleft;
position = "{37, 705}";
}
);
background = {
anchors = (
{
name = bottom;
position = "{117, 0}";
},
{
name = ogonek;
position = "{138, 0}";
},
{
name = top;
position = "{117, 705}";
},
{
name = topleft;
position = "{28, 705}";
}
);
paths = (
{
closed = 1;
nodes = (
"138 0 LINE",
"138 705 LINE",
"96 705 LINE",
"96 0 LINE"
);
}
);
};
layerId = "F1F93986-3ED8-4AAE-84C4-CA3EEECDDFA0";
paths = (
{
closed = 1;
nodes = (
"171 0 LINE",
"171 705 LINE",
"129 705 LINE",
"129 0 LINE"
);
}
);
width = 300;
},
{
anchors = (
{
name = bottom;
position = "{197, 0}";
},
{
name = ogonek;
position = "{252, 0}";
},
{
name = top;
position = "{197, 705}";
},
{
name = topleft;
position = "{27, 705}";
}
);
background = {
anchors = (
{
name = bottom;
position = "{164, 0}";
},
{
name = ogonek;
position = "{231, 0}";
},
{
name = top;
position = "{164, 705}";
},
{
name = topleft;
position = "{18, 705}";
}
);
paths = (
{
closed = 1;
nodes = (
"272 0 LINE",
"272 705 LINE",
"57 705 LINE",
"57 0 LINE"
);
}
);
};
layerId = "4121B50C-FD42-45C5-8FBE-41E76D98F91E";
paths = (
{
closed = 1;
nodes = (
"305 0 LINE",
"305 705 LINE",
"90 705 LINE",
"90 0 LINE"
);
}
);
width = 395;
}
);
leftKerningGroup = H;
leftMetricsKey = H;
rightKerningGroup = H;
rightMetricsKey = H;
unicode = 0049;
userData = {
anchors = (
);
b = {
};
com.typemytype.robofont.layerData = {
b = {
anchors = (
);
components = (
);
contours = (
);
lib = {
};
name = I;
unicodes = (
);
width = 592;
};
};
components = (
);
contours = (
);
lib = {
};
name = I;
unicodes = (
);
width = 637;
};
},
{
color = 3;
glyphname = J;
lastChange = "2019-07-17 15:12:59 +0000";
layers = (
{
anchors = (
{
name = bottom;
position = "{232, 0}";
},
{
name = top;
position = "{231, 705}";
}
);
background = {
anchors = (
{
name = bottom;
position = "{181, 0}";
},
{
name = top;
position = "{180, 705}";
}
);
paths = (
{
closed = 1;
nodes = (
"44 -2 LINE SMOOTH",
"145 5 OFFCURVE",
"201 70 OFFCURVE",
"201 177 CURVE SMOOTH",
"201 705 LINE",
"159 705 LINE",
"159 179 LINE SMOOTH",
"159 96 OFFCURVE",
"116 42 OFFCURVE",
"41 36 CURVE SMOOTH",
"-10 32 LINE",
"-6 -6 LINE"
);
}
);
};
layerId = "F1F93986-3ED8-4AAE-84C4-CA3EEECDDFA0";
paths = (
{
closed = 1;
nodes = (
"52 -2 LINE SMOOTH",
"179 6 OFFCURVE",
"251 72 OFFCURVE",
"251 177 CURVE SMOOTH",
"251 705 LINE",
"210 705 LINE",
"210 179 LINE SMOOTH",
"210 95 OFFCURVE",
"149 42 OFFCURVE",
"50 36 CURVE SMOOTH",
"-14 32 LINE",
"-10 -6 LINE"
);
}
);
width = 380;
},
{
anchors = (
{
name = bottom;
position = "{297, 0}";
},
{
name = top;
position = "{297, 705}";
}
);
background = {
anchors = (
{
name = bottom;
position = "{246, 0}";
},
{
name = top;
position = "{246, 705}";
}
);
paths = (
{
closed = 1;
nodes = (
"117 -7 LINE SMOOTH",
"277 2 OFFCURVE",
"354 76 OFFCURVE",
"354 221 CURVE SMOOTH",
"354 705 LINE",
"137 705 LINE",
"137 217 LINE SMOOTH",
"137 177 OFFCURVE",
"123 166 OFFCURVE",
"80 164 CURVE SMOOTH",
"-9 159 LINE",
"4 -12 LINE"
);
}
);
};
layerId = "4121B50C-FD42-45C5-8FBE-41E76D98F91E";
paths = (
{
closed = 1;
nodes = (
"124 -6 LINE SMOOTH",
"311 3 OFFCURVE",
"404 77 OFFCURVE",
"404 221 CURVE SMOOTH",
"404 705 LINE",
"190 705 LINE",
"190 217 LINE SMOOTH",
"190 173 OFFCURVE",
"150 167 OFFCURVE",
"89 164 CURVE SMOOTH",
"-13 159 LINE",
"0 -12 LINE"
);
}
);
width = 494;
}
);
leftKerningGroup = J;
rightKerningGroup = J;
rightMetricsKey = H;
unicode = 004A;
userData = {
anchors = (
);
b = {
};
com.typemytype.robofont.layerData = {
b = {
anchors = (
);
components = (
);
contours = (
);
lib = {
};
name = J;
unicodes = (
);
width = 1003;
};
};
components = (
);
contours = (
);
lib = {
};
name = J;
unicodes = (
);
width = 1126;
};
},
{
color = 3;
glyphname = K;
lastChange = "2019-07-17 15:12:59 +0000";
layers = (
{
anchors = (
{
name = bottom;
position = "{391, 0}";
},
{
name = top;
position = "{390, 705}";
},
{
name = topleft;
position = "{36, 705}";
}
);
background = {
anchors = (
{
name = bottom;
position = "{302, 0}";
},
{
name = top;
position = "{301, 705}";
},
{
name = topleft;
position = "{27, 705}";
}
);
paths = (
{
closed = 1;
nodes = (
"156 376 LINE",
"156 341 LINE",
"568 705 LINE",
"509 705 LINE",
"137 375 LINE",
"137 705 LINE",
"96 705 LINE",
"96 0 LINE",
"137 0 LINE",
"137 340 LINE",
"530 0 LINE",
"591 0 LINE"
);
}
);
};
layerId = "F1F93986-3ED8-4AAE-84C4-CA3EEECDDFA0";
paths = (
{
closed = 1;
nodes = (
"185 376 LINE",
"186 341 LINE",
"729 705 LINE",
"667 705 LINE",
"171 375 LINE",
"171 705 LINE",
"129 705 LINE",
"129 0 LINE",
"171 0 LINE",
"171 340 LINE",
"695 0 LINE",
"762 0 LINE"
);
}
);
width = 762;
},
{
anchors = (
{
name = bottom;
position = "{451, 0}";
},
{
name = top;
position = "{451, 705}";
},
{
name = topleft;
position = "{27, 705}";
}
);
background = {
anchors = (
{
name = bottom;
position = "{362, 0}";
},
{
name = top;
position = "{362, 705}";
},
{
name = topleft;
position = "{18, 705}";
}
);
paths = (
{
closed = 1;
nodes = (
"439 418 LINE",
"422 312 LINE",
"773 705 LINE",
"523 705 LINE",
"268 406 LINE",
"268 705 LINE",
"57 705 LINE",
"57 0 LINE",
"268 0 LINE",
"268 317 LINE",
"528 0 LINE",
"781 0 LINE"
);
}
);
};
layerId = "4121B50C-FD42-45C5-8FBE-41E76D98F91E";
paths = (
{
closed = 1;
nodes = (
"473 418 LINE",
"457 312 LINE",
"940 705 LINE",
"685 705 LINE",
"305 406 LINE",
"305 705 LINE",
"90 705 LINE",
"90 0 LINE",
"305 0 LINE",
"305 317 LINE",
"697 0 LINE",
"958 0 LINE"
);
}
);
width = 911;
}
);
leftKerningGroup = H;
leftMetricsKey = H;
rightKerningGroup = K;
unicode = 004B;
userData = {
anchors = (
);
b = {
};
com.typemytype.robofont.layerData = {
b = {
anchors = (
);
components = (
);
contours = (
);
lib = {
};
name = K;
unicodes = (
);
width = 1210;
};
};
components = (
);
contours = (
);
lib = {
};
name = K;
unicodes = (
);
width = 1329;
};
},
{
color = 3;
glyphname = L;
lastChange = "2019-07-17 15:12:59 +0000";
layers = (
{
anchors = (
{
name = bottom;
position = "{401, 0}";
},
{
name = center;
position = "{207, 387}";
},
{
name = dot;
position = "{492, 386}";
},
{
name = top;
position = "{150, 705}";
},
{
name = topright;
position = "{333, 705}";
}
);
background = {
anchors = (
{
name = bottom;
position = "{306, 0}";
},
{
name = center;
position = "{161, 387}";
},
{
name = dot;
position = "{379, 386}";
},
{
name = top;
position = "{117, 705}";
},
{
name = topright;
position = "{260, 705}";
}
);
paths = (
{
closed = 1;
nodes = (
"512 0 LINE",
"512 39 LINE",
"138 39 LINE",
"138 705 LINE",
"96 705 LINE",
"96 0 LINE"
);
}
);
};
layerId = "F1F93986-3ED8-4AAE-84C4-CA3EEECDDFA0";
paths = (
{
closed = 1;
nodes = (
"669 0 LINE",
"669 40 LINE",
"171 40 LINE",
"171 705 LINE",
"129 705 LINE",
"129 0 LINE"
);
}
);
width = 688;
},
{
anchors = (
{
name = bottom;
position = "{411, 0}";
},
{
name = center;
position = "{258, 387}";
},
{
name = dot;
position = "{569, 402}";
},
{
name = top;
position = "{197, 705}";
},
{
name = topright;
position = "{435, 705}";
}
);
background = {
anchors = (
{
name = bottom;
position = "{316, 0}";
},
{
name = center;
position = "{212, 387}";
},
{
name = dot;
position = "{456, 402}";
},
{
name = top;
position = "{164, 705}";
},
{
name = topright;
position = "{362, 705}";
}
);
paths = (
{
closed = 1;
nodes = (
"556 0 LINE",
"556 173 LINE",
"272 173 LINE",
"272 705 LINE",
"57 705 LINE",
"57 0 LINE"
);
}
);
};
layerId = "4121B50C-FD42-45C5-8FBE-41E76D98F91E";
paths = (
{
closed = 1;
nodes = (
"713 0 LINE",
"713 175 LINE",
"305 175 LINE",
"305 705 LINE",
"90 705 LINE",
"90 0 LINE"
);
}
);
width = 743;
}
);
leftKerningGroup = H;
leftMetricsKey = H;
rightKerningGroup = L;
unicode = 004C;
userData = {
anchors = (
);
b = {
};
com.typemytype.robofont.layerData = {
b = {
anchors = (
);
components = (
);
contours = (
{
points = (
{
segmentType = curve;
smooth = 1;
x = 266;
y = 0;
},
{
segmentType = line;
smooth = 1;
x = 1035;
y = 0;
},
{
smooth = 0;
x = 1084;
y = 0;
},
{
smooth = 0;
x = 1108;
y = 34;
},
{
segmentType = curve;
smooth = 1;
x = 1108;
y = 71;
},
{
smooth = 0;
x = 1108;
y = 107;
},
{
smooth = 0;
x = 1084;
y = 141;
},
{
segmentType = curve;
smooth = 1;
x = 1035;
y = 141;
},
{
segmentType = line;
smooth = 0;
x = 356;
y = 141;
},
{
segmentType = line;
smooth = 0;
x = 356;
y = 665;
},
{
segmentType = line;
smooth = 1;
x = 975;
y = 665;
},
{
smooth = 0;
x = 1024;
y = 665;
},
{
smooth = 0;
x = 1049;
y = 698;
},
{
segmentType = curve;
smooth = 1;
x = 1049;
y = 734;
},
{
smooth = 0;
x = 1049;
y = 770;
},
{
smooth = 0;
x = 1026;
y = 803;
},
{
segmentType = curve;
smooth = 1;
x = 975;
y = 803;
},
{
segmentType = line;
smooth = 0;
x = 356;
y = 803;
},
{
segmentType = line;
smooth = 0;
x = 356;
y = 1285;
},
{
segmentType = line;
smooth = 1;
x = 1007;
y = 1285;
},
{
smooth = 0;
x = 1056;
y = 1285;
},
{
smooth = 0;
x = 1080;
y = 1319;
},
{
segmentType = curve;
smooth = 1;
x = 1080;
y = 1356;
},
{
smooth = 0;
x = 1080;
y = 1392;
},
{
smooth = 0;
x = 1056;
y = 1426;
},
{
segmentType = curve;
smooth = 1;
x = 1007;
y = 1426;
},
{
segmentType = line;
smooth = 1;
x = 261;
y = 1426;
},
{
smooth = 0;
x = 213;
y = 1426;
},
{
smooth = 0;
x = 178;
y = 1383;
},
{
segmentType = curve;
smooth = 1;
x = 178;
y = 1340;
},
{
segmentType = line;
smooth = 1;
x = 178;
y = 86;
},
{
smooth = 0;
x = 178;
y = 41;
},
{
smooth = 0;
x = 222;
y = 0;
}
);
}
);
lib = {
};
name = L;
unicodes = (
);
width = 1095;
};
};
components = (
);
contours = (
);
lib = {
};
name = L;
unicodes = (
);
width = 1169;
};
},
{
color = 3;
glyphname = M;
lastChange = "2019-07-17 15:12:59 +0000";
layers = (
{
anchors = (
{
name = bottom;
position = "{553, 0}";
},
{
name = top;
position = "{553, 705}";
}
);
background = {
anchors = (
{
name = bottom;
position = "{422, 0}";
},
{
name = top;
position = "{422, 705}";
}
);
paths = (
{
closed = 1;
nodes = (
"138 0 LINE",
"138 667 LINE",
"112 666 LINE",
"406 110 LINE",
"441 110 LINE",
"731 665 LINE",
"706 667 LINE",
"706 0 LINE",
"746 0 LINE",
"746 705 LINE",
"710 705 LINE",
"409 127 LINE",
"437 127 LINE",
"134 705 LINE",
"98 705 LINE",
"98 0 LINE"
);
}
);
};
layerId = "F1F93986-3ED8-4AAE-84C4-CA3EEECDDFA0";
paths = (
{
closed = 1;
nodes = (
"170 0 LINE",
"170 667 LINE",
"137 666 LINE",
"535 110 LINE",
"573 110 LINE",
"966 665 LINE",
"934 667 LINE",
"934 0 LINE",
"973 0 LINE",
"973 705 LINE",
"937 705 LINE",
"536 127 LINE",
"571 127 LINE",
"167 705 LINE",
"131 705 LINE",
"131 0 LINE"
);
}
);
width = 1104;
},
{
anchors = (
{
name = bottom;
position = "{566, 0}";
},
{
name = top;
position = "{566, 705}";
}
);
background = {
anchors = (
{
name = bottom;
position = "{435, 0}";
},
{
name = top;
position = "{435, 705}";
}
);
paths = (
{
closed = 1;
nodes = (
"260 0 LINE",
"260 373 LINE",
"233 360 LINE",
"367 119 LINE",
"503 119 LINE",
"635 361 LINE",
"611 373 LINE",
"611 0 LINE",
"797 0 LINE",
"797 705 LINE",
"632 705 LINE",
"417 301 LINE",
"457 301 LINE",
"242 705 LINE",
"74 705 LINE",
"74 0 LINE"
);
}
);
};
layerId = "4121B50C-FD42-45C5-8FBE-41E76D98F91E";
paths = (
{
closed = 1;
nodes = (
"286 0 LINE",
"286 377 LINE",
"255 364 LINE",
"496 123 LINE",
"635 123 LINE",
"873 365 LINE",
"845 377 LINE",
"845 0 LINE",
"1039 0 LINE",
"1039 705 LINE",
"862 705 LINE",
"544 301 LINE",
"591 301 LINE",
"272 705 LINE",
"92 705 LINE",
"92 0 LINE"
);
}
);
width = 1131;
}
);
leftKerningGroup = H;
leftMetricsKey = "=H+2";
rightKerningGroup = H;
rightMetricsKey = "=H+2";
unicode = 004D;
userData = {
anchors = (
);
b = {
};
com.typemytype.robofont.layerData = {
b = {
anchors = (
);
components = (
);
contours = (
);
lib = {
};
name = M;
unicodes = (
);
width = 1899;
};
};
components = (
);
contours = (
);
lib = {
};
name = M;
unicodes = (
);
width = 1984;
};
},
{
color = 3;
glyphname = N;
lastChange = "2019-07-17 15:12:59 +0000";
layers = (
{
anchors = (
{
name = bottom;
position = "{479, 0}";
},
{
name = top;
position = "{479, 705}";
}
);
background = {
anchors = (
{
name = bottom;
position = "{366, 0}";
},
{
name = top;
position = "{366, 705}";
}
);
paths = (
{
closed = 1;
nodes = (
"136 0 LINE",
"136 662 LINE",
"114 663 LINE",
"602 0 LINE",
"636 0 LINE",
"636 705 LINE",
"596 705 LINE",
"596 43 LINE",
"619 42 LINE",
"131 705 LINE",
"96 705 LINE",
"96 0 LINE"
);
}
);
};
layerId = "F1F93986-3ED8-4AAE-84C4-CA3EEECDDFA0";
paths = (
{
closed = 1;
nodes = (
"168 0 LINE",
"168 662 LINE",
"141 663 LINE",
"795 0 LINE",
"830 0 LINE",
"830 705 LINE",
"791 705 LINE",
"791 43 LINE",
"819 42 LINE",
"165 705 LINE",
"129 705 LINE",
"129 0 LINE"
);
}
);
width = 959;
},
{
anchors = (
{
name = bottom;
position = "{495, 0}";
},
{
name = top;
position = "{494, 705}";
}
);
background = {
anchors = (
{
name = bottom;
position = "{382, 0}";
},
{
name = top;
position = "{381, 705}";
}
);
paths = (
{
closed = 1;
nodes = (
"259 0 LINE",
"259 419 LINE",
"228 388 LINE",
"547 0 LINE",
"706 0 LINE",
"706 705 LINE",
"504 705 LINE",
"504 286 LINE",
"534 316 LINE",
"212 705 LINE",
"57 705 LINE",
"57 0 LINE"
);
}
);
};
layerId = "4121B50C-FD42-45C5-8FBE-41E76D98F91E";
paths = (
{
closed = 1;
nodes = (
"290 0 LINE",
"290 421 LINE",
"255 390 LINE",
"740 0 LINE",
"900 0 LINE",
"900 705 LINE",
"700 705 LINE",
"700 284 LINE",
"734 314 LINE",
"246 705 LINE",
"90 705 LINE",
"90 0 LINE"
);
}
);
width = 990;
}
);
leftKerningGroup = H;
leftMetricsKey = H;
rightKerningGroup = H;
rightMetricsKey = H;
unicode = 004E;
userData = {
anchors = (
);
b = {
};
com.typemytype.robofont.layerData = {
b = {
anchors = (
);
components = (
);
contours = (
);
lib = {
};
name = N;
unicodes = (
);
width = 1499;
};
};
components = (
);
contours = (
);
lib = {
};
name = N;
unicodes = (
);
width = 1557;
};
},
{
color = 3;
glyphname = Eng;
lastChange = "2019-07-17 15:12:59 +0000";
layers = (
{
anchors = (
{
name = bottom;
position = "{479, 0}";
},
{
name = top;
position = "{479, 705}";
}
);
background = {
paths = (
{
closed = 1;
nodes = (
"594 184 LINE",
"594 -12 LINE SMOOTH",
"594 -92 OFFCURVE",
"557 -137 OFFCURVE",
"489 -142 CURVE SMOOTH",
"448 -145 LINE",
"451 -183 LINE",
"494 -180 LINE SMOOTH",
"584 -174 OFFCURVE",
"636 -114 OFFCURVE",
"636 -11 CURVE SMOOTH",
"636 184 LINE"
);
}
);
};
layerId = "F1F93986-3ED8-4AAE-84C4-CA3EEECDDFA0";
paths = (
{
closed = 1;
nodes = (
"830 705 LINE",
"791 705 LINE",
"791 43 LINE",
"819 42 LINE",
"165 705 LINE",
"129 705 LINE",
"129 0 LINE",
"168 0 LINE",
"168 662 LINE",
"141 663 LINE",
"795 0 LINE",
"791 33 LINE",
"791 -22 LINE SMOOTH",
"791 -99 OFFCURVE",
"741 -147 OFFCURVE",
"645 -152 CURVE SMOOTH",
"592 -155 LINE",
"595 -193 LINE",
"651 -190 LINE SMOOTH",
"760 -184 OFFCURVE",
"830 -123 OFFCURVE",
"830 -21 CURVE SMOOTH"
);
}
);
width = 959;
},
{
anchors = (
{
name = bottom;
position = "{495, 0}";
},
{
name = top;
position = "{494, 705}";
}
);
background = {
paths = (
{
closed = 1;
nodes = (
"503 494 LINE",
"503 13 LINE SMOOTH",
"503 -19 OFFCURVE",
"490 -33 OFFCURVE",
"454 -37 CURVE SMOOTH",
"404 -43 LINE",
"418 -188 LINE",
"462 -185 LINE SMOOTH",
"652 -172 OFFCURVE",
"711 -115 OFFCURVE",
"711 44 CURVE SMOOTH",
"711 494 LINE"
);
}
);
};
layerId = "4121B50C-FD42-45C5-8FBE-41E76D98F91E";
paths = (
{
closed = 1;
nodes = (
"900 705 LINE",
"700 705 LINE",
"700 284 LINE",
"734 314 LINE",
"246 705 LINE",
"90 705 LINE",
"90 0 LINE",
"290 0 LINE",
"290 422 LINE",
"255 391 LINE",
"740 0 LINE",
"701 106 LINE",
"701 8 LINE SMOOTH",
"701 -24 OFFCURVE",
"671 -37 OFFCURVE",
"610 -42 CURVE SMOOTH",
"543 -48 LINE",
"557 -193 LINE",
"614 -190 LINE SMOOTH",
"848 -178 OFFCURVE",
"900 -97 OFFCURVE",
"900 39 CURVE SMOOTH"
);
}
);
width = 990;
}
);
leftKerningGroup = H;
leftMetricsKey = N;
widthMetricsKey = N;
rightKerningGroup = H;
unicode = 014A;
userData = {
com.typemytype.robofont.layerData = {
b = {
anchors = (
);
components = (
);
contours = (
);
lib = {
};
name = Eng;
unicodes = (
);
width = 1495;
};
};
};
},
{
color = 3;
glyphname = O;
lastChange = "2019-07-17 15:12:59 +0000";
layers = (
{
anchors = (
{
name = Qtail;
position = "{490, -8}";
},
{
name = bottom;
position = "{490, 0}";
},
{
name = center;
position = "{492, 353}";
},
{
name = ogonek;
position = "{561, 0}";
},
{
name = top;
position = "{490, 705}";
},
{
name = topleft;
position = "{35, 705}";
},
{
name = topright;
position = "{588, 705}";
}
);
background = {
anchors = (
{
name = Qtail;
position = "{375, -8}";
},
{
name = bottom;
position = "{375, 0}";
},
{
name = center;
position = "{376, 353}";
},
{
name = ogonek;
position = "{416, 21}";
},
{
name = top;
position = "{375, 705}";
},
{
name = topleft;
position = "{26, 705}";
},
{
name = topright;
position = "{449, 705}";
}
);
paths = (
{
closed = 1;
nodes = (
"566 -8 OFFCURVE",
"684 130 OFFCURVE",
"684 353 CURVE SMOOTH",
"684 576 OFFCURVE",
"567 713 OFFCURVE",
"375 713 CURVE SMOOTH",
"183 713 OFFCURVE",
"67 576 OFFCURVE",
"67 352 CURVE SMOOTH",
"67 130 OFFCURVE",
"185 -8 OFFCURVE",
"375 -8 CURVE SMOOTH"
);
},
{
closed = 1;
nodes = (
"208 33 OFFCURVE",
"112 151 OFFCURVE",
"112 353 CURVE SMOOTH",
"112 555 OFFCURVE",
"208 672 OFFCURVE",
"375 672 CURVE SMOOTH",
"544 672 OFFCURVE",
"639 556 OFFCURVE",
"639 353 CURVE SMOOTH",
"639 150 OFFCURVE",
"543 33 OFFCURVE",
"375 33 CURVE SMOOTH"
);
}
);
};
layerId = "F1F93986-3ED8-4AAE-84C4-CA3EEECDDFA0";
paths = (
{
closed = 1;
nodes = (
"736 -8 OFFCURVE",
"891 130 OFFCURVE",
"891 353 CURVE SMOOTH",
"891 575 OFFCURVE",
"739 713 OFFCURVE",
"490 713 CURVE SMOOTH",
"241 713 OFFCURVE",
"90 576 OFFCURVE",
"90 352 CURVE SMOOTH",
"90 130 OFFCURVE",
"244 -8 OFFCURVE",
"490 -8 CURVE SMOOTH"
);
},
{
closed = 1;
nodes = (
"266 33 OFFCURVE",
"135 151 OFFCURVE",
"135 353 CURVE SMOOTH",
"135 555 OFFCURVE",
"266 672 OFFCURVE",
"490 672 CURVE SMOOTH",
"717 672 OFFCURVE",
"845 556 OFFCURVE",
"845 353 CURVE SMOOTH",
"845 150 OFFCURVE",
"716 33 OFFCURVE",
"490 33 CURVE SMOOTH"
);
}
);
width = 981;
},
{
anchors = (
{
name = Qtail;
position = "{519, -10}";
},
{
name = bottom;
position = "{519, 0}";
},
{
name = center;
position = "{520, 353}";
},
{
name = ogonek;
position = "{598, 0}";
},
{
name = top;
position = "{518, 705}";
},
{
name = topleft;
position = "{29, 705}";
},
{
name = topright;
position = "{606, 705}";
}
);
background = {
anchors = (
{
name = Qtail;
position = "{404, -10}";
},
{
name = bottom;
position = "{404, 0}";
},
{
name = center;
position = "{404, 353}";
},
{
name = ogonek;
position = "{474, 37}";
},
{
name = top;
position = "{403, 705}";
},
{
name = topleft;
position = "{20, 705}";
},
{
name = topright;
position = "{467, 705}";
}
);
paths = (
{
closed = 1;
nodes = (
"627 -10 OFFCURVE",
"765 133 OFFCURVE",
"765 353 CURVE SMOOTH",
"765 573 OFFCURVE",
"627 715 OFFCURVE",
"404 715 CURVE SMOOTH",
"181 715 OFFCURVE",
"41 573 OFFCURVE",
"41 354 CURVE SMOOTH",
"41 133 OFFCURVE",
"180 -10 OFFCURVE",
"404 -10 CURVE SMOOTH"
);
},
{
closed = 1;
nodes = (
"314 154 OFFCURVE",
"255 216 OFFCURVE",
"255 353 CURVE SMOOTH",
"255 490 OFFCURVE",
"314 551 OFFCURVE",
"404 551 CURVE SMOOTH",
"493 551 OFFCURVE",
"553 488 OFFCURVE",
"553 353 CURVE SMOOTH",
"553 218 OFFCURVE",
"494 154 OFFCURVE",
"404 154 CURVE SMOOTH"
);
}
);
};
layerId = "4121B50C-FD42-45C5-8FBE-41E76D98F91E";
paths = (
{
closed = 1;
nodes = (
"797 -10 OFFCURVE",
"972 133 OFFCURVE",
"972 353 CURVE SMOOTH",
"972 573 OFFCURVE",
"798 715 OFFCURVE",
"519 715 CURVE SMOOTH",
"239 715 OFFCURVE",
"64 573 OFFCURVE",
"64 354 CURVE SMOOTH",
"64 133 OFFCURVE",
"239 -10 OFFCURVE",
"519 -10 CURVE SMOOTH"
);
},
{
closed = 1;
nodes = (
"373 154 OFFCURVE",
"279 216 OFFCURVE",
"279 353 CURVE SMOOTH",
"279 490 OFFCURVE",
"373 551 OFFCURVE",
"519 551 CURVE SMOOTH",
"665 551 OFFCURVE",
"758 488 OFFCURVE",
"758 353 CURVE SMOOTH",
"758 218 OFFCURVE",
"666 154 OFFCURVE",
"519 154 CURVE SMOOTH"
);
}
);
width = 1036;
}
);
leftKerningGroup = O;
rightKerningGroup = O;
rightMetricsKey = "=|";
unicode = 004F;
userData = {
anchors = (
);
b = {
};
com.typemytype.robofont.guides = (
);
com.typemytype.robofont.layerData = {
b = {
anchors = (
);
components = (
);
contours = (
);
lib = {
};
name = O;
unicodes = (
);
width = 1597;
};
};
components = (
);
contours = (
);
lib = {
};
name = O;
unicodes = (
);
width = 1604;
};
},
{
color = 8;
glyphname = Oslash;
lastChange = "2019-07-17 15:13:11 +0000";
layers = (
{
background = {
paths = (
{
closed = 1;
nodes = (
"566 -8 OFFCURVE",
"684 130 OFFCURVE",
"684 353 CURVE SMOOTH",
"684 576 OFFCURVE",
"567 713 OFFCURVE",
"375 713 CURVE SMOOTH",
"183 713 OFFCURVE",
"67 576 OFFCURVE",
"67 352 CURVE SMOOTH",
"67 130 OFFCURVE",
"185 -8 OFFCURVE",
"375 -8 CURVE SMOOTH"
);
},
{
closed = 1;
nodes = (
"208 33 OFFCURVE",
"112 151 OFFCURVE",
"112 353 CURVE SMOOTH",
"112 555 OFFCURVE",
"208 672 OFFCURVE",
"375 672 CURVE SMOOTH",
"544 672 OFFCURVE",
"639 556 OFFCURVE",
"639 353 CURVE SMOOTH",
"639 150 OFFCURVE",
"543 33 OFFCURVE",
"375 33 CURVE SMOOTH"
);
},
{
closed = 1;
nodes = (
"217 43 LINE",
"230 65 LINE",
"613 722 LINE",
"580 740 LINE",
"197 84 LINE",
"184 62 LINE",
"138 -17 LINE",
"171 -35 LINE"
);
}
);
};
components = (
{
name = O;
},
{
name = slashlongcomb.case;
transform = "{1, 0, 0, 1, 2, 0}";
}
);
layerId = "F1F93986-3ED8-4AAE-84C4-CA3EEECDDFA0";
width = 981;
},
{
background = {
paths = (
{
closed = 1;
nodes = (
"627 -10 OFFCURVE",
"765 133 OFFCURVE",
"765 353 CURVE SMOOTH",
"765 573 OFFCURVE",
"627 715 OFFCURVE",
"404 715 CURVE SMOOTH",
"181 715 OFFCURVE",
"41 573 OFFCURVE",
"41 354 CURVE SMOOTH",
"41 133 OFFCURVE",
"180 -10 OFFCURVE",
"404 -10 CURVE SMOOTH"
);
},
{
closed = 1;
nodes = (
"315 154 OFFCURVE",
"256 216 OFFCURVE",
"256 353 CURVE SMOOTH",
"256 490 OFFCURVE",
"315 551 OFFCURVE",
"404 551 CURVE SMOOTH",
"492 551 OFFCURVE",
"552 488 OFFCURVE",
"552 353 CURVE SMOOTH",
"552 218 OFFCURVE",
"493 154 OFFCURVE",
"404 154 CURVE SMOOTH"
);
},
{
closed = 1;
nodes = (
"201 709 LINE",
"67 789 LINE",
"-394 -4 LINE",
"-261 -84 LINE"
);
},
{
closed = 1;
nodes = (
"320 54 LINE",
"359 139 LINE",
"701 709 LINE",
"567 789 LINE",
"246 219 LINE",
"187 134 LINE",
"106 -4 LINE",
"239 -84 LINE"
);
}
);
};
components = (
{
name = O;
},
{
name = slashlongcomb.case;
transform = "{1, 0, 0, 1, 2, 0}";
}
);
layerId = "4121B50C-FD42-45C5-8FBE-41E76D98F91E";
width = 1036;
}
);
leftKerningGroup = O;
rightKerningGroup = O;
unicode = 00D8;
userData = {
com.typemytype.robofont.layerData = {
b = {
anchors = (
);
components = (
);
contours = (
);
lib = {
};
name = Oslash;
unicodes = (
);
width = 1597;
};
};
};
},
{
color = 3;
glyphname = OE;
lastChange = "2019-07-17 15:12:59 +0000";
layers = (
{
anchors = (
{
name = bottom;
position = "{769, 0}";
},
{
name = top;
position = "{769, 705}";
}
);
background = {
anchors = (
{
name = bottom;
position = "{587, 0}";
},
{
name = top;
position = "{587, 705}";
}
);
paths = (
{
closed = 1;
nodes = (
"990 705 LINE",
"425 705 LINE SMOOTH",
"189 705 OFFCURVE",
"67 580 OFFCURVE",
"67 353 CURVE SMOOTH",
"67 127 OFFCURVE",
"190 0 OFFCURVE",
"425 0 CURVE SMOOTH",
"990 0 LINE",
"990 39 LINE",
"607 39 LINE",
"607 338 LINE",
"970 338 LINE",
"970 377 LINE",
"607 377 LINE",
"607 666 LINE",
"990 666 LINE"
);
},
{
closed = 1;
nodes = (
"423 39 LINE SMOOTH",
"213 39 OFFCURVE",
"112 145 OFFCURVE",
"112 353 CURVE SMOOTH",
"112 562 OFFCURVE",
"212 666 OFFCURVE",
"423 666 CURVE SMOOTH",
"565 666 LINE",
"565 39 LINE"
);
}
);
};
layerId = "F1F93986-3ED8-4AAE-84C4-CA3EEECDDFA0";
paths = (
{
closed = 1;
nodes = (
"1296 705 LINE",
"558 705 LINE SMOOTH",
"249 705 OFFCURVE",
"90 580 OFFCURVE",
"90 353 CURVE SMOOTH",
"90 127 OFFCURVE",
"250 0 OFFCURVE",
"558 0 CURVE SMOOTH",
"1296 0 LINE",
"1296 39 LINE",
"788 39 LINE",
"788 338 LINE",
"1269 338 LINE",
"1269 377 LINE",
"788 377 LINE",
"788 666 LINE",
"1296 666 LINE"
);
},
{
closed = 1;
nodes = (
"554 39 LINE SMOOTH",
"272 39 OFFCURVE",
"135 145 OFFCURVE",
"135 353 CURVE SMOOTH",
"135 562 OFFCURVE",
"271 666 OFFCURVE",
"554 666 CURVE SMOOTH",
"746 666 LINE",
"746 39 LINE"
);
}
);
width = 1364;
},
{
anchors = (
{
name = bottom;
position = "{783, 0}";
},
{
name = top;
position = "{783, 705}";
}
);
background = {
anchors = (
{
name = bottom;
position = "{601, 0}";
},
{
name = top;
position = "{601, 705}";
}
);
paths = (
{
closed = 1;
nodes = (
"1016 705 LINE",
"424 705 LINE SMOOTH",
"186 705 OFFCURVE",
"41 571 OFFCURVE",
"41 353 CURVE SMOOTH",
"41 133 OFFCURVE",
"184 0 OFFCURVE",
"424 0 CURVE SMOOTH",
"1015 0 LINE",
"1015 164 LINE",
"706 164 LINE",
"706 277 LINE",
"995 277 LINE",
"995 441 LINE",
"706 441 LINE",
"706 541 LINE",
"1016 541 LINE"
);
},
{
closed = 1;
nodes = (
"439 164 LINE SMOOTH",
"319 164 OFFCURVE",
"255 225 OFFCURVE",
"255 353 CURVE SMOOTH",
"255 480 OFFCURVE",
"320 541 OFFCURVE",
"439 541 CURVE SMOOTH",
"496 541 LINE",
"496 164 LINE"
);
}
);
};
layerId = "4121B50C-FD42-45C5-8FBE-41E76D98F91E";
paths = (
{
closed = 1;
nodes = (
"1321 705 LINE",
"557 705 LINE SMOOTH",
"246 705 OFFCURVE",
"64 571 OFFCURVE",
"64 353 CURVE SMOOTH",
"64 133 OFFCURVE",
"244 0 OFFCURVE",
"557 0 CURVE SMOOTH",
"1320 0 LINE",
"1320 164 LINE",
"885 164 LINE",
"885 277 LINE",
"1293 277 LINE",
"1293 441 LINE",
"885 441 LINE",
"885 541 LINE",
"1321 541 LINE"
);
},
{
closed = 1;
nodes = (
"570 164 LINE SMOOTH",
"379 164 OFFCURVE",
"279 225 OFFCURVE",
"279 353 CURVE SMOOTH",
"279 480 OFFCURVE",
"380 541 OFFCURVE",
"570 541 CURVE SMOOTH",
"677 541 LINE",
"677 164 LINE"
);
}
);
width = 1368;
}
);
leftKerningGroup = O;
leftMetricsKey = O;
rightKerningGroup = E;
rightMetricsKey = E;
unicode = 0152;
},
{
color = 3;
glyphname = P;
lastChange = "2019-07-17 15:12:59 +0000";
layers = (
{
anchors = (
{
name = bottom;
position = "{412, 0}";
},
{
name = top;
position = "{412, 705}";
}
);
background = {
anchors = (
{
name = bottom;
position = "{316, 0}";
},
{
name = top;
position = "{316, 705}";
}
);
paths = (
{
closed = 1;
nodes = (
"96 705 LINE",
"96 0 LINE",
"138 0 LINE",
"138 303 LINE",
"350 303 LINE SMOOTH",
"497 303 OFFCURVE",
"579 376 OFFCURVE",
"579 505 CURVE SMOOTH",
"579 634 OFFCURVE",
"498 705 OFFCURVE",
"350 705 CURVE SMOOTH"
);
},
{
closed = 1;
nodes = (
"138 343 LINE",
"138 666 LINE",
"349 666 LINE SMOOTH",
"473 666 OFFCURVE",
"535 611 OFFCURVE",
"535 505 CURVE SMOOTH",
"535 399 OFFCURVE",
"473 343 OFFCURVE",
"349 343 CURVE SMOOTH"
);
}
);
};
layerId = "F1F93986-3ED8-4AAE-84C4-CA3EEECDDFA0";
paths = (
{
closed = 1;
nodes = (
"129 705 LINE",
"129 0 LINE",
"171 0 LINE",
"171 303 LINE",
"454 303 LINE SMOOTH",
"645 303 OFFCURVE",
"753 376 OFFCURVE",
"753 505 CURVE SMOOTH",
"753 634 OFFCURVE",
"646 705 OFFCURVE",
"454 705 CURVE SMOOTH"
);
},
{
closed = 1;
nodes = (
"171 342 LINE",
"171 666 LINE",
"455 666 LINE SMOOTH",
"622 666 OFFCURVE",
"707 611 OFFCURVE",
"707 505 CURVE SMOOTH",
"707 399 OFFCURVE",
"622 342 OFFCURVE",
"455 342 CURVE SMOOTH"
);
}
);
width = 822;
},
{
anchors = (
{
name = bottom;
position = "{444, 0}";
},
{
name = top;
position = "{443, 705}";
}
);
background = {
anchors = (
{
name = bottom;
position = "{348, 0}";
},
{
name = top;
position = "{347, 705}";
}
);
paths = (
{
closed = 1;
nodes = (
"57 705 LINE",
"57 0 LINE",
"272 0 LINE",
"272 245 LINE",
"417 245 LINE SMOOTH",
"574 245 OFFCURVE",
"668 332 OFFCURVE",
"668 474 CURVE SMOOTH",
"668 618 OFFCURVE",
"575 705 OFFCURVE",
"417 705 CURVE SMOOTH"
);
},
{
closed = 1;
nodes = (
"272 404 LINE",
"272 544 LINE",
"387 544 LINE SMOOTH",
"442 544 OFFCURVE",
"468 522 OFFCURVE",
"468 473 CURVE SMOOTH",
"468 425 OFFCURVE",
"441 404 OFFCURVE",
"387 404 CURVE SMOOTH"
);
}
);
};
layerId = "4121B50C-FD42-45C5-8FBE-41E76D98F91E";
paths = (
{
closed = 1;
nodes = (
"90 705 LINE",
"90 0 LINE",
"305 0 LINE",
"305 240 LINE",
"521 240 LINE SMOOTH",
"722 240 OFFCURVE",
"842 327 OFFCURVE",
"842 471 CURVE SMOOTH",
"842 617 OFFCURVE",
"723 705 OFFCURVE",
"521 705 CURVE SMOOTH"
);
},
{
closed = 1;
nodes = (
"305 400 LINE",
"305 545 LINE",
"493 545 LINE SMOOTH",
"577 545 OFFCURVE",
"640 531 OFFCURVE",
"640 471 CURVE SMOOTH",
"640 413 OFFCURVE",
"576 400 OFFCURVE",
"493 400 CURVE SMOOTH"
);
}
);
width = 880;
}
);
leftKerningGroup = H;
leftMetricsKey = H;
rightKerningGroup = P;
unicode = 0050;
userData = {
anchors = (
);
b = {
};
com.typemytype.robofont.layerData = {
b = {
anchors = (
);
components = (
);
contours = (
{
points = (
{
segmentType = curve;
smooth = 1;
x = 266;
y = 0;
},
{
segmentType = line;
smooth = 1;
x = 1035;
y = 0;
},
{
smooth = 0;
x = 1084;
y = 0;
},
{
smooth = 0;
x = 1108;
y = 34;
},
{
segmentType = curve;
smooth = 1;
x = 1108;
y = 71;
},
{
smooth = 0;
x = 1108;
y = 107;
},
{
smooth = 0;
x = 1084;
y = 141;
},
{
segmentType = curve;
smooth = 1;
x = 1035;
y = 141;
},
{
segmentType = line;
smooth = 0;
x = 356;
y = 141;
},
{
segmentType = line;
smooth = 0;
x = 356;
y = 665;
},
{
segmentType = line;
smooth = 1;
x = 975;
y = 665;
},
{
smooth = 0;
x = 1024;
y = 665;
},
{
smooth = 0;
x = 1049;
y = 698;
},
{
segmentType = curve;
smooth = 1;
x = 1049;
y = 734;
},
{
smooth = 0;
x = 1049;
y = 770;
},
{
smooth = 0;
x = 1026;
y = 803;
},
{
segmentType = curve;
smooth = 1;
x = 975;
y = 803;
},
{
segmentType = line;
smooth = 0;
x = 356;
y = 803;
},
{
segmentType = line;
smooth = 0;
x = 356;
y = 1285;
},
{
segmentType = line;
smooth = 1;
x = 1007;
y = 1285;
},
{
smooth = 0;
x = 1056;
y = 1285;
},
{
smooth = 0;
x = 1080;
y = 1319;
},
{
segmentType = curve;
smooth = 1;
x = 1080;
y = 1356;
},
{
smooth = 0;
x = 1080;
y = 1392;
},
{
smooth = 0;
x = 1056;
y = 1426;
},
{
segmentType = curve;
smooth = 1;
x = 1007;
y = 1426;
},
{
segmentType = line;
smooth = 1;
x = 261;
y = 1426;
},
{
smooth = 0;
x = 213;
y = 1426;
},
{
smooth = 0;
x = 178;
y = 1383;
},
{
segmentType = curve;
smooth = 1;
x = 178;
y = 1340;
},
{
segmentType = line;
smooth = 1;
x = 178;
y = 86;
},
{
smooth = 0;
x = 178;
y = 41;
},
{
smooth = 0;
x = 222;
y = 0;
}
);
}
);
lib = {
};
name = P;
unicodes = (
);
width = 1201;
};
};
components = (
);
contours = (
);
lib = {
};
name = P;
unicodes = (
);
width = 1319;
};
},
{
color = 3;
glyphname = Thorn;
lastChange = "2019-07-17 15:12:59 +0000";
layers = (
{
anchors = (
{
name = bottom;
position = "{412, 0}";
},
{
name = top;
position = "{412, 705}";
}
);
background = {
paths = (
{
closed = 1;
nodes = (
"138 543 LINE",
"138 705 LINE",
"96 705 LINE",
"96 0 LINE",
"138 0 LINE",
"138 174 LINE",
"361 174 LINE SMOOTH",
"499 174 OFFCURVE",
"579 242 OFFCURVE",
"579 360 CURVE SMOOTH",
"579 477 OFFCURVE",
"501 543 OFFCURVE",
"361 543 CURVE SMOOTH"
);
},
{
closed = 1;
nodes = (
"138 213 LINE",
"138 504 LINE",
"361 504 LINE SMOOTH",
"479 504 OFFCURVE",
"535 457 OFFCURVE",
"535 360 CURVE SMOOTH",
"535 262 OFFCURVE",
"478 213 OFFCURVE",
"361 213 CURVE SMOOTH"
);
}
);
};
layerId = "F1F93986-3ED8-4AAE-84C4-CA3EEECDDFA0";
paths = (
{
closed = 1;
nodes = (
"171 566 LINE",
"171 705 LINE",
"129 705 LINE",
"129 0 LINE",
"171 0 LINE",
"171 164 LINE",
"454 164 LINE SMOOTH",
"645 164 OFFCURVE",
"753 237 OFFCURVE",
"753 366 CURVE SMOOTH",
"753 495 OFFCURVE",
"646 566 OFFCURVE",
"454 566 CURVE SMOOTH"
);
},
{
closed = 1;
nodes = (
"171 203 LINE",
"171 527 LINE",
"455 527 LINE SMOOTH",
"622 527 OFFCURVE",
"707 472 OFFCURVE",
"707 366 CURVE SMOOTH",
"707 260 OFFCURVE",
"622 203 OFFCURVE",
"455 203 CURVE SMOOTH"
);
}
);
width = 822;
},
{
anchors = (
{
name = bottom;
position = "{444, 0}";
},
{
name = top;
position = "{443, 705}";
}
);
background = {
paths = (
{
closed = 0;
nodes = (
"268 142 LINE",
"413 142 LINE SMOOTH",
"570 142 OFFCURVE",
"668 224 OFFCURVE",
"668 357 CURVE SMOOTH",
"668 492 OFFCURVE",
"572 574 OFFCURVE",
"413 574 CURVE SMOOTH",
"268 574 LINE"
);
},
{
closed = 1;
nodes = (
"268 303 LINE",
"268 413 LINE",
"374 413 LINE SMOOTH",
"440 413 OFFCURVE",
"468 397 OFFCURVE",
"468 357 CURVE SMOOTH",
"468 317 OFFCURVE",
"440 303 OFFCURVE",
"374 303 CURVE SMOOTH"
);
}
);
};
layerId = "4121B50C-FD42-45C5-8FBE-41E76D98F91E";
paths = (
{
closed = 1;
nodes = (
"301 600 LINE",
"301 705 LINE",
"90 705 LINE",
"90 0 LINE",
"301 0 LINE",
"301 135 LINE",
"521 135 LINE SMOOTH",
"722 135 OFFCURVE",
"842 222 OFFCURVE",
"842 366 CURVE SMOOTH",
"842 512 OFFCURVE",
"723 600 OFFCURVE",
"521 600 CURVE SMOOTH"
);
},
{
closed = 1;
nodes = (
"301 295 LINE",
"301 440 LINE",
"493 440 LINE SMOOTH",
"577 440 OFFCURVE",
"640 426 OFFCURVE",
"640 366 CURVE SMOOTH",
"640 308 OFFCURVE",
"576 295 OFFCURVE",
"493 295 CURVE SMOOTH"
);
}
);
width = 880;
}
);
leftKerningGroup = H;
leftMetricsKey = H;
rightKerningGroup = THORN;
unicode = 00DE;
},
{
color = 3;
glyphname = R;
lastChange = "2019-07-17 15:12:59 +0000";
layers = (
{
anchors = (
{
name = bottom;
position = "{436, 0}";
},
{
name = top;
position = "{436, 705}";
}
);
background = {
anchors = (
{
name = bottom;
position = "{334, 0}";
},
{
name = top;
position = "{334, 705}";
}
);
paths = (
{
closed = 1;
nodes = (
"138 0 LINE",
"138 312 LINE",
"300 312 LINE SMOOTH",
"378 312 OFFCURVE",
"419 295 OFFCURVE",
"455 226 CURVE SMOOTH",
"574 0 LINE",
"620 0 LINE",
"492 242 LINE SMOOTH",
"460 302 OFFCURVE",
"423 327 OFFCURVE",
"361 327 CURVE",
"367 318 LINE",
"511 318 OFFCURVE",
"596 387 OFFCURVE",
"596 510 CURVE SMOOTH",
"596 639 OFFCURVE",
"512 705 OFFCURVE",
"368 705 CURVE SMOOTH",
"96 705 LINE",
"96 0 LINE"
);
},
{
closed = 1;
nodes = (
"138 666 LINE",
"369 666 LINE SMOOTH",
"493 666 OFFCURVE",
"552 615 OFFCURVE",
"552 511 CURVE SMOOTH",
"552 405 OFFCURVE",
"490 351 OFFCURVE",
"369 351 CURVE SMOOTH",
"138 351 LINE"
);
}
);
};
layerId = "F1F93986-3ED8-4AAE-84C4-CA3EEECDDFA0";
paths = (
{
closed = 1;
nodes = (
"171 0 LINE",
"171 312 LINE",
"394 312 LINE SMOOTH",
"500 312 OFFCURVE",
"557 296 OFFCURVE",
"605 226 CURVE SMOOTH",
"761 0 LINE",
"807 0 LINE",
"637 242 LINE SMOOTH",
"600 295 OFFCURVE",
"556 327 OFFCURVE",
"464 327 CURVE",
"477 318 LINE",
"665 318 OFFCURVE",
"777 387 OFFCURVE",
"777 510 CURVE SMOOTH",
"777 639 OFFCURVE",
"665 705 OFFCURVE",
"480 705 CURVE SMOOTH",
"129 705 LINE",
"129 0 LINE"
);
},
{
closed = 1;
nodes = (
"171 666 LINE",
"484 666 LINE SMOOTH",
"650 666 OFFCURVE",
"730 615 OFFCURVE",
"730 511 CURVE SMOOTH",
"730 405 OFFCURVE",
"646 351 OFFCURVE",
"484 351 CURVE SMOOTH",
"171 351 LINE"
);
}
);
width = 878;
},
{
anchors = (
{
name = bottom;
position = "{465, 0}";
},
{
name = top;
position = "{464, 705}";
}
);
background = {
anchors = (
{
name = bottom;
position = "{363, 0}";
},
{
name = top;
position = "{362, 705}";
}
);
paths = (
{
closed = 1;
nodes = (
"266 0 LINE",
"266 254 LINE",
"302 254 LINE SMOOTH",
"323 254 OFFCURVE",
"345 243 OFFCURVE",
"356 224 CURVE SMOOTH",
"479 0 LINE",
"715 0 LINE",
"607 191 LINE SMOOTH",
"577 245 OFFCURVE",
"534 273 OFFCURVE",
"476 273 CURVE",
"412 260 LINE",
"575 260 OFFCURVE",
"670 349 OFFCURVE",
"670 484 CURVE SMOOTH",
"670 626 OFFCURVE",
"585 705 OFFCURVE",
"407 705 CURVE SMOOTH",
"57 705 LINE",
"57 0 LINE"
);
},
{
closed = 1;
nodes = (
"266 544 LINE",
"372 544 LINE SMOOTH",
"444 544 OFFCURVE",
"471 526 OFFCURVE",
"471 477 CURVE SMOOTH",
"471 431 OFFCURVE",
"445 413 OFFCURVE",
"372 413 CURVE SMOOTH",
"266 413 LINE"
);
}
);
};
layerId = "4121B50C-FD42-45C5-8FBE-41E76D98F91E";
paths = (
{
closed = 1;
nodes = (
"298 0 LINE",
"298 252 LINE",
"396 252 LINE SMOOTH",
"447 252 OFFCURVE",
"486 245 OFFCURVE",
"503 222 CURVE SMOOTH",
"666 0 LINE",
"902 0 LINE",
"752 191 LINE SMOOTH",
"717 236 OFFCURVE",
"666 273 OFFCURVE",
"579 273 CURVE",
"523 260 LINE",
"730 260 OFFCURVE",
"852 349 OFFCURVE",
"852 484 CURVE SMOOTH",
"852 626 OFFCURVE",
"739 705 OFFCURVE",
"519 705 CURVE SMOOTH",
"90 705 LINE",
"90 0 LINE"
);
},
{
closed = 1;
nodes = (
"298 545 LINE",
"487 545 LINE SMOOTH",
"570 545 OFFCURVE",
"649 540 OFFCURVE",
"649 477 CURVE SMOOTH",
"649 420 OFFCURVE",
"576 412 OFFCURVE",
"487 412 CURVE SMOOTH",
"298 412 LINE"
);
}
);
width = 922;
}
);
leftKerningGroup = H;
leftMetricsKey = H;
rightKerningGroup = R;
unicode = 0052;
userData = {
anchors = (
);
b = {
};
com.typemytype.robofont.guides = (
);
com.typemytype.robofont.layerData = {
b = {
anchors = (
);
components = (
);
contours = (
{
points = (
{
segmentType = curve;
smooth = 1;
x = 267;
y = 0;
},
{
smooth = 0;
x = 311;
y = 0;
},
{
smooth = 0;
x = 356;
y = 27;
},
{
segmentType = curve;
smooth = 1;
x = 356;
y = 84;
},
{
segmentType = line;
smooth = 0;
x = 356;
y = 628;
},
{
segmentType = line;
smooth = 1;
x = 669;
y = 628;
},
{
smooth = 0;
x = 962;
y = 628;
},
{
smooth = 0;
x = 1182;
y = 722;
},
{
segmentType = curve;
smooth = 1;
x = 1182;
y = 1026;
},
{
smooth = 0;
x = 1182;
y = 1324;
},
{
smooth = 0;
x = 993;
y = 1426;
},
{
segmentType = curve;
smooth = 1;
x = 684;
y = 1426;
},
{
segmentType = line;
smooth = 1;
x = 268;
y = 1426;
},
{
smooth = 0;
x = 217;
y = 1426;
},
{
smooth = 0;
x = 178;
y = 1387;
},
{
segmentType = curve;
smooth = 1;
x = 178;
y = 1339;
},
{
segmentType = line;
smooth = 1;
x = 178;
y = 84;
},
{
smooth = 0;
x = 178;
y = 28;
},
{
smooth = 0;
x = 222;
y = 0;
}
);
},
{
points = (
{
segmentType = line;
smooth = 0;
x = 356;
y = 764;
},
{
segmentType = line;
smooth = 0;
x = 356;
y = 1285;
},
{
segmentType = line;
smooth = 1;
x = 684;
y = 1285;
},
{
smooth = 0;
x = 914;
y = 1285;
},
{
smooth = 0;
x = 1008;
y = 1210;
},
{
segmentType = curve;
smooth = 1;
x = 1008;
y = 1026;
},
{
smooth = 0;
x = 1008;
y = 838;
},
{
smooth = 0;
x = 901;
y = 764;
},
{
segmentType = curve;
smooth = 1;
x = 670;
y = 764;
}
);
}
);
lib = {
};
name = R;
unicodes = (
);
width = 1363;
};
};
components = (
);
contours = (
);
lib = {
};
name = R;
unicodes = (
);
width = 1408;
};
},
{
color = 3;
glyphname = S;
lastChange = "2019-07-17 15:12:59 +0000";
layers = (
{
anchors = (
{
name = bottom;
position = "{398, 0}";
},
{
name = top;
position = "{390, 705}";
}
);
background = {
anchors = (
{
name = bottom;
position = "{305, 0}";
},
{
name = top;
position = "{299, 705}";
}
);
paths = (
{
closed = 1;
nodes = (
"453 -8 OFFCURVE",
"549 68 OFFCURVE",
"549 182 CURVE SMOOTH",
"549 271 OFFCURVE",
"499 322 OFFCURVE",
"360 353 CURVE SMOOTH",
"251 377 LINE SMOOTH",
"149 399 OFFCURVE",
"106 442 OFFCURVE",
"106 516 CURVE SMOOTH",
"106 614 OFFCURVE",
"180 672 OFFCURVE",
"307 672 CURVE SMOOTH",
"391 672 OFFCURVE",
"464 646 OFFCURVE",
"522 583 CURVE",
"546 619 LINE",
"488 682 OFFCURVE",
"402 713 OFFCURVE",
"307 713 CURVE SMOOTH",
"158 713 OFFCURVE",
"63 637 OFFCURVE",
"63 518 CURVE SMOOTH",
"63 427 OFFCURVE",
"112 365 OFFCURVE",
"238 337 CURVE SMOOTH",
"348 313 LINE SMOOTH",
"460 289 OFFCURVE",
"507 253 OFFCURVE",
"507 181 CURVE SMOOTH",
"507 88 OFFCURVE",
"434 33 OFFCURVE",
"308 33 CURVE SMOOTH",
"205 33 OFFCURVE",
"143 57 OFFCURVE",
"72 122 CURVE",
"49 87 LINE",
"111 26 OFFCURVE",
"196 -8 OFFCURVE",
"308 -8 CURVE SMOOTH"
);
}
);
};
layerId = "F1F93986-3ED8-4AAE-84C4-CA3EEECDDFA0";
paths = (
{
closed = 1;
nodes = (
"589 -8 OFFCURVE",
"714 68 OFFCURVE",
"714 183 CURVE SMOOTH",
"714 283 OFFCURVE",
"630 328 OFFCURVE",
"468 355 CURVE SMOOTH",
"323 379 LINE SMOOTH",
"202 399 OFFCURVE",
"128 435 OFFCURVE",
"128 517 CURVE SMOOTH",
"128 614 OFFCURVE",
"230 672 OFFCURVE",
"400 672 CURVE SMOOTH",
"511 672 OFFCURVE",
"608 646 OFFCURVE",
"683 583 CURVE",
"712 619 LINE",
"636 682 OFFCURVE",
"522 713 OFFCURVE",
"400 713 CURVE SMOOTH",
"207 713 OFFCURVE",
"86 637 OFFCURVE",
"86 519 CURVE SMOOTH",
"86 421 OFFCURVE",
"159 364 OFFCURVE",
"311 339 CURVE SMOOTH",
"457 315 LINE SMOOTH",
"596 292 OFFCURVE",
"673 261 OFFCURVE",
"673 182 CURVE SMOOTH",
"673 88 OFFCURVE",
"572 33 OFFCURVE",
"404 33 CURVE SMOOTH",
"267 33 OFFCURVE",
"186 57 OFFCURVE",
"93 122 CURVE",
"66 87 LINE",
"147 26 OFFCURVE",
"257 -8 OFFCURVE",
"404 -8 CURVE SMOOTH"
);
}
);
width = 780;
},
{
anchors = (
{
name = bottom;
position = "{424, 0}";
},
{
name = top;
position = "{432, 705}";
}
);
background = {
anchors = (
{
name = bottom;
position = "{331, 0}";
},
{
name = top;
position = "{341, 705}";
}
);
paths = (
{
closed = 1;
nodes = (
"520 -10 OFFCURVE",
"638 74 OFFCURVE",
"638 218 CURVE SMOOTH",
"638 321 OFFCURVE",
"576 383 OFFCURVE",
"432 422 CURVE SMOOTH",
"343 446 LINE SMOOTH",
"267 467 OFFCURVE",
"256 475 OFFCURVE",
"256 498 CURVE SMOOTH",
"256 525 OFFCURVE",
"286 551 OFFCURVE",
"349 551 CURVE SMOOTH",
"414 551 OFFCURVE",
"482 530 OFFCURVE",
"548 490 CURVE",
"611 641 LINE",
"556 684 OFFCURVE",
"448 715 OFFCURVE",
"348 715 CURVE SMOOTH",
"172 715 OFFCURVE",
"45 616 OFFCURVE",
"45 480 CURVE SMOOTH",
"45 371 OFFCURVE",
"103 316 OFFCURVE",
"260 275 CURVE SMOOTH",
"349 251 LINE SMOOTH",
"418 232 OFFCURVE",
"427 220 OFFCURVE",
"427 201 CURVE SMOOTH",
"427 170 OFFCURVE",
"398 154 OFFCURVE",
"321 154 CURVE SMOOTH",
"248 154 OFFCURVE",
"165 177 OFFCURVE",
"97 215 CURVE",
"33 64 LINE",
"97 21 OFFCURVE",
"216 -10 OFFCURVE",
"318 -10 CURVE SMOOTH"
);
}
);
};
layerId = "4121B50C-FD42-45C5-8FBE-41E76D98F91E";
paths = (
{
closed = 1;
nodes = (
"656 -10 OFFCURVE",
"803 74 OFFCURVE",
"803 218 CURVE SMOOTH",
"803 334 OFFCURVE",
"709 389 OFFCURVE",
"539 422 CURVE SMOOTH",
"415 446 LINE SMOOTH",
"310 466 OFFCURVE",
"278 474 OFFCURVE",
"278 498 CURVE SMOOTH",
"278 525 OFFCURVE",
"336 551 OFFCURVE",
"442 551 CURVE SMOOTH",
"534 551 OFFCURVE",
"626 530 OFFCURVE",
"709 490 CURVE",
"777 641 LINE",
"704 684 OFFCURVE",
"568 715 OFFCURVE",
"441 715 CURVE SMOOTH",
"222 715 OFFCURVE",
"67 616 OFFCURVE",
"67 480 CURVE SMOOTH",
"67 371 OFFCURVE",
"138 313 OFFCURVE",
"333 276 CURVE SMOOTH",
"459 252 LINE SMOOTH",
"559 233 OFFCURVE",
"593 222 OFFCURVE",
"593 201 CURVE SMOOTH",
"593 170 OFFCURVE",
"536 154 OFFCURVE",
"417 154 CURVE SMOOTH",
"311 154 OFFCURVE",
"208 177 OFFCURVE",
"118 215 CURVE",
"50 64 LINE",
"133 21 OFFCURVE",
"277 -10 OFFCURVE",
"414 -10 CURVE SMOOTH"
);
}
);
width = 854;
}
);
leftKerningGroup = S;
rightKerningGroup = S;
unicode = 0053;
userData = {
anchors = (
);
b = {
};
com.typemytype.robofont.layerData = {
b = {
anchors = (
);
components = (
);
contours = (
);
lib = {
};
name = S;
unicodes = (
);
width = 1274;
};
};
components = (
);
contours = (
);
lib = {
};
name = S;
unicodes = (
);
width = 1317;
};
},
{
color = 3;
glyphname = Germandbls;
lastChange = "2019-07-17 15:12:59 +0000";
layers = (
{
background = {
paths = (
{
closed = 1;
nodes = (
"138 0 LINE",
"138 459 LINE SMOOTH",
"138 604 OFFCURVE",
"202 671 OFFCURVE",
"344 671 CURVE SMOOTH",
"452 671 OFFCURVE",
"517 618 OFFCURVE",
"517 529 CURVE SMOOTH",
"517 432 OFFCURVE",
"451 378 OFFCURVE",
"349 378 CURVE SMOOTH",
"239 378 LINE",
"239 339 LINE",
"376 339 LINE SMOOTH",
"496 339 OFFCURVE",
"562 288 OFFCURVE",
"562 192 CURVE SMOOTH",
"562 96 OFFCURVE",
"497 35 OFFCURVE",
"397 33 CURVE SMOOTH",
"337 32 OFFCURVE",
"284 50 OFFCURVE",
"232 98 CURVE",
"210 62 LINE",
"256 16 OFFCURVE",
"326 -7 OFFCURVE",
"392 -7 CURVE SMOOTH",
"521 -7 OFFCURVE",
"606 72 OFFCURVE",
"606 191 CURVE SMOOTH",
"606 290 OFFCURVE",
"547 353 OFFCURVE",
"438 371 CURVE",
"428 360 LINE",
"506 377 OFFCURVE",
"560 440 OFFCURVE",
"560 529 CURVE SMOOTH",
"560 642 OFFCURVE",
"477 712 OFFCURVE",
"344 712 CURVE SMOOTH",
"182 712 OFFCURVE",
"96 627 OFFCURVE",
"96 464 CURVE SMOOTH",
"96 0 LINE"
);
}
);
};
layerId = "F1F93986-3ED8-4AAE-84C4-CA3EEECDDFA0";
paths = (
{
closed = 1;
nodes = (
"171 0 LINE",
"171 457 LINE SMOOTH",
"171 604 OFFCURVE",
"280 672 OFFCURVE",
"466 672 CURVE SMOOTH",
"622 672 OFFCURVE",
"718 619 OFFCURVE",
"718 529 CURVE SMOOTH",
"718 430 OFFCURVE",
"626 377 OFFCURVE",
"490 377 CURVE SMOOTH",
"329 377 LINE",
"329 338 LINE",
"527 338 LINE SMOOTH",
"687 338 OFFCURVE",
"777 288 OFFCURVE",
"777 192 CURVE SMOOTH",
"777 96 OFFCURVE",
"687 33 OFFCURVE",
"539 33 CURVE SMOOTH",
"447 33 OFFCURVE",
"373 50 OFFCURVE",
"304 97 CURVE",
"278 62 LINE",
"337 16 OFFCURVE",
"432 -7 OFFCURVE",
"532 -7 CURVE SMOOTH",
"711 -7 OFFCURVE",
"814 72 OFFCURVE",
"814 191 CURVE SMOOTH",
"814 292 OFFCURVE",
"740 351 OFFCURVE",
"602 369 CURVE",
"587 358 LINE",
"690 375 OFFCURVE",
"760 440 OFFCURVE",
"760 529 CURVE SMOOTH",
"760 643 OFFCURVE",
"640 713 OFFCURVE",
"464 713 CURVE SMOOTH",
"257 713 OFFCURVE",
"129 630 OFFCURVE",
"129 464 CURVE SMOOTH",
"129 0 LINE"
);
}
);
width = 911;
},
{
background = {
paths = (
{
closed = 1;
nodes = (
"268 0 LINE",
"268 438 LINE SMOOTH",
"268 513 OFFCURVE",
"310 549 OFFCURVE",
"375 549 CURVE SMOOTH",
"421 549 OFFCURVE",
"453 530 OFFCURVE",
"453 493 CURVE SMOOTH",
"453 458 OFFCURVE",
"435 438 OFFCURVE",
"390 438 CURVE SMOOTH",
"328 438 LINE",
"328 274 LINE",
"411 274 LINE SMOOTH",
"480 274 OFFCURVE",
"507 257 OFFCURVE",
"507 208 CURVE SMOOTH",
"507 170 OFFCURVE",
"488 149 OFFCURVE",
"449 149 CURVE SMOOTH",
"414 149 OFFCURVE",
"382 164 OFFCURVE",
"343 187 CURVE",
"288 45 LINE",
"348 8 OFFCURVE",
"401 -5 OFFCURVE",
"480 -5 CURVE SMOOTH",
"609 -5 OFFCURVE",
"708 84 OFFCURVE",
"708 200 CURVE SMOOTH",
"708 296 OFFCURVE",
"640 363 OFFCURVE",
"533 373 CURVE",
"538 357 LINE",
"606 381 OFFCURVE",
"652 438 OFFCURVE",
"652 507 CURVE SMOOTH",
"652 632 OFFCURVE",
"545 712 OFFCURVE",
"381 712 CURVE SMOOTH",
"177 712 OFFCURVE",
"57 605 OFFCURVE",
"57 430 CURVE SMOOTH",
"57 0 LINE"
);
}
);
};
layerId = "4121B50C-FD42-45C5-8FBE-41E76D98F91E";
paths = (
{
closed = 1;
nodes = (
"301 0 LINE",
"301 438 LINE SMOOTH",
"301 516 OFFCURVE",
"375 552 OFFCURVE",
"500 552 CURVE SMOOTH",
"602 552 OFFCURVE",
"658 532 OFFCURVE",
"658 494 CURVE SMOOTH",
"658 460 OFFCURVE",
"614 435 OFFCURVE",
"521 435 CURVE SMOOTH",
"402 435 LINE",
"402 274 LINE",
"543 274 LINE SMOOTH",
"629 274 OFFCURVE",
"710 268 OFFCURVE",
"710 208 CURVE SMOOTH",
"710 170 OFFCURVE",
"666 149 OFFCURVE",
"582 149 CURVE SMOOTH",
"518 149 OFFCURVE",
"465 164 OFFCURVE",
"409 187 CURVE",
"350 45 LINE",
"423 8 OFFCURVE",
"500 -5 OFFCURVE",
"609 -5 CURVE SMOOTH",
"787 -5 OFFCURVE",
"909 84 OFFCURVE",
"909 200 CURVE SMOOTH",
"909 298 OFFCURVE",
"823 363 OFFCURVE",
"691 373 CURVE",
"697 357 LINE",
"789 385 OFFCURVE",
"858 441 OFFCURVE",
"858 520 CURVE SMOOTH",
"858 635 OFFCURVE",
"732 715 OFFCURVE",
"505 715 CURVE SMOOTH",
"236 715 OFFCURVE",
"90 608 OFFCURVE",
"90 430 CURVE SMOOTH",
"90 0 LINE"
);
}
);
width = 956;
}
);
leftKerningGroup = H;
leftMetricsKey = H;
rightKerningGroup = Germandbls;
rightMetricsKey = B;
unicode = 1E9E;
},
{
color = 3;
glyphname = Schwa;
lastChange = "2019-07-17 15:12:59 +0000";
layers = (
{
anchors = (
{
name = bottom;
position = "{475, 0}";
},
{
name = top;
position = "{475, 705}";
}
);
background = {
anchors = (
{
name = bottom;
position = "{364, 0}";
},
{
name = top;
position = "{364, 705}";
}
);
paths = (
{
closed = 1;
nodes = (
"547 -8 OFFCURVE",
"661 129 OFFCURVE",
"661 353 CURVE SMOOTH",
"661 577 OFFCURVE",
"540 713 OFFCURVE",
"342 713 CURVE SMOOTH",
"245 713 OFFCURVE",
"152 678 OFFCURVE",
"93 618 CURVE",
"114 583 LINE",
"180 644 OFFCURVE",
"254 673 OFFCURVE",
"344 673 CURVE SMOOTH",
"517 673 OFFCURVE",
"617 556 OFFCURVE",
"617 353 CURVE SMOOTH",
"617 151 OFFCURVE",
"523 33 OFFCURVE",
"363 33 CURVE SMOOTH",
"205 33 OFFCURVE",
"111 146 OFFCURVE",
"111 353 CURVE",
"99 338 LINE",
"644 338 LINE",
"644 376 LINE",
"67 376 LINE",
"67 348 LINE SMOOTH",
"67 128 OFFCURVE",
"181 -8 OFFCURVE",
"363 -8 CURVE SMOOTH"
);
}
);
};
layerId = "F1F93986-3ED8-4AAE-84C4-CA3EEECDDFA0";
paths = (
{
closed = 1;
nodes = (
"713 -8 OFFCURVE",
"860 130 OFFCURVE",
"860 353 CURVE SMOOTH",
"860 577 OFFCURVE",
"703 713 OFFCURVE",
"447 713 CURVE SMOOTH",
"321 713 OFFCURVE",
"199 678 OFFCURVE",
"122 618 CURVE",
"145 583 LINE",
"233 644 OFFCURVE",
"331 673 OFFCURVE",
"450 673 CURVE SMOOTH",
"681 673 OFFCURVE",
"816 556 OFFCURVE",
"816 353 CURVE SMOOTH",
"816 152 OFFCURVE",
"689 33 OFFCURVE",
"473 33 CURVE SMOOTH",
"263 33 OFFCURVE",
"134 146 OFFCURVE",
"134 353 CURVE",
"122 337 LINE",
"848 337 LINE",
"848 376 LINE",
"90 376 LINE",
"90 348 LINE SMOOTH",
"90 128 OFFCURVE",
"239 -8 OFFCURVE",
"473 -8 CURVE SMOOTH"
);
}
);
width = 950;
},
{
anchors = (
{
name = bottom;
position = "{506, 0}";
},
{
name = top;
position = "{504, 705}";
}
);
background = {
anchors = (
{
name = bottom;
position = "{395, 0}";
},
{
name = top;
position = "{393, 705}";
}
);
paths = (
{
closed = 1;
nodes = (
"607 -10 OFFCURVE",
"747 147 OFFCURVE",
"747 353 CURVE SMOOTH",
"747 572 OFFCURVE",
"598 715 OFFCURVE",
"370 715 CURVE SMOOTH",
"260 715 OFFCURVE",
"165 685 OFFCURVE",
"102 641 CURVE",
"166 490 LINE",
"225 527 OFFCURVE",
"293 546 OFFCURVE",
"360 546 CURVE SMOOTH",
"475 546 OFFCURVE",
"534 485 OFFCURVE",
"534 353 CURVE SMOOTH",
"534 216 OFFCURVE",
"492 154 OFFCURVE",
"402 154 CURVE SMOOTH",
"303 154 OFFCURVE",
"248 219 OFFCURVE",
"255 353 CURVE",
"201 276 LINE",
"610 276 LINE",
"610 436 LINE",
"41 436 LINE",
"41 360 LINE SMOOTH",
"41 119 OFFCURVE",
"178 -10 OFFCURVE",
"407 -10 CURVE SMOOTH"
);
}
);
};
layerId = "4121B50C-FD42-45C5-8FBE-41E76D98F91E";
paths = (
{
closed = 1;
nodes = (
"772 -10 OFFCURVE",
"946 147 OFFCURVE",
"946 353 CURVE SMOOTH",
"946 572 OFFCURVE",
"761 715 OFFCURVE",
"475 715 CURVE SMOOTH",
"335 715 OFFCURVE",
"212 685 OFFCURVE",
"131 641 CURVE",
"197 490 LINE",
"278 527 OFFCURVE",
"370 546 OFFCURVE",
"466 546 CURVE SMOOTH",
"639 546 OFFCURVE",
"733 485 OFFCURVE",
"733 353 CURVE SMOOTH",
"733 217 OFFCURVE",
"658 154 OFFCURVE",
"512 154 CURVE SMOOTH",
"361 154 OFFCURVE",
"275 217 OFFCURVE",
"275 353 CURVE",
"224 275 LINE",
"814 275 LINE",
"814 436 LINE",
"64 436 LINE",
"64 360 LINE SMOOTH",
"64 119 OFFCURVE",
"236 -10 OFFCURVE",
"517 -10 CURVE SMOOTH"
);
}
);
width = 1010;
}
);
leftKerningGroup = O;
leftMetricsKey = O;
rightKerningGroup = O;
rightMetricsKey = O;
unicode = 018F;
},
{
color = 3;
glyphname = T;
lastChange = "2019-07-17 15:12:59 +0000";
layers = (
{
anchors = (
{
name = bottom;
position = "{380, 0}";
},
{
name = center;
position = "{380, 358}";
},
{
name = top;
position = "{380, 705}";
}
);
background = {
anchors = (
{
name = bottom;
position = "{290, 0}";
},
{
name = center;
position = "{290, 358}";
},
{
name = top;
position = "{290, 705}";
}
);
paths = (
{
closed = 1;
nodes = (
"311 0 LINE",
"311 666 LINE",
"570 666 LINE",
"570 705 LINE",
"10 705 LINE",
"10 666 LINE",
"269 666 LINE",
"269 0 LINE"
);
}
);
};
layerId = "F1F93986-3ED8-4AAE-84C4-CA3EEECDDFA0";
paths = (
{
closed = 1;
nodes = (
"400 0 LINE",
"400 666 LINE",
"744 666 LINE",
"744 705 LINE",
"14 705 LINE",
"14 666 LINE",
"359 666 LINE",
"359 0 LINE"
);
}
);
width = 758;
},
{
anchors = (
{
name = bottom;
position = "{409, 0}";
},
{
name = center;
position = "{408, 358}";
},
{
name = top;
position = "{408, 705}";
}
);
background = {
anchors = (
{
name = bottom;
position = "{319, 0}";
},
{
name = center;
position = "{318, 358}";
},
{
name = top;
position = "{318, 705}";
}
);
paths = (
{
closed = 1;
nodes = (
"427 0 LINE",
"427 532 LINE",
"627 532 LINE",
"627 705 LINE",
"10 705 LINE",
"10 532 LINE",
"210 532 LINE",
"210 0 LINE"
);
}
);
};
layerId = "4121B50C-FD42-45C5-8FBE-41E76D98F91E";
paths = (
{
closed = 1;
nodes = (
"515 0 LINE",
"515 531 LINE",
"801 531 LINE",
"801 705 LINE",
"14 705 LINE",
"14 531 LINE",
"301 531 LINE",
"301 0 LINE"
);
}
);
width = 815;
}
);
leftKerningGroup = T;
rightKerningGroup = T;
unicode = 0054;
userData = {
anchors = (
);
b = {
};
com.typemytype.robofont.layerData = {
b = {
anchors = (
);
components = (
);
contours = (
{
points = (
{
segmentType = curve;
smooth = 1;
x = 581;
y = 0;
},
{
segmentType = line;
smooth = 1;
x = 1350;
y = 0;
},
{
smooth = 0;
x = 1399;
y = 0;
},
{
smooth = 0;
x = 1423;
y = 34;
},
{
segmentType = curve;
smooth = 1;
x = 1423;
y = 71;
},
{
smooth = 0;
x = 1423;
y = 107;
},
{
smooth = 0;
x = 1399;
y = 141;
},
{
segmentType = curve;
smooth = 1;
x = 1350;
y = 141;
},
{
segmentType = line;
smooth = 0;
x = 671;
y = 141;
},
{
segmentType = line;
smooth = 0;
x = 671;
y = 665;
},
{
segmentType = line;
smooth = 1;
x = 1290;
y = 665;
},
{
smooth = 0;
x = 1339;
y = 665;
},
{
smooth = 0;
x = 1364;
y = 698;
},
{
segmentType = curve;
smooth = 1;
x = 1364;
y = 734;
},
{
smooth = 0;
x = 1364;
y = 770;
},
{
smooth = 0;
x = 1341;
y = 803;
},
{
segmentType = curve;
smooth = 1;
x = 1290;
y = 803;
},
{
segmentType = line;
smooth = 0;
x = 671;
y = 803;
},
{
segmentType = line;
smooth = 0;
x = 671;
y = 1285;
},
{
segmentType = line;
smooth = 1;
x = 1322;
y = 1285;
},
{
smooth = 0;
x = 1371;
y = 1285;
},
{
smooth = 0;
x = 1395;
y = 1319;
},
{
segmentType = curve;
smooth = 1;
x = 1395;
y = 1356;
},
{
smooth = 0;
x = 1395;
y = 1392;
},
{
smooth = 0;
x = 1371;
y = 1426;
},
{
segmentType = curve;
smooth = 1;
x = 1322;
y = 1426;
},
{
segmentType = line;
smooth = 1;
x = 576;
y = 1426;
},
{
smooth = 0;
x = 528;
y = 1426;
},
{
smooth = 0;
x = 493;
y = 1383;
},
{
segmentType = curve;
smooth = 1;
x = 493;
y = 1340;
},
{
segmentType = line;
smooth = 1;
x = 493;
y = 86;
},
{
smooth = 0;
x = 493;
y = 41;
},
{
smooth = 0;
x = 537;
y = 0;
}
);
}
);
lib = {
};
name = T;
unicodes = (
);
width = 1158;
};
};
components = (
);
contours = (
);
lib = {
};
name = T;
unicodes = (
);
width = 1199;
};
},
{
color = 3;
glyphname = U;
lastChange = "2019-07-17 15:12:59 +0000";
layers = (
{
anchors = (
{
name = bottom;
position = "{468, 0}";
},
{
name = ogonek;
position = "{542, 0}";
},
{
name = top;
position = "{468, 705}";
},
{
name = topright;
position = "{769, 705}";
}
);
background = {
anchors = (
{
name = bottom;
position = "{358, 0}";
},
{
name = ogonek;
position = "{437, 21}";
},
{
name = top;
position = "{358, 705}";
},
{
name = topright;
position = "{584, 705}";
}
);
paths = (
{
closed = 1;
nodes = (
"533 -8 OFFCURVE",
"625 86 OFFCURVE",
"625 267 CURVE SMOOTH",
"625 705 LINE",
"583 705 LINE",
"583 260 LINE SMOOTH",
"583 109 OFFCURVE",
"506 33 OFFCURVE",
"358 33 CURVE SMOOTH",
"208 33 OFFCURVE",
"133 109 OFFCURVE",
"133 260 CURVE SMOOTH",
"133 705 LINE",
"91 705 LINE",
"91 267 LINE SMOOTH",
"91 86 OFFCURVE",
"182 -8 OFFCURVE",
"358 -8 CURVE SMOOTH"
);
}
);
};
layerId = "F1F93986-3ED8-4AAE-84C4-CA3EEECDDFA0";
paths = (
{
closed = 1;
nodes = (
"693 -8 OFFCURVE",
"814 86 OFFCURVE",
"814 267 CURVE SMOOTH",
"814 705 LINE",
"772 705 LINE",
"772 260 LINE SMOOTH",
"772 109 OFFCURVE",
"668 33 OFFCURVE",
"468 33 CURVE SMOOTH",
"267 33 OFFCURVE",
"164 109 OFFCURVE",
"164 260 CURVE SMOOTH",
"164 705 LINE",
"122 705 LINE",
"122 267 LINE SMOOTH",
"122 86 OFFCURVE",
"241 -8 OFFCURVE",
"468 -8 CURVE SMOOTH"
);
}
);
width = 936;
},
{
anchors = (
{
name = bottom;
position = "{485, 0}";
},
{
name = ogonek;
position = "{560, 0}";
},
{
name = top;
position = "{485, 705}";
},
{
name = topright;
position = "{737, 705}";
}
);
background = {
anchors = (
{
name = bottom;
position = "{375, 0}";
},
{
name = ogonek;
position = "{513, 37}";
},
{
name = top;
position = "{375, 705}";
},
{
name = topright;
position = "{552, 705}";
}
);
paths = (
{
closed = 1;
nodes = (
"583 -10 OFFCURVE",
"697 94 OFFCURVE",
"697 289 CURVE SMOOTH",
"697 705 LINE",
"486 705 LINE",
"486 281 LINE SMOOTH",
"486 202 OFFCURVE",
"445 156 OFFCURVE",
"375 156 CURVE SMOOTH",
"303 156 OFFCURVE",
"263 200 OFFCURVE",
"263 281 CURVE SMOOTH",
"263 705 LINE",
"52 705 LINE",
"52 289 LINE SMOOTH",
"52 91 OFFCURVE",
"163 -10 OFFCURVE",
"375 -10 CURVE SMOOTH"
);
}
);
};
layerId = "4121B50C-FD42-45C5-8FBE-41E76D98F91E";
paths = (
{
closed = 1;
nodes = (
"743 -10 OFFCURVE",
"886 94 OFFCURVE",
"886 289 CURVE SMOOTH",
"886 705 LINE",
"675 705 LINE",
"675 282 LINE SMOOTH",
"675 203 OFFCURVE",
"607 159 OFFCURVE",
"485 159 CURVE SMOOTH",
"362 159 OFFCURVE",
"294 201 OFFCURVE",
"294 282 CURVE SMOOTH",
"294 705 LINE",
"83 705 LINE",
"83 289 LINE SMOOTH",
"83 91 OFFCURVE",
"222 -10 OFFCURVE",
"485 -10 CURVE SMOOTH"
);
}
);
width = 969;
}
);
leftKerningGroup = U;
rightKerningGroup = U;
unicode = 0055;
userData = {
anchors = (
);
b = {
};
com.typemytype.robofont.layerData = {
b = {
anchors = (
);
components = (
);
contours = (
);
lib = {
};
name = U;
unicodes = (
);
width = 1490;
};
};
components = (
);
contours = (
);
lib = {
};
name = U;
unicodes = (
);
width = 1513;
};
},
{
color = 3;
glyphname = V;
lastChange = "2019-07-17 15:12:59 +0000";
layers = (
{
anchors = (
{
name = bottom;
position = "{435, 0}";
},
{
name = top;
position = "{434, 705}";
}
);
background = {
anchors = (
{
name = bottom;
position = "{334, 0}";
},
{
name = top;
position = "{333, 705}";
}
);
paths = (
{
closed = 1;
nodes = (
"355 0 LINE",
"659 705 LINE",
"612 705 LINE",
"320 24 LINE",
"347 24 LINE",
"54 705 LINE",
"8 705 LINE",
"310 0 LINE"
);
}
);
};
layerId = "F1F93986-3ED8-4AAE-84C4-CA3EEECDDFA0";
paths = (
{
closed = 1;
nodes = (
"457 0 LINE",
"855 705 LINE",
"808 705 LINE",
"420 24 LINE",
"449 24 LINE",
"59 705 LINE",
"14 705 LINE",
"409 0 LINE"
);
}
);
width = 867;
},
{
anchors = (
{
name = bottom;
position = "{479, 0}";
},
{
name = top;
position = "{478, 705}";
}
);
background = {
anchors = (
{
name = bottom;
position = "{378, 0}";
},
{
name = top;
position = "{377, 705}";
}
);
paths = (
{
closed = 1;
nodes = (
"462 0 LINE",
"787 705 LINE",
"569 705 LINE",
"352 203 LINE",
"407 203 LINE",
"191 705 LINE",
"-32 705 LINE",
"293 0 LINE"
);
}
);
};
layerId = "4121B50C-FD42-45C5-8FBE-41E76D98F91E";
paths = (
{
closed = 1;
nodes = (
"564 0 LINE",
"983 705 LINE",
"764 705 LINE",
"451 203 LINE",
"511 203 LINE",
"197 705 LINE",
"-26 705 LINE",
"392 0 LINE"
);
}
);
width = 956;
}
);
leftKerningGroup = V;
rightKerningGroup = V;
unicode = 0056;
userData = {
anchors = (
);
b = {
};
com.typemytype.robofont.guides = (
);
com.typemytype.robofont.layerData = {
b = {
anchors = (
);
components = (
);
contours = (
{
points = (
{
segmentType = curve;
smooth = 1;
x = 644;
y = "-5";
},
{
smooth = 0;
x = 712;
y = "-5";
},
{
smooth = 0;
x = 764;
y = 38;
},
{
segmentType = curve;
smooth = 1;
x = 793;
y = 117;
},
{
segmentType = line;
smooth = 1;
x = 1243;
y = 1324;
},
{
smooth = 0;
x = 1247;
y = 1335;
},
{
smooth = 0;
x = 1248;
y = 1342;
},
{
segmentType = curve;
smooth = 1;
x = 1248;
y = 1351;
},
{
smooth = 0;
x = 1248;
y = 1395;
},
{
smooth = 0;
x = 1203;
y = 1427;
},
{
segmentType = curve;
smooth = 1;
x = 1160;
y = 1427;
},
{
smooth = 0;
x = 1125;
y = 1427;
},
{
smooth = 0;
x = 1090;
y = 1408;
},
{
segmentType = curve;
smooth = 1;
x = 1076;
y = 1369;
},
{
segmentType = line;
smooth = 0;
x = 651;
y = 192;
},
{
segmentType = line;
smooth = 0;
x = 650;
y = 190;
},
{
segmentType = line;
smooth = 1;
x = 214;
y = 1370;
},
{
smooth = 0;
x = 200;
y = 1407;
},
{
smooth = 0;
x = 170;
y = 1427;
},
{
segmentType = curve;
smooth = 1;
x = 135;
y = 1427;
},
{
smooth = 0;
x = 90;
y = 1427;
},
{
smooth = 0;
x = 43;
y = 1392;
},
{
segmentType = curve;
smooth = 1;
x = 43;
y = 1344;
},
{
smooth = 0;
x = 43;
y = 1336;
},
{
smooth = 0;
x = 44;
y = 1326;
},
{
segmentType = curve;
smooth = 0;
x = 48;
y = 1318;
},
{
segmentType = line;
smooth = 1;
x = 501;
y = 117;
},
{
smooth = 0;
x = 532;
y = 35;
},
{
smooth = 0;
x = 581;
y = "-5";
}
);
}
);
lib = {
};
name = V;
unicodes = (
);
width = 1289;
};
};
components = (
);
contours = (
);
lib = {
};
name = V;
unicodes = (
);
width = 1365;
};
},
{
color = 3;
glyphname = W;
lastChange = "2019-07-17 15:12:59 +0000";
layers = (
{
anchors = (
{
name = bottom;
position = "{715, 0}";
},
{
name = top;
position = "{714, 705}";
}
);
background = {
anchors = (
{
name = bottom;
position = "{546, 0}";
},
{
name = top;
position = "{545, 705}";
}
);
paths = (
{
closed = 1;
nodes = (
"323 0 LINE",
"555 669 LINE",
"535 669 LINE",
"767 0 LINE",
"809 0 LINE",
"1053 705 LINE",
"1009 705 LINE",
"772 19 LINE",
"802 19 LINE",
"565 705 LINE",
"525 705 LINE",
"288 19 LINE",
"319 19 LINE",
"83 705 LINE",
"38 705 LINE",
"282 0 LINE"
);
}
);
};
layerId = "F1F93986-3ED8-4AAE-84C4-CA3EEECDDFA0";
paths = (
{
closed = 1;
nodes = (
"416 0 LINE",
"726 671 LINE",
"700 671 LINE",
"1011 0 LINE",
"1056 0 LINE",
"1376 705 LINE",
"1332 705 LINE",
"1016 19 LINE",
"1051 19 LINE",
"734 705 LINE",
"690 705 LINE",
"375 19 LINE",
"413 19 LINE",
"96 705 LINE",
"52 705 LINE",
"371 0 LINE"
);
}
);
width = 1428;
},
{
anchors = (
{
name = bottom;
position = "{734, 0}";
},
{
name = top;
position = "{735, 705}";
}
);
background = {
anchors = (
{
name = bottom;
position = "{565, 0}";
},
{
name = top;
position = "{566, 705}";
}
);
paths = (
{
closed = 1;
nodes = (
"431 0 LINE",
"580 412 LINE",
"554 412 LINE",
"699 0 LINE",
"869 0 LINE",
"1123 705 LINE",
"919 705 LINE",
"762 234 LINE",
"800 234 LINE",
"646 705 LINE",
"499 705 LINE",
"332 234 LINE",
"378 234 LINE",
"226 705 LINE",
"8 705 LINE",
"260 0 LINE"
);
}
);
};
layerId = "4121B50C-FD42-45C5-8FBE-41E76D98F91E";
paths = (
{
closed = 1;
nodes = (
"524 0 LINE",
"751 412 LINE",
"719 412 LINE",
"944 0 LINE",
"1116 0 LINE",
"1446 705 LINE",
"1241 705 LINE",
"1005 234 LINE",
"1050 234 LINE",
"816 705 LINE",
"664 705 LINE",
"419 234 LINE",
"473 234 LINE",
"240 705 LINE",
"22 705 LINE",
"349 0 LINE"
);
}
);
width = 1467;
}
);
leftKerningGroup = V;
rightKerningGroup = V;
unicode = 0057;
userData = {
anchors = (
);
b = {
};
com.typemytype.robofont.layerData = {
b = {
anchors = (
);
components = (
);
contours = (
);
lib = {
};
name = W;
unicodes = (
);
width = 2126;
};
};
components = (
);
contours = (
);
lib = {
};
name = W;
unicodes = (
);
width = 2070;
};
},
{
color = 3;
glyphname = X;
lastChange = "2019-07-17 15:12:59 +0000";
layers = (
{
anchors = (
{
name = bottom;
position = "{411, 0}";
},
{
name = top;
position = "{411, 705}";
}
);
background = {
anchors = (
{
name = bottom;
position = "{316, 0}";
},
{
name = top;
position = "{316, 705}";
}
);
paths = (
{
closed = 1;
nodes = (
"591 705 LINE",
"543 705 LINE",
"311 387 LINE",
"323 387 LINE",
"89 705 LINE",
"40 705 LINE",
"296 357 LINE",
"296 368 LINE",
"24 0 LINE",
"74 0 LINE",
"325 342 LINE",
"306 342 LINE",
"557 0 LINE",
"606 0 LINE",
"333 371 LINE",
"333 352 LINE"
);
}
);
};
layerId = "F1F93986-3ED8-4AAE-84C4-CA3EEECDDFA0";
paths = (
{
closed = 1;
nodes = (
"764 705 LINE",
"716 705 LINE",
"407 387 LINE",
"418 387 LINE",
"107 705 LINE",
"58 705 LINE",
"390 357 LINE",
"390 368 LINE",
"36 0 LINE",
"86 0 LINE",
"421 342 LINE",
"400 342 LINE",
"736 0 LINE",
"785 0 LINE",
"428 371 LINE",
"428 352 LINE"
);
}
);
width = 821;
},
{
anchors = (
{
name = bottom;
position = "{453, 0}";
},
{
name = top;
position = "{451, 705}";
}
);
background = {
anchors = (
{
name = bottom;
position = "{358, 0}";
},
{
name = top;
position = "{356, 705}";
}
);
paths = (
{
closed = 1;
nodes = (
"746 705 LINE",
"496 705 LINE",
"321 461 LINE",
"391 460 LINE",
"218 705 LINE",
"-32 705 LINE",
"272 305 LINE",
"272 404 LINE",
"-35 0 LINE",
"214 0 LINE",
"390 244 LINE",
"323 246 LINE",
"497 0 LINE",
"748 0 LINE",
"442 403 LINE",
"442 307 LINE"
);
}
);
};
layerId = "4121B50C-FD42-45C5-8FBE-41E76D98F91E";
paths = (
{
closed = 1;
nodes = (
"919 705 LINE",
"669 705 LINE",
"417 461 LINE",
"486 460 LINE",
"236 705 LINE",
"-14 705 LINE",
"366 305 LINE",
"366 404 LINE",
"-23 0 LINE",
"226 0 LINE",
"486 244 LINE",
"417 246 LINE",
"676 0 LINE",
"927 0 LINE",
"537 403 LINE",
"537 307 LINE"
);
}
);
width = 904;
}
);
leftKerningGroup = X;
rightKerningGroup = X;
unicode = 0058;
userData = {
anchors = (
);
b = {
};
com.typemytype.robofont.layerData = {
b = {
anchors = (
);
components = (
);
contours = (
{
points = (
{
segmentType = curve;
smooth = 1;
x = 151;
y = 0;
},
{
smooth = 0;
x = 176;
y = 0;
},
{
smooth = 0;
x = 201;
y = 12;
},
{
segmentType = curve;
smooth = 1;
x = 222;
y = 41;
},
{
segmentType = line;
smooth = 0;
x = 641;
y = 616;
},
{
segmentType = line;
smooth = 0;
x = 746;
y = 734;
},
{
segmentType = line;
smooth = 1;
x = 1175;
y = 1310;
},
{
smooth = 0;
x = 1186;
y = 1325;
},
{
smooth = 0;
x = 1190;
y = 1338;
},
{
segmentType = curve;
smooth = 1;
x = 1190;
y = 1353;
},
{
smooth = 0;
x = 1190;
y = 1393;
},
{
smooth = 0;
x = 1153;
y = 1426;
},
{
segmentType = curve;
smooth = 1;
x = 1110;
y = 1426;
},
{
smooth = 0;
x = 1083;
y = 1426;
},
{
smooth = 0;
x = 1058;
y = 1414;
},
{
segmentType = curve;
smooth = 1;
x = 1037;
y = 1385;
},
{
segmentType = line;
smooth = 0;
x = 648;
y = 844;
},
{
segmentType = line;
smooth = 0;
x = 542;
y = 732;
},
{
segmentType = line;
smooth = 1;
x = 84;
y = 121;
},
{
smooth = 0;
x = 73;
y = 106;
},
{
smooth = 0;
x = 68;
y = 91;
},
{
segmentType = curve;
smooth = 1;
x = 68;
y = 76;
},
{
smooth = 0;
x = 68;
y = 35;
},
{
smooth = 0;
x = 108;
y = 0;
}
);
},
{
points = (
{
segmentType = curve;
smooth = 1;
x = 1104;
y = 0;
},
{
smooth = 0;
x = 1151;
y = 0;
},
{
smooth = 0;
x = 1200;
y = 40;
},
{
segmentType = curve;
smooth = 1;
x = 1200;
y = 85;
},
{
smooth = 0;
x = 1200;
y = 98;
},
{
smooth = 0;
x = 1195;
y = 113;
},
{
segmentType = curve;
smooth = 0;
x = 1186;
y = 126;
},
{
segmentType = line;
smooth = 0;
x = 272;
y = 1385;
},
{
smooth = 0;
x = 252;
y = 1414;
},
{
smooth = 0;
x = 225;
y = 1426;
},
{
segmentType = curve;
smooth = 1;
x = 197;
y = 1426;
},
{
smooth = 0;
x = 149;
y = 1426;
},
{
smooth = 0;
x = 100;
y = 1388;
},
{
segmentType = curve;
smooth = 1;
x = 100;
y = 1343;
},
{
smooth = 0;
x = 100;
y = 1328;
},
{
smooth = 0;
x = 105;
y = 1315;
},
{
segmentType = curve;
smooth = 0;
x = 114;
y = 1303;
},
{
segmentType = line;
smooth = 0;
x = 1033;
y = 40;
},
{
smooth = 0;
x = 1052;
y = 13;
},
{
smooth = 0;
x = 1076;
y = 0;
}
);
}
);
lib = {
};
name = X;
unicodes = (
);
width = 1274;
};
};
components = (
);
contours = (
);
lib = {
};
name = X;
unicodes = (
);
width = 1322;
};
},
{
color = 3;
glyphname = Y;
lastChange = "2019-07-17 15:12:59 +0000";
layers = (
{
anchors = (
{
name = bottom;
position = "{375, 0}";
},
{
name = top;
position = "{375, 705}";
},
{
name = topleft;
position = "{23, 705}";
}
);
background = {
anchors = (
{
name = bottom;
position = "{288, 0}";
},
{
name = top;
position = "{288, 705}";
},
{
name = topleft;
position = "{17, 705}";
}
);
paths = (
{
closed = 1;
nodes = (
"309 0 LINE",
"309 367 LINE",
"299 328 LINE",
"577 705 LINE",
"530 705 LINE",
"282 368 LINE",
"297 368 LINE",
"48 705 LINE",
"-1 705 LINE",
"278 328 LINE",
"267 367 LINE",
"267 0 LINE"
);
}
);
};
layerId = "F1F93986-3ED8-4AAE-84C4-CA3EEECDDFA0";
paths = (
{
closed = 1;
nodes = (
"396 0 LINE",
"396 367 LINE",
"385 328 LINE",
"745 705 LINE",
"698 705 LINE",
"368 368 LINE",
"386 368 LINE",
"54 705 LINE",
"5 705 LINE",
"366 328 LINE",
"354 367 LINE",
"354 0 LINE"
);
}
);
width = 751;
},
{
anchors = (
{
name = bottom;
position = "{418, 0}";
},
{
name = top;
position = "{416, 705}";
},
{
name = topleft;
position = "{22, 705}";
}
);
background = {
anchors = (
{
name = bottom;
position = "{331, 0}";
},
{
name = top;
position = "{329, 705}";
},
{
name = topleft;
position = "{16, 705}";
}
);
paths = (
{
closed = 1;
nodes = (
"438 0 LINE",
"438 367 LINE",
"394 251 LINE",
"742 705 LINE",
"497 705 LINE",
"307 449 LINE",
"348 449 LINE",
"162 705 LINE",
"-80 705 LINE",
"265 251 LINE",
"222 367 LINE",
"222 0 LINE"
);
}
);
};
layerId = "4121B50C-FD42-45C5-8FBE-41E76D98F91E";
paths = (
{
closed = 1;
nodes = (
"524 0 LINE",
"524 367 LINE",
"480 251 LINE",
"910 705 LINE",
"665 705 LINE",
"393 449 LINE",
"437 449 LINE",
"168 705 LINE",
"-74 705 LINE",
"353 251 LINE",
"309 367 LINE",
"309 0 LINE"
);
}
);
width = 834;
}
);
leftKerningGroup = Y;
rightKerningGroup = Y;
unicode = 0059;
userData = {
anchors = (
);
b = {
};
com.typemytype.robofont.guides = (
);
com.typemytype.robofont.layerData = {
b = {
anchors = (
);
components = (
);
contours = (
{
points = (
{
segmentType = curve;
smooth = 1;
x = 641;
y = 0;
},
{
smooth = 0;
x = 685;
y = 0;
},
{
smooth = 0;
x = 730;
y = 29;
},
{
segmentType = curve;
smooth = 1;
x = 730;
y = 85;
},
{
segmentType = line;
smooth = 0;
x = 730;
y = 1285;
},
{
segmentType = line;
smooth = 1;
x = 1115;
y = 1285;
},
{
smooth = 0;
x = 1164;
y = 1285;
},
{
smooth = 0;
x = 1190;
y = 1319;
},
{
segmentType = curve;
smooth = 1;
x = 1190;
y = 1355;
},
{
smooth = 0;
x = 1190;
y = 1392;
},
{
smooth = 0;
x = 1166;
y = 1426;
},
{
segmentType = curve;
smooth = 1;
x = 1115;
y = 1426;
},
{
segmentType = line;
smooth = 1;
x = 160;
y = 1426;
},
{
smooth = 0;
x = 111;
y = 1426;
},
{
smooth = 0;
x = 86;
y = 1392;
},
{
segmentType = curve;
smooth = 1;
x = 86;
y = 1355;
},
{
smooth = 0;
x = 86;
y = 1319;
},
{
smooth = 0;
x = 111;
y = 1285;
},
{
segmentType = curve;
smooth = 1;
x = 160;
y = 1285;
},
{
segmentType = line;
smooth = 0;
x = 552;
y = 1285;
},
{
segmentType = line;
smooth = 1;
x = 552;
y = 85;
},
{
smooth = 0;
x = 552;
y = 29;
},
{
smooth = 0;
x = 596;
y = 0;
}
);
}
);
lib = {
};
name = Y;
unicodes = (
);
width = 1278;
};
};
components = (
);
contours = (
);
lib = {
};
name = Y;
unicodes = (
);
width = 1321;
};
},
{
color = 3;
glyphname = Z;
lastChange = "2019-07-17 15:12:59 +0000";
layers = (
{
anchors = (
{
name = bottom;
position = "{386, 0}";
},
{
name = top;
position = "{373, 705}";
}
);
background = {
anchors = (
{
name = bottom;
position = "{295, 0}";
},
{
name = top;
position = "{286, 705}";
}
);
paths = (
{
closed = 1;
nodes = (
"539 0 LINE",
"539 39 LINE",
"77 39 LINE",
"77 16 LINE",
"529 674 LINE",
"529 705 LINE",
"40 705 LINE",
"40 666 LINE",
"492 666 LINE",
"492 689 LINE",
"40 31 LINE",
"40 0 LINE"
);
}
);
};
layerId = "F1F93986-3ED8-4AAE-84C4-CA3EEECDDFA0";
paths = (
{
closed = 1;
nodes = (
"702 0 LINE",
"702 39 LINE",
"91 39 LINE",
"91 16 LINE",
"689 674 LINE",
"689 705 LINE",
"52 705 LINE",
"52 666 LINE",
"651 666 LINE",
"651 689 LINE",
"52 31 LINE",
"52 0 LINE"
);
}
);
width = 750;
},
{
anchors = (
{
name = bottom;
position = "{401, 0}";
},
{
name = top;
position = "{407, 705}";
}
);
background = {
anchors = (
{
name = bottom;
position = "{297, 0}";
},
{
name = top;
position = "{307, 705}";
}
);
paths = (
{
closed = 1;
nodes = (
"583 0 LINE",
"583 167 LINE",
"243 167 LINE",
"243 114 LINE",
"571 550 LINE",
"571 705 LINE",
"45 705 LINE",
"45 538 LINE",
"370 538 LINE",
"370 591 LINE",
"45 158 LINE",
"45 0 LINE"
);
}
);
};
layerId = "4121B50C-FD42-45C5-8FBE-41E76D98F91E";
paths = (
{
closed = 1;
nodes = (
"772 0 LINE",
"772 170 LINE",
"255 170 LINE",
"255 114 LINE",
"757 550 LINE",
"757 705 LINE",
"57 705 LINE",
"57 535 LINE",
"557 535 LINE",
"557 591 LINE",
"57 158 LINE",
"57 0 LINE"
);
}
);
width = 809;
}
);
leftKerningGroup = Z;
rightKerningGroup = Z;
unicode = 005A;
userData = {
anchors = (
);
b = {
};
com.typemytype.robofont.layerData = {
b = {
anchors = (
);
components = (
);
contours = (
{
points = (
{
segmentType = curve;
smooth = 1;
x = 266;
y = 0;
},
{
segmentType = line;
smooth = 1;
x = 1035;
y = 0;
},
{
smooth = 0;
x = 1084;
y = 0;
},
{
smooth = 0;
x = 1108;
y = 34;
},
{
segmentType = curve;
smooth = 1;
x = 1108;
y = 71;
},
{
smooth = 0;
x = 1108;
y = 107;
},
{
smooth = 0;
x = 1084;
y = 141;
},
{
segmentType = curve;
smooth = 1;
x = 1035;
y = 141;
},
{
segmentType = line;
smooth = 0;
x = 356;
y = 141;
},
{
segmentType = line;
smooth = 0;
x = 356;
y = 665;
},
{
segmentType = line;
smooth = 1;
x = 975;
y = 665;
},
{
smooth = 0;
x = 1024;
y = 665;
},
{
smooth = 0;
x = 1049;
y = 698;
},
{
segmentType = curve;
smooth = 1;
x = 1049;
y = 734;
},
{
smooth = 0;
x = 1049;
y = 770;
},
{
smooth = 0;
x = 1026;
y = 803;
},
{
segmentType = curve;
smooth = 1;
x = 975;
y = 803;
},
{
segmentType = line;
smooth = 0;
x = 356;
y = 803;
},
{
segmentType = line;
smooth = 0;
x = 356;
y = 1285;
},
{
segmentType = line;
smooth = 1;
x = 1007;
y = 1285;
},
{
smooth = 0;
x = 1056;
y = 1285;
},
{
smooth = 0;
x = 1080;
y = 1319;
},
{
segmentType = curve;
smooth = 1;
x = 1080;
y = 1356;
},
{
smooth = 0;
x = 1080;
y = 1392;
},
{
smooth = 0;
x = 1056;
y = 1426;
},
{
segmentType = curve;
smooth = 1;
x = 1007;
y = 1426;
},
{
segmentType = line;
smooth = 1;
x = 261;
y = 1426;
},
{
smooth = 0;
x = 213;
y = 1426;
},
{
smooth = 0;
x = 178;
y = 1383;
},
{
segmentType = curve;
smooth = 1;
x = 178;
y = 1340;
},
{
segmentType = line;
smooth = 1;
x = 178;
y = 86;
},
{
smooth = 0;
x = 178;
y = 41;
},
{
smooth = 0;
x = 222;
y = 0;
}
);
}
);
lib = {
};
name = Z;
unicodes = (
);
width = 1165;
};
};
components = (
);
contours = (
);
lib = {
};
name = Z;
unicodes = (
);
width = 1222;
};
},
{
color = 3;
glyphname = a;
lastChange = "2019-07-17 15:12:59 +0000";
layers = (
{
anchors = (
{
name = bottom;
position = "{343, 0}";
},
{
name = ogonek;
position = "{562, 0}";
},
{
name = top;
position = "{347, 484}";
}
);
background = {
anchors = (
{
name = bottom;
position = "{262, 0}";
},
{
name = ogonek;
position = "{432, 0}";
},
{
name = top;
position = "{265, 484}";
}
);
paths = (
{
closed = 1;
nodes = (
"316 -7 OFFCURVE",
"380 42 OFFCURVE",
"401 122 CURVE",
"390 122 LINE",
"390 0 LINE",
"432 0 LINE",
"432 319 LINE SMOOTH",
"432 440 OFFCURVE",
"379 496 OFFCURVE",
"269 496 CURVE SMOOTH",
"204 496 OFFCURVE",
"134 474 OFFCURVE",
"83 438 CURVE",
"103 401 LINE",
"160 440 OFFCURVE",
"210 455 OFFCURVE",
"271 455 CURVE SMOOTH",
"353 455 OFFCURVE",
"389 413 OFFCURVE",
"389 319 CURVE SMOOTH",
"389 202 LINE SMOOTH",
"389 104 OFFCURVE",
"325 34 OFFCURVE",
"233 34 CURVE SMOOTH",
"160 34 OFFCURVE",
"111 78 OFFCURVE",
"111 140 CURVE SMOOTH",
"111 217 OFFCURVE",
"164 238 OFFCURVE",
"361 238 CURVE SMOOTH",
"400 238 LINE",
"400 277 LINE",
"359 277 LINE SMOOTH",
"133 277 OFFCURVE",
"63 243 OFFCURVE",
"63 136 CURVE SMOOTH",
"63 56 OFFCURVE",
"137 -7 OFFCURVE",
"231 -7 CURVE SMOOTH"
);
}
);
};
layerId = "F1F93986-3ED8-4AAE-84C4-CA3EEECDDFA0";
paths = (
{
closed = 1;
nodes = (
"417 -7 OFFCURVE",
"504 42 OFFCURVE",
"532 122 CURVE",
"518 122 LINE",
"518 0 LINE",
"560 0 LINE",
"560 319 LINE SMOOTH",
"560 408 OFFCURVE",
"525 496 OFFCURVE",
"353 496 CURVE SMOOTH",
"272 496 OFFCURVE",
"180 474 OFFCURVE",
"114 438 CURVE",
"139 401 LINE",
"214 440 OFFCURVE",
"278 455 OFFCURVE",
"358 455 CURVE SMOOTH",
"492 455 OFFCURVE",
"517 389 OFFCURVE",
"517 319 CURVE SMOOTH",
"517 202 LINE SMOOTH",
"517 104 OFFCURVE",
"428 34 OFFCURVE",
"306 34 CURVE SMOOTH",
"204 34 OFFCURVE",
"136 78 OFFCURVE",
"136 140 CURVE SMOOTH",
"136 235 OFFCURVE",
"284 238 OFFCURVE",
"479 238 CURVE SMOOTH",
"530 238 LINE",
"530 277 LINE",
"477 277 LINE SMOOTH",
"234 277 OFFCURVE",
"88 261 OFFCURVE",
"88 136 CURVE SMOOTH",
"88 56 OFFCURVE",
"184 -7 OFFCURVE",
"306 -7 CURVE SMOOTH"
);
}
);
width = 673;
},
{
anchors = (
{
name = bottom;
position = "{359, 0}";
},
{
name = ogonek;
position = "{619, 0}";
},
{
name = top;
position = "{365, 484}";
}
);
background = {
anchors = (
{
name = bottom;
position = "{278, 0}";
},
{
name = ogonek;
position = "{486, 0}";
},
{
name = top;
position = "{283, 484}";
}
);
paths = (
{
closed = 1;
nodes = (
"275 -9 OFFCURVE",
"322 30 OFFCURVE",
"330 90 CURVE",
"325 90 LINE",
"325 0 LINE",
"518 0 LINE",
"518 276 LINE SMOOTH",
"518 434 OFFCURVE",
"441 506 OFFCURVE",
"281 506 CURVE SMOOTH",
"200 506 OFFCURVE",
"101 479 OFFCURVE",
"42 444 CURVE",
"93 305 LINE",
"142 333 OFFCURVE",
"211 352 OFFCURVE",
"255 352 CURVE SMOOTH",
"305 352 OFFCURVE",
"322 340 OFFCURVE",
"322 302 CURVE SMOOTH",
"322 197 LINE SMOOTH",
"322 155 OFFCURVE",
"294 128 OFFCURVE",
"258 128 CURVE SMOOTH",
"234 128 OFFCURVE",
"219 145 OFFCURVE",
"219 166 CURVE SMOOTH",
"219 192 OFFCURVE",
"248 204 OFFCURVE",
"300 204 CURVE SMOOTH",
"341 204 LINE",
"341 304 LINE",
"294 304 LINE SMOOTH",
"99 304 OFFCURVE",
"22 264 OFFCURVE",
"22 157 CURVE SMOOTH",
"22 61 OFFCURVE",
"100 -9 OFFCURVE",
"205 -9 CURVE SMOOTH"
);
}
);
};
color = 11;
layerId = "4121B50C-FD42-45C5-8FBE-41E76D98F91E";
paths = (
{
closed = 1;
nodes = (
"376 -9 OFFCURVE",
"446 30 OFFCURVE",
"461 90 CURVE",
"453 90 LINE",
"453 0 LINE",
"647 0 LINE",
"647 276 LINE SMOOTH",
"647 399 OFFCURVE",
"592 506 OFFCURVE",
"365 506 CURVE SMOOTH",
"267 506 OFFCURVE",
"146 479 OFFCURVE",
"72 444 CURVE",
"128 305 LINE",
"195 333 OFFCURVE",
"278 352 OFFCURVE",
"342 352 CURVE SMOOTH",
"438 352 OFFCURVE",
"450 330 OFFCURVE",
"450 302 CURVE SMOOTH",
"450 197 LINE SMOOTH",
"450 155 OFFCURVE",
"397 128 OFFCURVE",
"330 128 CURVE SMOOTH",
"280 128 OFFCURVE",
"245 145 OFFCURVE",
"245 166 CURVE SMOOTH",
"245 195 OFFCURVE",
"315 204 OFFCURVE",
"418 204 CURVE SMOOTH",
"471 204 LINE",
"471 304 LINE",
"412 304 LINE SMOOTH",
"225 304 OFFCURVE",
"46 292 OFFCURVE",
"46 157 CURVE SMOOTH",
"46 61 OFFCURVE",
"147 -9 OFFCURVE",
"280 -9 CURVE SMOOTH"
);
}
);
width = 719;
},
{
anchors = (
{
name = bottom;
position = "{278, 0}";
},
{
name = ogonek;
position = "{486, 0}";
},
{
name = top;
position = "{283, 494}";
}
);
associatedMasterId = "4121B50C-FD42-45C5-8FBE-41E76D98F91E";
background = {
anchors = (
{
name = bottom;
position = "{278, 0}";
},
{
name = ogonek;
position = "{486, 0}";
},
{
name = top;
position = "{283, 494}";
}
);
paths = (
{
closed = 1;
nodes = (
"275 -9 OFFCURVE",
"322 30 OFFCURVE",
"330 90 CURVE",
"325 90 LINE",
"325 0 LINE",
"518 0 LINE",
"518 276 LINE SMOOTH",
"518 434 OFFCURVE",
"441 506 OFFCURVE",
"281 506 CURVE SMOOTH",
"200 506 OFFCURVE",
"101 479 OFFCURVE",
"42 444 CURVE",
"93 309 LINE",
"142 337 OFFCURVE",
"211 356 OFFCURVE",
"255 356 CURVE SMOOTH",
"305 356 OFFCURVE",
"322 346 OFFCURVE",
"322 306 CURVE SMOOTH",
"322 202 LINE SMOOTH",
"322 157 OFFCURVE",
"294 128 OFFCURVE",
"258 128 CURVE SMOOTH",
"234 128 OFFCURVE",
"219 146 OFFCURVE",
"219 169 CURVE SMOOTH",
"219 196 OFFCURVE",
"248 209 OFFCURVE",
"300 209 CURVE SMOOTH",
"341 209 LINE",
"341 300 LINE",
"294 300 LINE SMOOTH",
"99 300 OFFCURVE",
"22 260 OFFCURVE",
"22 155 CURVE SMOOTH",
"22 60 OFFCURVE",
"100 -9 OFFCURVE",
"205 -9 CURVE SMOOTH"
);
}
);
};
color = 11;
layerId = "D200CD17-29E7-4DDF-9668-3D8B72725EE2";
name = "Bold [177]";
paths = (
{
closed = 1;
nodes = (
"275 -9 OFFCURVE",
"322 30 OFFCURVE",
"330 90 CURVE",
"325 90 LINE",
"325 0 LINE",
"518 0 LINE",
"518 276 LINE SMOOTH",
"518 434 OFFCURVE",
"441 506 OFFCURVE",
"281 506 CURVE SMOOTH",
"200 506 OFFCURVE",
"101 479 OFFCURVE",
"42 444 CURVE",
"93 309 LINE",
"142 338 OFFCURVE",
"211 356 OFFCURVE",
"255 356 CURVE SMOOTH",
"305 356 OFFCURVE",
"322 343 OFFCURVE",
"322 306 CURVE SMOOTH",
"322 202 LINE SMOOTH",
"322 157 OFFCURVE",
"294 128 OFFCURVE",
"258 128 CURVE SMOOTH",
"234 128 OFFCURVE",
"219 146 OFFCURVE",
"219 169 CURVE SMOOTH",
"219 196 OFFCURVE",
"248 209 OFFCURVE",
"300 209 CURVE SMOOTH",
"341 209 LINE",
"341 300 LINE",
"294 300 LINE SMOOTH",
"99 300 OFFCURVE",
"22 260 OFFCURVE",
"22 155 CURVE SMOOTH",
"22 60 OFFCURVE",
"100 -9 OFFCURVE",
"205 -9 CURVE SMOOTH"
);
}
);
width = 560;
}
);
leftKerningGroup = a;
rightKerningGroup = n;
rightMetricsKey = n;
unicode = 0061;
userData = {
anchors = (
);
b = {
};
com.typemytype.robofont.layerData = {
b = {
anchors = (
);
components = (
);
contours = (
);
lib = {
};
name = a;
unicodes = (
);
width = 1040;
};
};
components = (
);
contours = (
);
lib = {
};
name = a;
unicodes = (
);
width = 1101;
};
},
{
color = 3;
glyphname = ae;
lastChange = "2019-07-17 15:12:59 +0000";
layers = (
{
anchors = (
{
name = bottom;
position = "{547, 0}";
},
{
name = top;
position = "{547, 484}";
}
);
background = {
anchors = (
{
name = bottom;
position = "{1216, 0}";
},
{
name = top;
position = "{1216, 484}";
}
);
paths = (
{
closed = 1;
nodes = (
"809 238 LINE",
"809 264 LINE SMOOTH",
"809 410 OFFCURVE",
"737 496 OFFCURVE",
"616 496 CURVE SMOOTH",
"520 496 OFFCURVE",
"449 448 OFFCURVE",
"416 363 CURVE",
"436 360 LINE",
"423 449 OFFCURVE",
"367 496 OFFCURVE",
"267 496 CURVE SMOOTH",
"202 496 OFFCURVE",
"131 474 OFFCURVE",
"82 438 CURVE",
"102 402 LINE",
"161 438 OFFCURVE",
"213 455 OFFCURVE",
"273 455 CURVE SMOOTH",
"357 455 OFFCURVE",
"393 413 OFFCURVE",
"393 314 CURVE SMOOTH",
"393 209 LINE SMOOTH",
"393 106 OFFCURVE",
"327 35 OFFCURVE",
"235 35 CURVE SMOOTH",
"162 35 OFFCURVE",
"110 78 OFFCURVE",
"110 140 CURVE SMOOTH",
"110 218 OFFCURVE",
"166 238 OFFCURVE",
"374 238 CURVE SMOOTH",
"404 238 LINE",
"404 277 LINE",
"373 277 LINE SMOOTH",
"135 277 OFFCURVE",
"61 244 OFFCURVE",
"62 136 CURVE SMOOTH",
"63 54 OFFCURVE",
"138 -7 OFFCURVE",
"234 -7 CURVE SMOOTH",
"336 -7 OFFCURVE",
"405 58 OFFCURVE",
"421 161 CURVE",
"404 160 LINE",
"430 51 OFFCURVE",
"508 -7 OFFCURVE",
"624 -7 CURVE SMOOTH",
"692 -7 OFFCURVE",
"761 19 OFFCURVE",
"801 61 CURVE",
"781 97 LINE",
"729 53 OFFCURVE",
"679 34 OFFCURVE",
"620 34 CURVE SMOOTH",
"502 34 OFFCURVE",
"437 110 OFFCURVE",
"437 244 CURVE SMOOTH",
"437 377 OFFCURVE",
"503 457 OFFCURVE",
"612 457 CURVE SMOOTH",
"717 457 OFFCURVE",
"773 384 OFFCURVE",
"769 253 CURVE",
"786 277 LINE",
"428 277 LINE",
"428 238 LINE"
);
}
);
};
layerId = "F1F93986-3ED8-4AAE-84C4-CA3EEECDDFA0";
paths = (
{
closed = 1;
nodes = (
"1063 238 LINE",
"1063 264 LINE SMOOTH",
"1063 410 OFFCURVE",
"969 496 OFFCURVE",
"813 496 CURVE SMOOTH",
"684 496 OFFCURVE",
"590 448 OFFCURVE",
"547 363 CURVE",
"572 360 LINE",
"557 446 OFFCURVE",
"493 496 OFFCURVE",
"356 496 CURVE SMOOTH",
"271 496 OFFCURVE",
"180 474 OFFCURVE",
"114 438 CURVE",
"139 401 LINE",
"214 440 OFFCURVE",
"279 455 OFFCURVE",
"361 455 CURVE SMOOTH",
"490 455 OFFCURVE",
"524 394 OFFCURVE",
"524 314 CURVE SMOOTH",
"524 209 LINE SMOOTH",
"524 106 OFFCURVE",
"437 34 OFFCURVE",
"309 34 CURVE SMOOTH",
"203 34 OFFCURVE",
"136 78 OFFCURVE",
"136 140 CURVE SMOOTH",
"136 236 OFFCURVE",
"284 238 OFFCURVE",
"479 238 CURVE SMOOTH",
"536 238 LINE",
"536 276 LINE",
"477 276 LINE SMOOTH",
"251 276 OFFCURVE",
"88 265 OFFCURVE",
"88 136 CURVE SMOOTH",
"88 56 OFFCURVE",
"184 -7 OFFCURVE",
"307 -7 CURVE SMOOTH",
"441 -7 OFFCURVE",
"536 58 OFFCURVE",
"556 161 CURVE",
"533 160 LINE",
"566 51 OFFCURVE",
"668 -7 OFFCURVE",
"821 -7 CURVE SMOOTH",
"914 -7 OFFCURVE",
"1004 21 OFFCURVE",
"1052 61 CURVE",
"1029 97 LINE",
"959 53 OFFCURVE",
"895 34 OFFCURVE",
"814 34 CURVE SMOOTH",
"657 34 OFFCURVE",
"568 110 OFFCURVE",
"568 244 CURVE SMOOTH",
"568 376 OFFCURVE",
"659 457 OFFCURVE",
"806 457 CURVE SMOOTH",
"951 457 OFFCURVE",
"1022 382 OFFCURVE",
"1020 264 CURVE",
"1041 276 LINE",
"557 276 LINE",
"557 238 LINE"
);
}
);
width = 1129;
},
{
anchors = (
{
name = bottom;
position = "{545, 0}";
},
{
name = top;
position = "{545, 484}";
}
);
background = {
anchors = (
{
name = bottom;
position = "{414, 0}";
},
{
name = top;
position = "{414, 484}";
}
);
paths = (
{
closed = 1;
nodes = (
"801 202 LINE",
"801 249 LINE SMOOTH",
"801 407 OFFCURVE",
"715 506 OFFCURVE",
"581 506 CURVE SMOOTH",
"512 506 OFFCURVE",
"454 486 OFFCURVE",
"411 438 CURVE",
"452 439 LINE",
"414 488 OFFCURVE",
"358 506 OFFCURVE",
"276 506 CURVE SMOOTH",
"200 506 OFFCURVE",
"102 479 OFFCURVE",
"42 444 CURVE",
"93 305 LINE",
"142 333 OFFCURVE",
"198 352 OFFCURVE",
"250 352 CURVE SMOOTH",
"299 352 OFFCURVE",
"317 338 OFFCURVE",
"317 304 CURVE SMOOTH",
"317 195 LINE SMOOTH",
"317 159 OFFCURVE",
"295 128 OFFCURVE",
"262 128 CURVE SMOOTH",
"236 128 OFFCURVE",
"219 142 OFFCURVE",
"219 166 CURVE SMOOTH",
"219 191 OFFCURVE",
"247 204 OFFCURVE",
"301 204 CURVE SMOOTH",
"333 204 LINE",
"333 304 LINE",
"288 304 LINE SMOOTH",
"98 304 OFFCURVE",
"22 263 OFFCURVE",
"22 157 CURVE SMOOTH",
"22 60 OFFCURVE",
"109 -9 OFFCURVE",
"228 -9 CURVE SMOOTH",
"315 -9 OFFCURVE",
"381 29 OFFCURVE",
"410 103 CURVE",
"382 99 LINE",
"425 28 OFFCURVE",
"506 -9 OFFCURVE",
"612 -9 CURVE SMOOTH",
"676 -9 OFFCURVE",
"746 13 OFFCURVE",
"793 48 CURVE",
"743 183 LINE",
"708 158 OFFCURVE",
"659 143 OFFCURVE",
"614 143 CURVE SMOOTH",
"546 143 OFFCURVE",
"515 171 OFFCURVE",
"515 272 CURVE SMOOTH",
"515 338 OFFCURVE",
"533 370 OFFCURVE",
"574 370 CURVE SMOOTH",
"610 370 OFFCURVE",
"627 345 OFFCURVE",
"629 289 CURVE",
"676 303 LINE",
"505 303 LINE",
"505 202 LINE"
);
}
);
};
color = 11;
layerId = "4121B50C-FD42-45C5-8FBE-41E76D98F91E";
paths = (
{
closed = 1;
nodes = (
"1055 202 LINE",
"1055 249 LINE SMOOTH",
"1055 407 OFFCURVE",
"947 506 OFFCURVE",
"778 506 CURVE SMOOTH",
"676 506 OFFCURVE",
"595 486 OFFCURVE",
"542 438 CURVE",
"588 439 LINE",
"549 486 OFFCURVE",
"480 506 OFFCURVE",
"361 506 CURVE SMOOTH",
"267 506 OFFCURVE",
"147 479 OFFCURVE",
"72 444 CURVE",
"128 305 LINE",
"195 333 OFFCURVE",
"266 352 OFFCURVE",
"338 352 CURVE SMOOTH",
"434 352 OFFCURVE",
"447 327 OFFCURVE",
"447 304 CURVE SMOOTH",
"447 195 LINE SMOOTH",
"447 159 OFFCURVE",
"401 128 OFFCURVE",
"335 128 CURVE SMOOTH",
"281 128 OFFCURVE",
"245 142 OFFCURVE",
"245 166 CURVE SMOOTH",
"245 191 OFFCURVE",
"300 204 OFFCURVE",
"419 204 CURVE SMOOTH",
"465 204 LINE",
"465 304 LINE",
"406 304 LINE SMOOTH",
"220 304 OFFCURVE",
"46 288 OFFCURVE",
"46 157 CURVE SMOOTH",
"46 60 OFFCURVE",
"156 -9 OFFCURVE",
"302 -9 CURVE SMOOTH",
"421 -9 OFFCURVE",
"511 29 OFFCURVE",
"544 103 CURVE",
"511 99 LINE",
"561 28 OFFCURVE",
"666 -9 OFFCURVE",
"809 -9 CURVE SMOOTH",
"897 -9 OFFCURVE",
"988 14 OFFCURVE",
"1044 48 CURVE",
"991 183 LINE",
"938 158 OFFCURVE",
"873 143 OFFCURVE",
"808 143 CURVE SMOOTH",
"701 143 OFFCURVE",
"646 171 OFFCURVE",
"646 272 CURVE SMOOTH",
"646 337 OFFCURVE",
"689 370 OFFCURVE",
"768 370 CURVE SMOOTH",
"845 370 OFFCURVE",
"880 342 OFFCURVE",
"880 289 CURVE",
"931 303 LINE",
"634 303 LINE",
"634 202 LINE"
);
}
);
width = 1093;
},
{
anchors = (
{
name = bottom;
position = "{414, 0}";
},
{
name = top;
position = "{414, 494}";
}
);
associatedMasterId = "4121B50C-FD42-45C5-8FBE-41E76D98F91E";
background = {
anchors = (
{
name = bottom;
position = "{414, 0}";
},
{
name = top;
position = "{414, 494}";
}
);
paths = (
{
closed = 1;
nodes = (
"270 -9 OFFCURVE",
"317 30 OFFCURVE",
"325 90 CURVE",
"320 90 LINE",
"320 0 LINE",
"513 0 LINE",
"513 276 LINE SMOOTH",
"513 434 OFFCURVE",
"436 506 OFFCURVE",
"276 506 CURVE SMOOTH",
"195 506 OFFCURVE",
"96 479 OFFCURVE",
"37 444 CURVE",
"88 309 LINE",
"137 338 OFFCURVE",
"206 356 OFFCURVE",
"250 356 CURVE SMOOTH",
"300 356 OFFCURVE",
"317 343 OFFCURVE",
"317 306 CURVE SMOOTH",
"317 202 LINE SMOOTH",
"317 157 OFFCURVE",
"289 128 OFFCURVE",
"253 128 CURVE SMOOTH",
"229 128 OFFCURVE",
"214 146 OFFCURVE",
"214 169 CURVE SMOOTH",
"214 196 OFFCURVE",
"243 209 OFFCURVE",
"295 209 CURVE SMOOTH",
"336 209 LINE",
"336 300 LINE",
"289 300 LINE SMOOTH",
"94 300 OFFCURVE",
"17 260 OFFCURVE",
"17 155 CURVE SMOOTH",
"17 60 OFFCURVE",
"95 -9 OFFCURVE",
"200 -9 CURVE SMOOTH"
);
}
);
};
color = 11;
layerId = "FEBA298E-5D66-484A-843B-B9E14629DD9D";
name = "Bold [177]";
paths = (
{
closed = 1;
nodes = (
"801 209 LINE",
"801 249 LINE SMOOTH",
"801 407 OFFCURVE",
"715 506 OFFCURVE",
"581 506 CURVE SMOOTH",
"512 506 OFFCURVE",
"454 486 OFFCURVE",
"411 438 CURVE",
"452 439 LINE",
"414 488 OFFCURVE",
"358 506 OFFCURVE",
"276 506 CURVE SMOOTH",
"200 506 OFFCURVE",
"102 479 OFFCURVE",
"42 444 CURVE",
"93 309 LINE",
"142 337 OFFCURVE",
"210 356 OFFCURVE",
"254 356 CURVE SMOOTH",
"303 356 OFFCURVE",
"317 342 OFFCURVE",
"317 308 CURVE SMOOTH",
"317 199 LINE SMOOTH",
"317 161 OFFCURVE",
"295 128 OFFCURVE",
"262 128 CURVE SMOOTH",
"236 128 OFFCURVE",
"219 143 OFFCURVE",
"219 169 CURVE SMOOTH",
"219 195 OFFCURVE",
"247 209 OFFCURVE",
"301 209 CURVE SMOOTH",
"333 209 LINE",
"333 300 LINE",
"288 300 LINE SMOOTH",
"98 300 OFFCURVE",
"23 260 OFFCURVE",
"22 155 CURVE SMOOTH",
"22 59 OFFCURVE",
"109 -9 OFFCURVE",
"228 -9 CURVE SMOOTH",
"315 -9 OFFCURVE",
"381 29 OFFCURVE",
"410 103 CURVE",
"382 99 LINE",
"425 28 OFFCURVE",
"506 -9 OFFCURVE",
"612 -9 CURVE SMOOTH",
"676 -9 OFFCURVE",
"746 13 OFFCURVE",
"793 48 CURVE",
"743 183 LINE",
"708 158 OFFCURVE",
"657 142 OFFCURVE",
"622 142 CURVE SMOOTH",
"543 142 OFFCURVE",
"514 171 OFFCURVE",
"514 257 CURVE SMOOTH",
"514 339 OFFCURVE",
"533 372 OFFCURVE",
"574 372 CURVE SMOOTH",
"610 372 OFFCURVE",
"627 346 OFFCURVE",
"629 290 CURVE",
"676 300 LINE",
"505 300 LINE",
"505 209 LINE"
);
}
);
width = 821;
}
);
leftKerningGroup = a;
leftMetricsKey = a;
rightKerningGroup = e;
rightMetricsKey = e;
unicode = 00E6;
userData = {
com.typemytype.robofont.layerData = {
b = {
anchors = (
);
components = (
);
contours = (
);
lib = {
};
name = ae;
unicodes = (
);
width = 1734;
};
};
};
},
{
color = 3;
glyphname = a.ss01;
lastChange = "2019-07-17 15:12:59 +0000";
layers = (
{
anchors = (
{
name = bottom;
position = "{363, 0}";
},
{
name = ogonek;
position = "{625, 0}";
},
{
name = top;
position = "{363, 484}";
}
);
background = {
anchors = (
{
name = bottom;
position = "{279, 0}";
},
{
name = ogonek;
position = "{481, 0}";
},
{
name = top;
position = "{279, 484}";
}
);
paths = (
{
closed = 1;
nodes = (
"363 -7 OFFCURVE",
"428 42 OFFCURVE",
"450 131 CURVE",
"439 139 LINE",
"439 0 LINE",
"481 0 LINE",
"481 484 LINE",
"439 484 LINE",
"439 351 LINE",
"450 360 LINE",
"428 447 OFFCURVE",
"363 496 OFFCURVE",
"269 496 CURVE SMOOTH",
"139 496 OFFCURVE",
"53 395 OFFCURVE",
"53 243 CURVE SMOOTH",
"53 92 OFFCURVE",
"138 -7 OFFCURVE",
"269 -7 CURVE SMOOTH"
);
},
{
closed = 1;
nodes = (
"161 34 OFFCURVE",
"98 111 OFFCURVE",
"98 243 CURVE SMOOTH",
"98 376 OFFCURVE",
"162 455 OFFCURVE",
"269 455 CURVE SMOOTH",
"378 455 OFFCURVE",
"439 380 OFFCURVE",
"439 245 CURVE SMOOTH",
"439 111 OFFCURVE",
"378 34 OFFCURVE",
"270 34 CURVE SMOOTH"
);
}
);
};
layerId = "F1F93986-3ED8-4AAE-84C4-CA3EEECDDFA0";
paths = (
{
closed = 1;
nodes = (
"479 -7 OFFCURVE",
"566 42 OFFCURVE",
"594 131 CURVE",
"581 139 LINE",
"581 0 LINE",
"623 0 LINE",
"623 484 LINE",
"581 484 LINE",
"581 351 LINE",
"594 360 LINE",
"566 447 OFFCURVE",
"478 496 OFFCURVE",
"355 496 CURVE SMOOTH",
"186 496 OFFCURVE",
"72 395 OFFCURVE",
"72 243 CURVE SMOOTH",
"72 92 OFFCURVE",
"185 -7 OFFCURVE",
"355 -7 CURVE SMOOTH"
);
},
{
closed = 1;
nodes = (
"204 34 OFFCURVE",
"118 111 OFFCURVE",
"118 243 CURVE SMOOTH",
"118 376 OFFCURVE",
"206 455 OFFCURVE",
"350 455 CURVE SMOOTH",
"497 455 OFFCURVE",
"581 380 OFFCURVE",
"581 245 CURVE SMOOTH",
"581 111 OFFCURVE",
"497 34 OFFCURVE",
"351 34 CURVE SMOOTH"
);
}
);
width = 738;
},
{
anchors = (
{
name = bottom;
position = "{404, 0}";
},
{
name = ogonek;
position = "{712, 0}";
},
{
name = top;
position = "{404, 484}";
}
);
background = {
anchors = (
{
name = bottom;
position = "{320, 0}";
},
{
name = ogonek;
position = "{566, 0}";
},
{
name = top;
position = "{320, 484}";
}
);
paths = (
{
closed = 1;
nodes = (
"318 -9 OFFCURVE",
"382 27 OFFCURVE",
"404 80 CURVE",
"393 79 LINE",
"393 0 LINE",
"598 0 LINE",
"598 494 LINE",
"393 494 LINE",
"393 409 LINE",
"404 417 LINE",
"382 470 OFFCURVE",
"318 506 OFFCURVE",
"246 506 CURVE SMOOTH",
"118 506 OFFCURVE",
"28 399 OFFCURVE",
"28 246 CURVE SMOOTH",
"28 94 OFFCURVE",
"116 -9 OFFCURVE",
"246 -9 CURVE SMOOTH"
);
},
{
closed = 1;
nodes = (
"261 145 OFFCURVE",
"233 180 OFFCURVE",
"233 246 CURVE SMOOTH",
"233 314 OFFCURVE",
"262 353 OFFCURVE",
"313 353 CURVE SMOOTH",
"364 353 OFFCURVE",
"393 315 OFFCURVE",
"393 248 CURVE SMOOTH",
"393 182 OFFCURVE",
"364 145 OFFCURVE",
"312 145 CURVE SMOOTH"
);
}
);
};
layerId = "4121B50C-FD42-45C5-8FBE-41E76D98F91E";
paths = (
{
closed = 1;
nodes = (
"433 -9 OFFCURVE",
"520 27 OFFCURVE",
"548 80 CURVE",
"535 79 LINE",
"535 0 LINE",
"740 0 LINE",
"740 494 LINE",
"535 494 LINE",
"535 409 LINE",
"548 417 LINE",
"520 470 OFFCURVE",
"433 506 OFFCURVE",
"332 506 CURVE SMOOTH",
"163 506 OFFCURVE",
"43 399 OFFCURVE",
"43 246 CURVE SMOOTH",
"43 94 OFFCURVE",
"161 -9 OFFCURVE",
"332 -9 CURVE SMOOTH"
);
},
{
closed = 1;
nodes = (
"304 145 OFFCURVE",
"253 180 OFFCURVE",
"253 246 CURVE SMOOTH",
"253 314 OFFCURVE",
"306 353 OFFCURVE",
"394 353 CURVE SMOOTH",
"483 353 OFFCURVE",
"535 315 OFFCURVE",
"535 248 CURVE SMOOTH",
"535 182 OFFCURVE",
"483 145 OFFCURVE",
"393 145 CURVE SMOOTH"
);
}
);
width = 814;
}
);
leftKerningGroup = o;
leftMetricsKey = o;
rightKerningGroup = u;
rightMetricsKey = "=|n";
userData = {
anchors = (
);
b = {
};
com.typemytype.robofont.layerData = {
b = {
anchors = (
);
components = (
);
contours = (
);
lib = {
};
name = p;
unicodes = (
);
width = 1181;
};
};
components = (
);
contours = (
);
lib = {
};
name = p;
unicodes = (
);
width = 1207;
};
},
{
color = 3;
glyphname = b;
lastChange = "2019-07-17 15:12:59 +0000";
layers = (
{
anchors = (
{
name = bottom;
position = "{405, 0}";
},
{
name = top;
position = "{479, 484}";
}
);
background = {
anchors = (
{
name = bottom;
position = "{308, 0}";
},
{
name = top;
position = "{365, 484}";
}
);
paths = (
{
closed = 1;
nodes = (
"204 496 OFFCURVE",
"139 448 OFFCURVE",
"116 361 CURVE",
"127 346 LINE",
"127 705 LINE",
"85 705 LINE",
"85 0 LINE",
"127 0 LINE",
"127 143 LINE",
"116 128 LINE",
"140 41 OFFCURVE",
"204 -7 OFFCURVE",
"297 -7 CURVE SMOOTH",
"426 -7 OFFCURVE",
"513 94 OFFCURVE",
"513 247 CURVE SMOOTH",
"513 398 OFFCURVE",
"427 496 OFFCURVE",
"297 496 CURVE SMOOTH"
);
},
{
closed = 1;
nodes = (
"187 34 OFFCURVE",
"127 111 OFFCURVE",
"127 245 CURVE SMOOTH",
"127 378 OFFCURVE",
"187 455 OFFCURVE",
"296 455 CURVE SMOOTH",
"404 455 OFFCURVE",
"467 379 OFFCURVE",
"467 247 CURVE SMOOTH",
"467 113 OFFCURVE",
"404 34 OFFCURVE",
"297 34 CURVE SMOOTH"
);
}
);
};
layerId = "F1F93986-3ED8-4AAE-84C4-CA3EEECDDFA0";
paths = (
{
closed = 1;
nodes = (
"260 496 OFFCURVE",
"173 448 OFFCURVE",
"142 361 CURVE",
"157 346 LINE",
"157 705 LINE",
"115 705 LINE",
"115 0 LINE",
"157 0 LINE",
"157 143 LINE",
"142 128 LINE",
"175 41 OFFCURVE",
"259 -7 OFFCURVE",
"382 -7 CURVE SMOOTH",
"551 -7 OFFCURVE",
"666 94 OFFCURVE",
"666 247 CURVE SMOOTH",
"666 398 OFFCURVE",
"552 496 OFFCURVE",
"382 496 CURVE SMOOTH"
);
},
{
closed = 1;
nodes = (
"240 34 OFFCURVE",
"157 111 OFFCURVE",
"157 245 CURVE SMOOTH",
"157 378 OFFCURVE",
"240 455 OFFCURVE",
"387 455 CURVE SMOOTH",
"532 455 OFFCURVE",
"619 379 OFFCURVE",
"619 247 CURVE SMOOTH",
"619 113 OFFCURVE",
"532 34 OFFCURVE",
"389 34 CURVE SMOOTH"
);
}
);
width = 738;
},
{
anchors = (
{
name = bottom;
position = "{405, 0}";
},
{
name = top;
position = "{479, 484}";
}
);
background = {
anchors = (
{
name = bottom;
position = "{308, 0}";
},
{
name = top;
position = "{365, 484}";
}
);
paths = (
{
closed = 1;
nodes = (
"326 506 OFFCURVE",
"261 470 OFFCURVE",
"240 421 CURVE",
"252 398 LINE",
"252 705 LINE",
"44 705 LINE",
"44 0 LINE",
"249 0 LINE",
"249 104 LINE",
"238 83 LINE",
"257 29 OFFCURVE",
"323 -9 OFFCURVE",
"396 -9 CURVE SMOOTH",
"522 -9 OFFCURVE",
"614 97 OFFCURVE",
"614 252 CURVE SMOOTH",
"614 407 OFFCURVE",
"523 506 OFFCURVE",
"396 506 CURVE SMOOTH"
);
},
{
closed = 1;
nodes = (
"279 145 OFFCURVE",
"249 181 OFFCURVE",
"249 250 CURVE SMOOTH",
"249 317 OFFCURVE",
"279 353 OFFCURVE",
"330 353 CURVE SMOOTH",
"381 353 OFFCURVE",
"409 318 OFFCURVE",
"409 252 CURVE SMOOTH",
"409 183 OFFCURVE",
"379 145 OFFCURVE",
"329 145 CURVE SMOOTH"
);
}
);
};
layerId = "4121B50C-FD42-45C5-8FBE-41E76D98F91E";
paths = (
{
closed = 1;
nodes = (
"382 506 OFFCURVE",
"295 470 OFFCURVE",
"266 421 CURVE",
"282 398 LINE",
"282 705 LINE",
"74 705 LINE",
"74 0 LINE",
"279 0 LINE",
"279 104 LINE",
"264 83 LINE",
"292 29 OFFCURVE",
"378 -9 OFFCURVE",
"481 -9 CURVE SMOOTH",
"649 -9 OFFCURVE",
"771 97 OFFCURVE",
"771 252 CURVE SMOOTH",
"771 407 OFFCURVE",
"650 506 OFFCURVE",
"481 506 CURVE SMOOTH"
);
},
{
closed = 1;
nodes = (
"332 145 OFFCURVE",
"279 181 OFFCURVE",
"279 250 CURVE SMOOTH",
"279 317 OFFCURVE",
"332 353 OFFCURVE",
"421 353 CURVE SMOOTH",
"508 353 OFFCURVE",
"560 318 OFFCURVE",
"560 252 CURVE SMOOTH",
"560 183 OFFCURVE",
"506 145 OFFCURVE",
"420 145 CURVE SMOOTH"
);
}
);
width = 814;
}
);
leftKerningGroup = h;
leftMetricsKey = n;
rightKerningGroup = o;
rightMetricsKey = o;
unicode = 0062;
userData = {
anchors = (
);
b = {
};
com.typemytype.robofont.layerData = {
b = {
anchors = (
);
components = (
);
contours = (
{
points = (
{
segmentType = curve;
smooth = 1;
x = 238;
y = 1425;
},
{
smooth = 0;
x = 198;
y = 1425;
},
{
smooth = 0;
x = 158;
y = 1400;
},
{
segmentType = curve;
smooth = 1;
x = 158;
y = 1351;
},
{
segmentType = line;
smooth = 1;
x = 158;
y = 76;
},
{
smooth = 0;
x = 158;
y = 27;
},
{
smooth = 0;
x = 197;
y = 3;
},
{
segmentType = curve;
smooth = 1;
x = 237;
y = 3;
},
{
smooth = 0;
x = 297;
y = 3;
},
{
smooth = 0;
x = 318;
y = 38;
},
{
segmentType = curve;
smooth = 1;
x = 318;
y = 76;
},
{
segmentType = line;
smooth = 0;
x = 318;
y = 183;
},
{
smooth = 0;
x = 384;
y = 46;
},
{
smooth = 0;
x = 516;
y = "-20";
},
{
segmentType = curve;
smooth = 1;
x = 666;
y = "-20";
},
{
smooth = 0;
x = 957;
y = "-20";
},
{
smooth = 0;
x = 1095;
y = 225;
},
{
segmentType = curve;
smooth = 1;
x = 1095;
y = 502;
},
{
smooth = 0;
x = 1095;
y = 777;
},
{
smooth = 0;
x = 939;
y = 1013;
},
{
segmentType = curve;
smooth = 1;
x = 650;
y = 1013;
},
{
smooth = 0;
x = 503;
y = 1013;
},
{
smooth = 0;
x = 376;
y = 942;
},
{
segmentType = curve;
smooth = 0;
x = 318;
y = 814;
},
{
segmentType = line;
smooth = 1;
x = 318;
y = 1351;
},
{
smooth = 0;
x = 318;
y = 1400;
},
{
smooth = 0;
x = 278;
y = 1425;
}
);
},
{
points = (
{
segmentType = curve;
smooth = 1;
x = 632;
y = 903;
},
{
smooth = 0;
x = 859;
y = 903;
},
{
smooth = 0;
x = 935;
y = 685;
},
{
segmentType = curve;
smooth = 1;
x = 935;
y = 496;
},
{
smooth = 0;
x = 935;
y = 316;
},
{
smooth = 0;
x = 869;
y = 93;
},
{
segmentType = curve;
smooth = 0;
x = 645;
y = 90;
},
{
smooth = 0;
x = 395;
y = 90;
},
{
smooth = 0;
x = 319;
y = 279;
},
{
segmentType = curve;
smooth = 1;
x = 319;
y = 501;
},
{
smooth = 0;
x = 319;
y = 701;
},
{
smooth = 0;
x = 407;
y = 903;
}
);
}
);
lib = {
};
name = b;
unicodes = (
);
width = 1181;
};
};
components = (
);
contours = (
);
lib = {
};
name = b;
unicodes = (
);
width = 1203;
};
},
{
color = 3;
glyphname = c;
lastChange = "2019-07-17 15:12:59 +0000";
layers = (
{
anchors = (
{
name = bottom;
position = "{356, 0}";
},
{
name = top;
position = "{356, 484}";
}
);
background = {
anchors = (
{
name = bottom;
position = "{273, 0}";
},
{
name = top;
position = "{273, 484}";
}
);
paths = (
{
closed = 1;
nodes = (
"338 -7 OFFCURVE",
"402 18 OFFCURVE",
"441 59 CURVE",
"421 94 LINE",
"374 51 OFFCURVE",
"327 34 OFFCURVE",
"276 34 CURVE SMOOTH",
"165 34 OFFCURVE",
"98 111 OFFCURVE",
"98 242 CURVE SMOOTH",
"98 375 OFFCURVE",
"166 455 OFFCURVE",
"277 455 CURVE SMOOTH",
"327 455 OFFCURVE",
"375 439 OFFCURVE",
"421 395 CURVE",
"441 431 LINE",
"404 471 OFFCURVE",
"341 496 OFFCURVE",
"276 496 CURVE SMOOTH",
"140 496 OFFCURVE",
"53 394 OFFCURVE",
"53 243 CURVE SMOOTH",
"53 93 OFFCURVE",
"140 -7 OFFCURVE",
"275 -7 CURVE SMOOTH"
);
}
);
};
layerId = "F1F93986-3ED8-4AAE-84C4-CA3EEECDDFA0";
paths = (
{
closed = 1;
nodes = (
"441 -7 OFFCURVE",
"523 18 OFFCURVE",
"573 59 CURVE",
"550 94 LINE",
"487 51 OFFCURVE",
"425 34 OFFCURVE",
"358 34 CURVE SMOOTH",
"209 34 OFFCURVE",
"118 111 OFFCURVE",
"118 242 CURVE SMOOTH",
"118 375 OFFCURVE",
"210 455 OFFCURVE",
"359 455 CURVE SMOOTH",
"425 455 OFFCURVE",
"488 439 OFFCURVE",
"550 395 CURVE",
"573 431 LINE",
"525 471 OFFCURVE",
"445 496 OFFCURVE",
"359 496 CURVE SMOOTH",
"184 496 OFFCURVE",
"72 393 OFFCURVE",
"72 243 CURVE SMOOTH",
"72 93 OFFCURVE",
"186 -7 OFFCURVE",
"358 -7 CURVE SMOOTH"
);
}
);
width = 615;
},
{
anchors = (
{
name = bottom;
position = "{382, 0}";
},
{
name = top;
position = "{382, 484}";
}
);
background = {
anchors = (
{
name = bottom;
position = "{299, 0}";
},
{
name = top;
position = "{299, 484}";
}
);
paths = (
{
closed = 1;
nodes = (
"384 -9 OFFCURVE",
"461 13 OFFCURVE",
"507 49 CURVE",
"456 189 LINE",
"424 164 OFFCURVE",
"372 146 OFFCURVE",
"333 146 CURVE SMOOTH",
"269 146 OFFCURVE",
"237 181 OFFCURVE",
"237 251 CURVE SMOOTH",
"237 318 OFFCURVE",
"268 351 OFFCURVE",
"333 351 CURVE SMOOTH",
"373 351 OFFCURVE",
"423 334 OFFCURVE",
"456 309 CURVE",
"507 449 LINE",
"464 483 OFFCURVE",
"385 506 OFFCURVE",
"311 506 CURVE SMOOTH",
"138 506 OFFCURVE",
"24 402 OFFCURVE",
"24 246 CURVE SMOOTH",
"24 87 OFFCURVE",
"128 -9 OFFCURVE",
"302 -9 CURVE SMOOTH"
);
}
);
};
layerId = "4121B50C-FD42-45C5-8FBE-41E76D98F91E";
paths = (
{
closed = 1;
nodes = (
"485 -9 OFFCURVE",
"582 13 OFFCURVE",
"639 49 CURVE",
"585 189 LINE",
"537 164 OFFCURVE",
"469 146 OFFCURVE",
"415 146 CURVE SMOOTH",
"316 146 OFFCURVE",
"257 181 OFFCURVE",
"257 251 CURVE SMOOTH",
"257 318 OFFCURVE",
"315 351 OFFCURVE",
"415 351 CURVE SMOOTH",
"471 351 OFFCURVE",
"536 334 OFFCURVE",
"585 309 CURVE",
"639 449 LINE",
"585 483 OFFCURVE",
"489 506 OFFCURVE",
"394 506 CURVE SMOOTH",
"183 506 OFFCURVE",
"43 402 OFFCURVE",
"43 246 CURVE SMOOTH",
"43 87 OFFCURVE",
"174 -9 OFFCURVE",
"385 -9 CURVE SMOOTH"
);
}
);
width = 652;
}
);
leftKerningGroup = o;
leftMetricsKey = o;
rightKerningGroup = c;
unicode = 0063;
userData = {
anchors = (
);
b = {
};
com.typemytype.robofont.layerData = {
b = {
anchors = (
);
components = (
);
contours = (
);
lib = {
};
name = c;
unicodes = (
);
width = 956.14099;
};
};
components = (
);
contours = (
);
lib = {
};
name = c;
unicodes = (
);
width = 992;
};
},
{
color = 3;
glyphname = d;
lastChange = "2019-07-17 15:12:59 +0000";
layers = (
{
anchors = (
{
name = bottom;
position = "{373, 0}";
},
{
name = center;
position = "{373, 245}";
},
{
name = stroke;
position = "{534, 580}";
},
{
name = top;
position = "{373, 484}";
},
{
name = topright;
position = "{677, 705}";
}
);
background = {
anchors = (
{
name = bottom;
position = "{286, 0}";
},
{
name = center;
position = "{286, 245}";
},
{
name = stroke;
position = "{409, 580}";
},
{
name = top;
position = "{286, 484}";
},
{
name = topright;
position = "{518, 705}";
}
);
paths = (
{
closed = 1;
nodes = (
"439 346 LINE",
"450 361 LINE",
"427 448 OFFCURVE",
"362 496 OFFCURVE",
"269 496 CURVE SMOOTH",
"139 496 OFFCURVE",
"53 398 OFFCURVE",
"53 247 CURVE SMOOTH",
"53 94 OFFCURVE",
"140 -7 OFFCURVE",
"269 -7 CURVE SMOOTH",
"361 -7 OFFCURVE",
"426 41 OFFCURVE",
"450 128 CURVE",
"439 143 LINE",
"439 0 LINE",
"481 0 LINE",
"481 705 LINE",
"439 705 LINE"
);
},
{
closed = 1;
nodes = (
"162 34 OFFCURVE",
"98 113 OFFCURVE",
"98 247 CURVE SMOOTH",
"98 379 OFFCURVE",
"162 455 OFFCURVE",
"270 455 CURVE SMOOTH",
"378 455 OFFCURVE",
"439 378 OFFCURVE",
"439 245 CURVE SMOOTH",
"439 111 OFFCURVE",
"378 34 OFFCURVE",
"269 34 CURVE SMOOTH"
);
}
);
};
layerId = "F1F93986-3ED8-4AAE-84C4-CA3EEECDDFA0";
paths = (
{
closed = 1;
nodes = (
"581 346 LINE",
"594 361 LINE",
"564 448 OFFCURVE",
"478 496 OFFCURVE",
"355 496 CURVE SMOOTH",
"186 496 OFFCURVE",
"72 398 OFFCURVE",
"72 247 CURVE SMOOTH",
"72 94 OFFCURVE",
"187 -7 OFFCURVE",
"355 -7 CURVE SMOOTH",
"476 -7 OFFCURVE",
"563 41 OFFCURVE",
"594 128 CURVE",
"581 143 LINE",
"581 0 LINE",
"623 0 LINE",
"623 705 LINE",
"581 705 LINE"
);
},
{
closed = 1;
nodes = (
"206 34 OFFCURVE",
"118 113 OFFCURVE",
"118 247 CURVE SMOOTH",
"118 379 OFFCURVE",
"206 455 OFFCURVE",
"351 455 CURVE SMOOTH",
"497 455 OFFCURVE",
"581 378 OFFCURVE",
"581 245 CURVE SMOOTH",
"581 111 OFFCURVE",
"497 34 OFFCURVE",
"350 34 CURVE SMOOTH"
);
}
);
width = 738;
},
{
anchors = (
{
name = bottom;
position = "{410, 0}";
},
{
name = center;
position = "{410, 250}";
},
{
name = stroke;
position = "{569, 595}";
},
{
name = top;
position = "{410, 484}";
},
{
name = topright;
position = "{783, 705}";
}
);
background = {
anchors = (
{
name = bottom;
position = "{323, 0}";
},
{
name = center;
position = "{323, 250}";
},
{
name = stroke;
position = "{444, 595}";
},
{
name = top;
position = "{323, 484}";
},
{
name = topright;
position = "{628, 705}";
}
);
paths = (
{
closed = 1;
nodes = (
"390 398 LINE",
"402 421 LINE",
"381 470 OFFCURVE",
"316 506 OFFCURVE",
"246 506 CURVE SMOOTH",
"119 506 OFFCURVE",
"28 407 OFFCURVE",
"28 252 CURVE SMOOTH",
"28 97 OFFCURVE",
"120 -9 OFFCURVE",
"246 -9 CURVE SMOOTH",
"319 -9 OFFCURVE",
"385 29 OFFCURVE",
"404 83 CURVE",
"393 104 LINE",
"393 0 LINE",
"598 0 LINE",
"598 705 LINE",
"390 705 LINE"
);
},
{
closed = 1;
nodes = (
"263 145 OFFCURVE",
"233 183 OFFCURVE",
"233 252 CURVE SMOOTH",
"233 318 OFFCURVE",
"261 353 OFFCURVE",
"312 353 CURVE SMOOTH",
"363 353 OFFCURVE",
"393 317 OFFCURVE",
"393 250 CURVE SMOOTH",
"393 181 OFFCURVE",
"363 145 OFFCURVE",
"313 145 CURVE SMOOTH"
);
}
);
};
layerId = "4121B50C-FD42-45C5-8FBE-41E76D98F91E";
paths = (
{
closed = 1;
nodes = (
"532 398 LINE",
"546 421 LINE",
"518 470 OFFCURVE",
"432 506 OFFCURVE",
"332 506 CURVE SMOOTH",
"164 506 OFFCURVE",
"43 407 OFFCURVE",
"43 252 CURVE SMOOTH",
"43 97 OFFCURVE",
"165 -9 OFFCURVE",
"332 -9 CURVE SMOOTH",
"436 -9 OFFCURVE",
"522 29 OFFCURVE",
"548 83 CURVE",
"535 104 LINE",
"535 0 LINE",
"740 0 LINE",
"740 705 LINE",
"532 705 LINE"
);
},
{
closed = 1;
nodes = (
"307 145 OFFCURVE",
"253 183 OFFCURVE",
"253 252 CURVE SMOOTH",
"253 318 OFFCURVE",
"305 353 OFFCURVE",
"393 353 CURVE SMOOTH",
"482 353 OFFCURVE",
"535 317 OFFCURVE",
"535 250 CURVE SMOOTH",
"535 181 OFFCURVE",
"482 145 OFFCURVE",
"394 145 CURVE SMOOTH"
);
}
);
width = 814;
}
);
leftKerningGroup = o;
leftMetricsKey = o;
rightKerningGroup = l;
rightMetricsKey = "=|n";
unicode = 0064;
userData = {
anchors = (
);
b = {
};
com.typemytype.robofont.layerData = {
b = {
anchors = (
);
components = (
);
contours = (
);
lib = {
};
name = d;
unicodes = (
);
width = 1181;
};
};
components = (
);
contours = (
);
lib = {
};
name = d;
unicodes = (
);
width = 1207;
};
},
{
color = 3;
glyphname = eth;
lastChange = "2019-07-17 15:12:59 +0000";
layers = (
{
background = {
paths = (
{
closed = 1;
nodes = (
"413 -7 OFFCURVE",
"488 91 OFFCURVE",
"488 282 CURVE SMOOTH",
"488 504 OFFCURVE",
"380 644 OFFCURVE",
"175 710 CURVE",
"163 675 LINE",
"352 616 OFFCURVE",
"448 481 OFFCURVE",
"446 287 CURVE",
"469 268 LINE",
"447 394 OFFCURVE",
"380 455 OFFCURVE",
"272 455 CURVE SMOOTH",
"140 455 OFFCURVE",
"53 364 OFFCURVE",
"53 224 CURVE SMOOTH",
"53 84 OFFCURVE",
"138 -7 OFFCURVE",
"269 -7 CURVE SMOOTH"
);
},
{
closed = 1;
nodes = (
"160 34 OFFCURVE",
"98 102 OFFCURVE",
"98 224 CURVE SMOOTH",
"98 343 OFFCURVE",
"162 414 OFFCURVE",
"269 414 CURVE SMOOTH",
"376 414 OFFCURVE",
"440 343 OFFCURVE",
"440 224 CURVE SMOOTH",
"440 105 OFFCURVE",
"375 34 OFFCURVE",
"268 34 CURVE SMOOTH"
);
},
{
closed = 1;
nodes = (
"486 638 LINE",
"472 675 LINE",
"170 548 LINE",
"185 512 LINE"
);
}
);
};
layerId = "F1F93986-3ED8-4AAE-84C4-CA3EEECDDFA0";
paths = (
{
closed = 1;
nodes = (
"535 -7 OFFCURVE",
"632 91 OFFCURVE",
"632 282 CURVE SMOOTH",
"632 503 OFFCURVE",
"492 644 OFFCURVE",
"218 710 CURVE",
"204 677 LINE",
"469 618 OFFCURVE",
"590 480 OFFCURVE",
"589 287 CURVE",
"617 268 LINE",
"589 394 OFFCURVE",
"498 455 OFFCURVE",
"357 455 CURVE SMOOTH",
"186 455 OFFCURVE",
"72 364 OFFCURVE",
"72 224 CURVE SMOOTH",
"72 84 OFFCURVE",
"182 -7 OFFCURVE",
"351 -7 CURVE SMOOTH"
);
},
{
closed = 1;
nodes = (
"203 34 OFFCURVE",
"118 102 OFFCURVE",
"118 224 CURVE SMOOTH",
"118 343 OFFCURVE",
"206 414 OFFCURVE",
"350 414 CURVE SMOOTH",
"495 414 OFFCURVE",
"583 343 OFFCURVE",
"583 224 CURVE SMOOTH",
"583 106 OFFCURVE",
"493 34 OFFCURVE",
"349 34 CURVE SMOOTH"
);
},
{
closed = 1;
nodes = (
"563 677 LINE",
"547 710 LINE",
"159 583 LINE",
"176 550 LINE"
);
}
);
width = 704;
},
{
background = {
paths = (
{
closed = 1;
nodes = (
"489 -9 OFFCURVE",
"599 109 OFFCURVE",
"599 305 CURVE SMOOTH",
"599 453 OFFCURVE",
"466 678 OFFCURVE",
"144 719 CURVE",
"110 590 LINE",
"271 568 OFFCURVE",
"405 473 OFFCURVE",
"406 344 CURVE",
"454 305 LINE",
"428 416 OFFCURVE",
"370 455 OFFCURVE",
"276 455 CURVE SMOOTH",
"130 455 OFFCURVE",
"24 358 OFFCURVE",
"24 226 CURVE SMOOTH",
"24 87 OFFCURVE",
"137 -9 OFFCURVE",
"299 -9 CURVE SMOOTH"
);
},
{
closed = 1;
nodes = (
"258 145 OFFCURVE",
"233 176 OFFCURVE",
"233 226 CURVE SMOOTH",
"233 275 OFFCURVE",
"257 306 OFFCURVE",
"307 306 CURVE SMOOTH",
"357 306 OFFCURVE",
"381 275 OFFCURVE",
"381 226 CURVE SMOOTH",
"381 178 OFFCURVE",
"356 145 OFFCURVE",
"308 145 CURVE SMOOTH"
);
},
{
closed = 1;
nodes = (
"552 627 LINE",
"509 719 LINE",
"103 526 LINE",
"146 435 LINE"
);
}
);
};
color = 11;
layerId = "4121B50C-FD42-45C5-8FBE-41E76D98F91E";
paths = (
{
closed = 1;
nodes = (
"611 -9 OFFCURVE",
"743 109 OFFCURVE",
"743 295 CURVE SMOOTH",
"743 452 OFFCURVE",
"578 678 OFFCURVE",
"197 719 CURVE",
"161 590 LINE",
"388 568 OFFCURVE",
"547 472 OFFCURVE",
"549 344 CURVE",
"602 305 LINE",
"570 416 OFFCURVE",
"488 455 OFFCURVE",
"361 455 CURVE SMOOTH",
"176 455 OFFCURVE",
"43 358 OFFCURVE",
"43 226 CURVE SMOOTH",
"43 87 OFFCURVE",
"181 -9 OFFCURVE",
"381 -9 CURVE SMOOTH"
);
},
{
closed = 1;
nodes = (
"301 145 OFFCURVE",
"253 176 OFFCURVE",
"253 226 CURVE SMOOTH",
"253 275 OFFCURVE",
"301 306 OFFCURVE",
"388 306 CURVE SMOOTH",
"476 306 OFFCURVE",
"524 275 OFFCURVE",
"524 226 CURVE SMOOTH",
"524 178 OFFCURVE",
"473 145 OFFCURVE",
"389 145 CURVE SMOOTH"
);
},
{
closed = 1;
nodes = (
"679 629 LINE",
"634 719 LINE",
"132 521 LINE",
"178 431 LINE"
);
}
);
width = 783;
},
{
associatedMasterId = "4121B50C-FD42-45C5-8FBE-41E76D98F91E";
background = {
paths = (
{
closed = 1;
nodes = (
"552 627 LINE",
"509 719 LINE",
"103 526 LINE",
"146 435 LINE"
);
}
);
};
color = 11;
layerId = "6EB873AD-B6B3-4D50-A75E-883CF165F576";
name = "Bold [177]";
paths = (
{
closed = 1;
nodes = (
"489 -9 OFFCURVE",
"599 109 OFFCURVE",
"599 295 CURVE SMOOTH",
"599 453 OFFCURVE",
"466 678 OFFCURVE",
"144 719 CURVE",
"110 590 LINE",
"271 568 OFFCURVE",
"405 473 OFFCURVE",
"406 344 CURVE",
"454 299 LINE",
"428 408 OFFCURVE",
"370 445 OFFCURVE",
"276 445 CURVE SMOOTH",
"130 445 OFFCURVE",
"24 350 OFFCURVE",
"24 221 CURVE SMOOTH",
"24 85 OFFCURVE",
"137 -9 OFFCURVE",
"299 -9 CURVE SMOOTH"
);
},
{
closed = 1;
nodes = (
"262 145 OFFCURVE",
"233 174 OFFCURVE",
"233 221 CURVE SMOOTH",
"233 267 OFFCURVE",
"261 296 OFFCURVE",
"307 296 CURVE SMOOTH",
"357 296 OFFCURVE",
"381 267 OFFCURVE",
"381 221 CURVE SMOOTH",
"381 176 OFFCURVE",
"356 145 OFFCURVE",
"308 145 CURVE SMOOTH"
);
},
{
closed = 1;
nodes = (
"547 638 LINE",
"508 719 LINE",
"92 521 LINE",
"131 440 LINE"
);
}
);
width = 623;
}
);
leftKerningGroup = o;
leftMetricsKey = o;
rightKerningGroup = o;
unicode = 00F0;
userData = {
com.typemytype.robofont.layerData = {
b = {
anchors = (
);
components = (
);
contours = (
);
lib = {
};
name = eth;
unicodes = (
);
width = 1230;
};
};
};
},
{
color = 3;
glyphname = e;
lastChange = "2019-07-17 15:12:59 +0000";
layers = (
{
anchors = (
{
name = bottom;
position = "{364, 0}";
},
{
name = ogonek;
position = "{447, 0}";
},
{
name = top;
position = "{364, 484}";
}
);
background = {
anchors = (
{
name = bottom;
position = "{277, 0}";
},
{
name = ogonek;
position = "{386, 21}";
},
{
name = top;
position = "{277, 484}";
}
);
paths = (
{
closed = 1;
nodes = (
"447 97 LINE",
"395 53 OFFCURVE",
"344 34 OFFCURVE",
"284 34 CURVE SMOOTH",
"165 34 OFFCURVE",
"99 110 OFFCURVE",
"99 244 CURVE SMOOTH",
"99 377 OFFCURVE",
"166 457 OFFCURVE",
"276 457 CURVE SMOOTH",
"382 457 OFFCURVE",
"439 384 OFFCURVE",
"435 253 CURVE",
"453 277 LINE",
"80 277 LINE",
"80 238 LINE",
"475 238 LINE",
"475 264 LINE SMOOTH",
"475 410 OFFCURVE",
"402 496 OFFCURVE",
"277 496 CURVE SMOOTH",
"144 496 OFFCURVE",
"53 395 OFFCURVE",
"53 244 CURVE SMOOTH",
"53 87 OFFCURVE",
"142 -7 OFFCURVE",
"286 -7 CURVE SMOOTH",
"355 -7 OFFCURVE",
"426 19 OFFCURVE",
"467 61 CURVE"
);
}
);
};
layerId = "F1F93986-3ED8-4AAE-84C4-CA3EEECDDFA0";
paths = (
{
closed = 1;
nodes = (
"586 97 LINE",
"516 53 OFFCURVE",
"452 34 OFFCURVE",
"370 34 CURVE SMOOTH",
"212 34 OFFCURVE",
"117 110 OFFCURVE",
"117 244 CURVE SMOOTH",
"117 377 OFFCURVE",
"213 457 OFFCURVE",
"362 457 CURVE SMOOTH",
"506 457 OFFCURVE",
"580 382 OFFCURVE",
"580 263 CURVE",
"599 276 LINE",
"95 276 LINE",
"95 238 LINE",
"620 238 LINE",
"620 264 LINE SMOOTH",
"620 409 OFFCURVE",
"525 496 OFFCURVE",
"364 496 CURVE SMOOTH",
"192 496 OFFCURVE",
"72 395 OFFCURVE",
"72 244 CURVE SMOOTH",
"72 87 OFFCURVE",
"189 -7 OFFCURVE",
"374 -7 CURVE SMOOTH",
"464 -7 OFFCURVE",
"557 19 OFFCURVE",
"610 61 CURVE"
);
}
);
width = 686;
},
{
anchors = (
{
name = bottom;
position = "{365, 0}";
},
{
name = ogonek;
position = "{476, 0}";
},
{
name = top;
position = "{365, 484}";
}
);
background = {
anchors = (
{
name = bottom;
position = "{278, 0}";
},
{
name = ogonek;
position = "{449, 37}";
},
{
name = top;
position = "{278, 484}";
}
);
paths = (
{
closed = 1;
nodes = (
"455 183 LINE",
"419 158 OFFCURVE",
"366 143 OFFCURVE",
"321 143 CURVE SMOOTH",
"249 143 OFFCURVE",
"220 171 OFFCURVE",
"220 257 CURVE SMOOTH",
"220 338 OFFCURVE",
"242 370 OFFCURVE",
"283 370 CURVE SMOOTH",
"319 370 OFFCURVE",
"337 345 OFFCURVE",
"339 289 CURVE",
"388 303 LINE",
"200 303 LINE",
"200 202 LINE",
"513 202 LINE",
"513 249 LINE SMOOTH",
"513 407 OFFCURVE",
"420 506 OFFCURVE",
"276 506 CURVE SMOOTH",
"130 506 OFFCURVE",
"24 400 OFFCURVE",
"24 249 CURVE SMOOTH",
"24 92 OFFCURVE",
"132 -9 OFFCURVE",
"310 -9 CURVE SMOOTH",
"379 -9 OFFCURVE",
"454 13 OFFCURVE",
"505 48 CURVE"
);
}
);
};
color = 11;
layerId = "4121B50C-FD42-45C5-8FBE-41E76D98F91E";
paths = (
{
closed = 1;
nodes = (
"594 183 LINE",
"540 158 OFFCURVE",
"473 143 OFFCURVE",
"407 143 CURVE SMOOTH",
"296 143 OFFCURVE",
"240 171 OFFCURVE",
"240 257 CURVE SMOOTH",
"240 338 OFFCURVE",
"289 370 OFFCURVE",
"369 370 CURVE SMOOTH",
"442 370 OFFCURVE",
"481 345 OFFCURVE",
"483 289 CURVE",
"534 303 LINE",
"215 303 LINE",
"215 202 LINE",
"658 202 LINE",
"658 249 LINE SMOOTH",
"658 407 OFFCURVE",
"543 506 OFFCURVE",
"363 506 CURVE SMOOTH",
"178 506 OFFCURVE",
"43 400 OFFCURVE",
"43 249 CURVE SMOOTH",
"43 92 OFFCURVE",
"179 -9 OFFCURVE",
"398 -9 CURVE SMOOTH",
"488 -9 OFFCURVE",
"585 13 OFFCURVE",
"648 48 CURVE"
);
}
);
width = 696;
},
{
anchors = (
{
name = bottom;
position = "{302, 0}";
},
{
name = ogonek;
position = "{371, 0}";
},
{
name = top;
position = "{276, 494}";
}
);
associatedMasterId = "4121B50C-FD42-45C5-8FBE-41E76D98F91E";
background = {
anchors = (
{
name = bottom;
position = "{302, 0}";
},
{
name = ogonek;
position = "{449, 37}";
},
{
name = top;
position = "{276, 494}";
}
);
paths = (
{
closed = 1;
nodes = (
"455 183 LINE",
"419 158 OFFCURVE",
"366 142 OFFCURVE",
"321 142 CURVE SMOOTH",
"249 142 OFFCURVE",
"220 171 OFFCURVE",
"220 267 CURVE SMOOTH",
"220 336 OFFCURVE",
"242 368 OFFCURVE",
"285 368 CURVE SMOOTH",
"321 368 OFFCURVE",
"339 343 OFFCURVE",
"341 289 CURVE",
"388 300 LINE",
"200 300 LINE",
"200 206 LINE",
"513 206 LINE",
"513 249 LINE SMOOTH",
"513 407 OFFCURVE",
"420 506 OFFCURVE",
"276 506 CURVE SMOOTH",
"130 506 OFFCURVE",
"24 400 OFFCURVE",
"24 249 CURVE SMOOTH",
"24 92 OFFCURVE",
"132 -9 OFFCURVE",
"310 -9 CURVE SMOOTH",
"379 -9 OFFCURVE",
"454 13 OFFCURVE",
"505 48 CURVE"
);
}
);
};
color = 11;
layerId = "E49B42F9-A839-49EF-8753-FFCB8F7C37E6";
name = "Bold  [177]";
paths = (
{
closed = 1;
nodes = (
"455 183 LINE",
"419 158 OFFCURVE",
"366 142 OFFCURVE",
"323 142 CURVE SMOOTH",
"249 142 OFFCURVE",
"218 171 OFFCURVE",
"218 257 CURVE SMOOTH",
"218 340 OFFCURVE",
"242 373 OFFCURVE",
"285 373 CURVE SMOOTH",
"321 373 OFFCURVE",
"343 347 OFFCURVE",
"343 289 CURVE",
"388 300 LINE",
"200 300 LINE",
"200 209 LINE",
"513 209 LINE",
"513 249 LINE SMOOTH",
"513 407 OFFCURVE",
"420 506 OFFCURVE",
"276 506 CURVE SMOOTH",
"130 506 OFFCURVE",
"24 400 OFFCURVE",
"24 249 CURVE SMOOTH",
"24 92 OFFCURVE",
"132 -9 OFFCURVE",
"310 -9 CURVE SMOOTH",
"379 -9 OFFCURVE",
"454 13 OFFCURVE",
"505 48 CURVE"
);
}
);
width = 537;
}
);
leftKerningGroup = o;
leftMetricsKey = o;
rightKerningGroup = e;
unicode = 0065;
userData = {
anchors = (
);
b = {
};
com.typemytype.robofont.layerData = {
b = {
anchors = (
);
components = (
);
contours = (
);
lib = {
};
name = e;
unicodes = (
);
width = 1132;
};
};
components = (
);
contours = (
);
lib = {
};
name = e;
unicodes = (
);
width = 1132;
};
},
{
color = 3;
glyphname = f;
lastChange = "2019-07-17 15:12:59 +0000";
layers = (
{
anchors = (
{
name = bottom;
position = "{161, 0}";
},
{
name = top;
position = "{161, 705}";
}
);
background = {
anchors = (
{
name = bottom;
position = "{126, 0}";
},
{
name = top;
position = "{126, 705}";
}
);
paths = (
{
closed = 1;
nodes = (
"146 611 OFFCURVE",
"186 661 OFFCURVE",
"270 667 CURVE SMOOTH",
"316 670 LINE",
"311 707 LINE",
"280 705 LINE SMOOTH",
"162 698 OFFCURVE",
"105 636 OFFCURVE",
"105 515 CURVE SMOOTH",
"105 473 LINE",
"115 484 LINE",
"8 484 LINE",
"8 448 LINE",
"105 448 LINE",
"105 0 LINE",
"146 0 LINE",
"146 448 LINE",
"293 448 LINE",
"293 484 LINE",
"146 484 LINE",
"146 515 LINE SMOOTH"
);
}
);
};
layerId = "F1F93986-3ED8-4AAE-84C4-CA3EEECDDFA0";
paths = (
{
closed = 1;
nodes = (
"182 610 OFFCURVE",
"235 662 OFFCURVE",
"345 667 CURVE SMOOTH",
"406 670 LINE",
"400 707 LINE",
"361 705 LINE SMOOTH",
"219 698 OFFCURVE",
"140 639 OFFCURVE",
"140 515 CURVE SMOOTH",
"140 473 LINE",
"149 484 LINE",
"12 484 LINE",
"12 448 LINE",
"140 448 LINE",
"140 0 LINE",
"182 0 LINE",
"182 448 LINE",
"377 448 LINE",
"377 484 LINE",
"182 484 LINE",
"182 515 LINE SMOOTH"
);
}
);
width = 394;
},
{
anchors = (
{
name = bottom;
position = "{230, 0}";
},
{
name = top;
position = "{230, 705}";
}
);
background = {
anchors = (
{
name = bottom;
position = "{195, 0}";
},
{
name = top;
position = "{195, 705}";
}
);
paths = (
{
closed = 1;
nodes = (
"297 543 OFFCURVE",
"318 557 OFFCURVE",
"395 562 CURVE SMOOTH",
"442 565 LINE",
"431 712 LINE",
"364 708 LINE SMOOTH",
"176 698 OFFCURVE",
"93 622 OFFCURVE",
"93 464 CURVE SMOOTH",
"93 439 LINE",
"152 494 LINE",
"0 494 LINE",
"0 342 LINE",
"93 342 LINE",
"93 0 LINE",
"297 0 LINE",
"297 342 LINE",
"410 342 LINE",
"410 494 LINE",
"297 494 LINE",
"297 505 LINE SMOOTH"
);
}
);
};
layerId = "4121B50C-FD42-45C5-8FBE-41E76D98F91E";
paths = (
{
closed = 1;
nodes = (
"334 543 OFFCURVE",
"368 557 OFFCURVE",
"470 562 CURVE SMOOTH",
"532 565 LINE",
"520 712 LINE",
"445 708 LINE SMOOTH",
"219 696 OFFCURVE",
"126 616 OFFCURVE",
"126 464 CURVE SMOOTH",
"126 439 LINE",
"186 494 LINE",
"4 494 LINE",
"4 342 LINE",
"126 342 LINE",
"126 0 LINE",
"334 0 LINE",
"334 342 LINE",
"494 342 LINE",
"494 494 LINE",
"334 494 LINE",
"334 505 LINE SMOOTH"
);
}
);
width = 505;
}
);
leftKerningGroup = f;
rightKerningGroup = f;
unicode = 0066;
userData = {
anchors = (
);
b = {
};
com.typemytype.robofont.layerData = {
b = {
anchors = (
);
components = (
);
contours = (
);
lib = {
};
name = f;
unicodes = (
);
width = 696;
};
};
components = (
);
contours = (
);
lib = {
};
name = f;
unicodes = (
);
width = 723;
};
},
{
color = 3;
glyphname = g;
lastChange = "2019-07-17 15:12:59 +0000";
layers = (
{
anchors = (
{
name = top;
position = "{375, 484}";
}
);
background = {
anchors = (
{
name = top;
position = "{288, 484}";
}
);
paths = (
{
closed = 1;
nodes = (
"419 -187 OFFCURVE",
"485 -116 OFFCURVE",
"485 23 CURVE SMOOTH",
"485 484 LINE",
"443 484 LINE",
"443 379 LINE",
"454 359 LINE",
"432 447 OFFCURVE",
"367 496 OFFCURVE",
"271 496 CURVE SMOOTH",
"141 496 OFFCURVE",
"53 399 OFFCURVE",
"53 256 CURVE SMOOTH",
"53 112 OFFCURVE",
"141 15 OFFCURVE",
"271 15 CURVE SMOOTH",
"367 15 OFFCURVE",
"432 64 OFFCURVE",
"454 153 CURVE",
"444 131 LINE",
"444 17 LINE SMOOTH",
"444 -89 OFFCURVE",
"391 -146 OFFCURVE",
"291 -146 CURVE SMOOTH",
"216 -146 OFFCURVE",
"168 -130 OFFCURVE",
"105 -83 CURVE",
"85 -118 LINE",
"141 -164 OFFCURVE",
"210 -187 OFFCURVE",
"290 -187 CURVE SMOOTH"
);
},
{
closed = 1;
nodes = (
"164 56 OFFCURVE",
"98 131 OFFCURVE",
"98 256 CURVE SMOOTH",
"98 380 OFFCURVE",
"164 455 OFFCURVE",
"271 455 CURVE SMOOTH",
"379 455 OFFCURVE",
"443 379 OFFCURVE",
"443 256 CURVE SMOOTH",
"443 132 OFFCURVE",
"379 56 OFFCURVE",
"271 56 CURVE SMOOTH"
);
}
);
};
layerId = "F1F93986-3ED8-4AAE-84C4-CA3EEECDDFA0";
paths = (
{
closed = 1;
nodes = (
"542 -187 OFFCURVE",
"628 -116 OFFCURVE",
"628 23 CURVE SMOOTH",
"628 484 LINE",
"586 484 LINE",
"586 379 LINE",
"599 359 LINE",
"571 447 OFFCURVE",
"485 496 OFFCURVE",
"358 496 CURVE SMOOTH",
"188 496 OFFCURVE",
"72 399 OFFCURVE",
"72 256 CURVE SMOOTH",
"72 112 OFFCURVE",
"188 15 OFFCURVE",
"358 15 CURVE SMOOTH",
"486 15 OFFCURVE",
"571 64 OFFCURVE",
"599 153 CURVE",
"587 131 LINE",
"587 17 LINE SMOOTH",
"587 -89 OFFCURVE",
"513 -146 OFFCURVE",
"383 -146 CURVE SMOOTH",
"274 -146 OFFCURVE",
"215 -126 OFFCURVE",
"138 -83 CURVE",
"115 -118 LINE",
"187 -164 OFFCURVE",
"279 -187 OFFCURVE",
"380 -187 CURVE SMOOTH"
);
},
{
closed = 1;
nodes = (
"208 56 OFFCURVE",
"118 131 OFFCURVE",
"118 256 CURVE SMOOTH",
"118 380 OFFCURVE",
"208 455 OFFCURVE",
"352 455 CURVE SMOOTH",
"498 455 OFFCURVE",
"586 379 OFFCURVE",
"586 256 CURVE SMOOTH",
"586 132 OFFCURVE",
"498 56 OFFCURVE",
"352 56 CURVE SMOOTH"
);
}
);
width = 743;
},
{
anchors = (
{
name = top;
position = "{412, 484}";
}
);
background = {
anchors = (
{
name = top;
position = "{325, 484}";
}
);
paths = (
{
closed = 1;
nodes = (
"496 -189 OFFCURVE",
"602 -100 OFFCURVE",
"602 68 CURVE SMOOTH",
"602 494 LINE",
"397 494 LINE",
"397 391 LINE",
"408 417 LINE",
"386 470 OFFCURVE",
"319 506 OFFCURVE",
"248 506 CURVE SMOOTH",
"121 506 OFFCURVE",
"28 409 OFFCURVE",
"28 259 CURVE SMOOTH",
"28 109 OFFCURVE",
"121 13 OFFCURVE",
"248 13 CURVE SMOOTH",
"319 13 OFFCURVE",
"386 49 OFFCURVE",
"408 99 CURVE",
"396 122 LINE",
"396 55 LINE SMOOTH",
"396 -11 OFFCURVE",
"362 -38 OFFCURVE",
"288 -38 CURVE SMOOTH",
"232 -38 OFFCURVE",
"155 -19 OFFCURVE",
"98 9 CURVE",
"47 -131 LINE",
"110 -167 OFFCURVE",
"203 -189 OFFCURVE",
"295 -189 CURVE SMOOTH"
);
},
{
closed = 1;
nodes = (
"265 167 OFFCURVE",
"233 202 OFFCURVE",
"233 259 CURVE SMOOTH",
"233 319 OFFCURVE",
"263 353 OFFCURVE",
"315 353 CURVE SMOOTH",
"367 353 OFFCURVE",
"397 318 OFFCURVE",
"397 259 CURVE SMOOTH",
"397 200 OFFCURVE",
"366 167 OFFCURVE",
"315 167 CURVE SMOOTH"
);
}
);
};
layerId = "4121B50C-FD42-45C5-8FBE-41E76D98F91E";
paths = (
{
closed = 1;
nodes = (
"619 -189 OFFCURVE",
"745 -100 OFFCURVE",
"745 68 CURVE SMOOTH",
"745 494 LINE",
"540 494 LINE",
"540 391 LINE",
"553 417 LINE",
"525 470 OFFCURVE",
"437 506 OFFCURVE",
"335 506 CURVE SMOOTH",
"166 506 OFFCURVE",
"43 409 OFFCURVE",
"43 259 CURVE SMOOTH",
"43 109 OFFCURVE",
"166 13 OFFCURVE",
"335 13 CURVE SMOOTH",
"438 13 OFFCURVE",
"525 49 OFFCURVE",
"553 99 CURVE",
"539 122 LINE",
"539 55 LINE SMOOTH",
"539 -4 OFFCURVE",
"493 -38 OFFCURVE",
"380 -38 CURVE SMOOTH",
"299 -38 OFFCURVE",
"208 -19 OFFCURVE",
"131 9 CURVE",
"77 -131 LINE",
"156 -167 OFFCURVE",
"272 -189 OFFCURVE",
"385 -189 CURVE SMOOTH"
);
},
{
closed = 1;
nodes = (
"309 167 OFFCURVE",
"253 202 OFFCURVE",
"253 259 CURVE SMOOTH",
"253 319 OFFCURVE",
"307 353 OFFCURVE",
"396 353 CURVE SMOOTH",
"486 353 OFFCURVE",
"540 318 OFFCURVE",
"540 259 CURVE SMOOTH",
"540 200 OFFCURVE",
"485 167 OFFCURVE",
"396 167 CURVE SMOOTH"
);
}
);
width = 819;
}
);
leftKerningGroup = o;
leftMetricsKey = o;
rightKerningGroup = u;
rightMetricsKey = "=|n";
unicode = 0067;
userData = {
anchors = (
);
b = {
};
com.typemytype.robofont.layerData = {
b = {
anchors = (
);
components = (
);
contours = (
);
lib = {
};
name = g;
unicodes = (
);
width = 1167;
};
};
components = (
);
contours = (
);
lib = {
};
name = g;
unicodes = (
);
width = 1207;
};
},
{
color = 3;
glyphname = h;
lastChange = "2019-07-17 15:12:59 +0000";
layers = (
{
anchors = (
{
name = bottom;
position = "{362, 0}";
},
{
name = center;
position = "{362, 245}";
},
{
name = dot;
position = "{252, 353}";
},
{
name = stroke;
position = "{204, 580}";
},
{
name = top;
position = "{363, 705}";
},
{
name = topright;
position = "{214, 705}";
}
);
background = {
anchors = (
{
name = bottom;
position = "{277, 0}";
},
{
name = center;
position = "{277, 245}";
},
{
name = dot;
position = "{204, 353}";
},
{
name = stroke;
position = "{157, 580}";
},
{
name = top;
position = "{278, 705}";
},
{
name = topright;
position = "{169, 705}";
}
);
paths = (
{
closed = 1;
nodes = (
"209 496 OFFCURVE",
"141 454 OFFCURVE",
"115 370 CURVE",
"127 355 LINE",
"127 705 LINE",
"85 705 LINE",
"85 0 LINE",
"127 0 LINE",
"127 282 LINE SMOOTH",
"127 388 OFFCURVE",
"194 456 OFFCURVE",
"297 456 CURVE SMOOTH",
"389 456 OFFCURVE",
"428 410 OFFCURVE",
"428 308 CURVE SMOOTH",
"428 0 LINE",
"470 0 LINE",
"470 312 LINE SMOOTH",
"470 434 OFFCURVE",
"411 496 OFFCURVE",
"294 496 CURVE SMOOTH"
);
}
);
};
layerId = "F1F93986-3ED8-4AAE-84C4-CA3EEECDDFA0";
paths = (
{
closed = 1;
nodes = (
"266 496 OFFCURVE",
"175 454 OFFCURVE",
"141 370 CURVE",
"157 355 LINE",
"157 705 LINE",
"115 705 LINE",
"115 0 LINE",
"157 0 LINE",
"157 282 LINE SMOOTH",
"157 388 OFFCURVE",
"249 456 OFFCURVE",
"388 456 CURVE SMOOTH",
"547 456 OFFCURVE",
"566 377 OFFCURVE",
"566 308 CURVE SMOOTH",
"566 0 LINE",
"608 0 LINE",
"608 312 LINE SMOOTH",
"608 434 OFFCURVE",
"529 496 OFFCURVE",
"378 496 CURVE SMOOTH"
);
}
);
width = 721;
},
{
anchors = (
{
name = bottom;
position = "{396, 0}";
},
{
name = center;
position = "{396, 250}";
},
{
name = dot;
position = "{450, 350}";
},
{
name = stroke;
position = "{245, 595}";
},
{
name = top;
position = "{395, 705}";
},
{
name = topright;
position = "{315, 705}";
}
);
background = {
anchors = (
{
name = bottom;
position = "{311, 0}";
},
{
name = center;
position = "{311, 250}";
},
{
name = dot;
position = "{402, 350}";
},
{
name = stroke;
position = "{198, 595}";
},
{
name = top;
position = "{310, 705}";
},
{
name = topright;
position = "{270, 705}";
}
);
paths = (
{
closed = 1;
nodes = (
"330 506 OFFCURVE",
"271 472 OFFCURVE",
"234 415 CURVE",
"252 394 LINE",
"252 705 LINE",
"44 705 LINE",
"44 0 LINE",
"252 0 LINE",
"252 272 LINE SMOOTH",
"252 318 OFFCURVE",
"280 348 OFFCURVE",
"322 348 CURVE SMOOTH",
"351 348 OFFCURVE",
"368 330 OFFCURVE",
"368 279 CURVE SMOOTH",
"368 0 LINE",
"576 0 LINE",
"576 287 LINE SMOOTH",
"576 436 OFFCURVE",
"520 506 OFFCURVE",
"403 506 CURVE SMOOTH"
);
}
);
};
layerId = "4121B50C-FD42-45C5-8FBE-41E76D98F91E";
paths = (
{
closed = 1;
nodes = (
"387 506 OFFCURVE",
"305 472 OFFCURVE",
"260 415 CURVE",
"282 394 LINE",
"282 705 LINE",
"74 705 LINE",
"74 0 LINE",
"282 0 LINE",
"282 272 LINE SMOOTH",
"282 318 OFFCURVE",
"335 348 OFFCURVE",
"413 348 CURVE SMOOTH",
"489 348 OFFCURVE",
"506 320 OFFCURVE",
"506 279 CURVE SMOOTH",
"506 0 LINE",
"714 0 LINE",
"714 287 LINE SMOOTH",
"714 421 OFFCURVE",
"650 506 OFFCURVE",
"487 506 CURVE SMOOTH"
);
}
);
width = 786;
}
);
leftKerningGroup = h;
leftMetricsKey = n;
rightKerningGroup = n;
rightMetricsKey = n;
unicode = 0068;
userData = {
anchors = (
);
b = {
};
com.typemytype.robofont.layerData = {
b = {
anchors = (
);
components = (
);
contours = (
);
lib = {
};
name = h;
unicodes = (
);
width = 1148;
};
};
components = (
);
contours = {
};
lib = {
};
name = h;
points = {
};
segmentType = curve;
unicodes = (
);
width = 1195;
x = 137;
y = 113;
};
},
{
color = 3;
glyphname = idotless;
lastChange = "2019-07-17 15:12:59 +0000";
layers = (
{
anchors = (
{
name = bottom;
position = "{136, 0}";
},
{
name = ogonek;
position = "{162, 0}";
},
{
name = top;
position = "{136, 484}";
}
);
background = {
anchors = (
{
name = bottom;
position = "{106, 0}";
},
{
name = ogonek;
position = "{127, 0}";
},
{
name = top;
position = "{106, 484}";
}
);
paths = (
{
closed = 1;
nodes = (
"127 0 LINE",
"127 484 LINE",
"85 484 LINE",
"85 0 LINE"
);
}
);
};
layerId = "F1F93986-3ED8-4AAE-84C4-CA3EEECDDFA0";
paths = (
{
closed = 1;
nodes = (
"157 0 LINE",
"157 484 LINE",
"115 484 LINE",
"115 0 LINE"
);
}
);
width = 272;
},
{
anchors = (
{
name = bottom;
position = "{178, 0}";
},
{
name = ogonek;
position = "{235, 0}";
},
{
name = top;
position = "{178, 484}";
}
);
background = {
anchors = (
{
name = bottom;
position = "{148, 0}";
},
{
name = ogonek;
position = "{215, 0}";
},
{
name = top;
position = "{148, 484}";
}
);
paths = (
{
closed = 1;
nodes = (
"252 0 LINE",
"252 494 LINE",
"44 494 LINE",
"44 0 LINE"
);
}
);
};
layerId = "4121B50C-FD42-45C5-8FBE-41E76D98F91E";
paths = (
{
closed = 1;
nodes = (
"282 0 LINE",
"282 494 LINE",
"74 494 LINE",
"74 0 LINE"
);
}
);
width = 356;
}
);
leftKerningGroup = n;
leftMetricsKey = n;
rightKerningGroup = u;
rightMetricsKey = "=|";
unicode = 0131;
},
{
color = 3;
glyphname = jdotless;
lastChange = "2019-07-17 15:12:59 +0000";
layers = (
{
anchors = (
{
name = bottom;
position = "{140, 0}";
},
{
name = top;
position = "{140, 484}";
}
);
background = {
paths = (
{
closed = 1;
nodes = (
"88 484 LINE",
"88 -12 LINE SMOOTH",
"88 -92 OFFCURVE",
"47 -137 OFFCURVE",
"-31 -143 CURVE SMOOTH",
"-73 -145 LINE",
"-69 -183 LINE",
"-26 -180 LINE SMOOTH",
"74 -173 OFFCURVE",
"130 -114 OFFCURVE",
"130 -11 CURVE SMOOTH",
"130 484 LINE"
);
}
);
};
layerId = "F1F93986-3ED8-4AAE-84C4-CA3EEECDDFA0";
paths = (
{
closed = 1;
nodes = (
"118 484 LINE",
"118 -22 LINE SMOOTH",
"118 -101 OFFCURVE",
"69 -147 OFFCURVE",
"-24 -152 CURVE SMOOTH",
"-77 -155 LINE",
"-74 -193 LINE",
"-18 -190 LINE SMOOTH",
"87 -184 OFFCURVE",
"160 -127 OFFCURVE",
"160 -21 CURVE SMOOTH",
"160 484 LINE"
);
}
);
width = 275;
},
{
anchors = (
{
name = bottom;
position = "{184, 0}";
},
{
name = top;
position = "{184, 484}";
}
);
background = {
paths = (
{
closed = 1;
nodes = (
"50 494 LINE",
"50 13 LINE SMOOTH",
"50 -25 OFFCURVE",
"37 -35 OFFCURVE",
"-9 -38 CURVE SMOOTH",
"-65 -43 LINE",
"-51 -188 LINE",
"-1 -185 LINE SMOOTH",
"196 -173 OFFCURVE",
"258 -117 OFFCURVE",
"258 54 CURVE SMOOTH",
"258 494 LINE"
);
}
);
};
layerId = "4121B50C-FD42-45C5-8FBE-41E76D98F91E";
paths = (
{
closed = 1;
nodes = (
"80 494 LINE",
"80 8 LINE SMOOTH",
"80 -33 OFFCURVE",
"41 -37 OFFCURVE",
"-6 -42 CURVE SMOOTH",
"-68 -48 LINE",
"-54 -193 LINE",
"3 -190 LINE SMOOTH",
"268 -176 OFFCURVE",
"288 -69 OFFCURVE",
"288 39 CURVE SMOOTH",
"288 494 LINE"
);
}
);
width = 363;
}
);
leftKerningGroup = n;
rightKerningGroup = l;
unicode = 0237;
},
{
color = 3;
glyphname = k;
lastChange = "2019-07-17 15:12:59 +0000";
layers = (
{
anchors = (
{
name = bottom;
position = "{302, 0}";
},
{
name = top;
position = "{302, 705}";
}
);
background = {
anchors = (
{
name = bottom;
position = "{234, 0}";
},
{
name = top;
position = "{234, 705}";
}
);
paths = (
{
closed = 1;
nodes = (
"153 270 LINE",
"152 230 LINE",
"439 484 LINE",
"380 484 LINE",
"127 258 LINE",
"127 705 LINE",
"85 705 LINE",
"85 0 LINE",
"127 0 LINE",
"127 239 LINE",
"408 0 LINE",
"469 0 LINE"
);
}
);
};
layerId = "F1F93986-3ED8-4AAE-84C4-CA3EEECDDFA0";
paths = (
{
closed = 1;
nodes = (
"178 270 LINE",
"178 230 LINE",
"561 484 LINE",
"498 484 LINE",
"157 258 LINE",
"157 705 LINE",
"115 705 LINE",
"115 0 LINE",
"157 0 LINE",
"157 239 LINE",
"537 0 LINE",
"603 0 LINE"
);
}
);
width = 604;
},
{
anchors = (
{
name = bottom;
position = "{370, 0}";
},
{
name = top;
position = "{370, 705}";
}
);
background = {
anchors = (
{
name = bottom;
position = "{302, 0}";
},
{
name = top;
position = "{302, 705}";
}
);
paths = (
{
closed = 1;
nodes = (
"436 295 LINE",
"424 211 LINE",
"639 493 LINE",
"395 493 LINE",
"252 299 LINE",
"252 705 LINE",
"44 705 LINE",
"44 0 LINE",
"252 0 LINE",
"252 201 LINE",
"392 0 LINE",
"641 0 LINE"
);
}
);
};
layerId = "4121B50C-FD42-45C5-8FBE-41E76D98F91E";
paths = (
{
closed = 1;
nodes = (
"461 295 LINE",
"450 211 LINE",
"761 493 LINE",
"513 493 LINE",
"282 299 LINE",
"282 705 LINE",
"74 705 LINE",
"74 0 LINE",
"282 0 LINE",
"282 201 LINE",
"521 0 LINE",
"775 0 LINE"
);
}
);
width = 741;
}
);
leftKerningGroup = h;
leftMetricsKey = l;
rightKerningGroup = k;
unicode = 006B;
userData = {
com.typemytype.robofont.layerData = {
b = {
anchors = (
);
components = (
);
contours = (
{
points = (
{
segmentType = line;
smooth = 0;
x = 318;
y = 536;
},
{
segmentType = line;
smooth = 1;
x = 793;
y = 27;
},
{
smooth = 0;
x = 809;
y = 9;
},
{
smooth = 0;
x = 828;
y = 1;
},
{
segmentType = curve;
smooth = 1;
x = 845;
y = 1;
},
{
smooth = 0;
x = 883;
y = 1;
},
{
smooth = 0;
x = 922;
y = 33;
},
{
segmentType = curve;
smooth = 1;
x = 922;
y = 71;
},
{
smooth = 0;
x = 922;
y = 84;
},
{
smooth = 0;
x = 918;
y = 99;
},
{
segmentType = curve;
smooth = 1;
x = 906;
y = 112;
},
{
segmentType = line;
smooth = 0;
x = 492;
y = 554;
},
{
segmentType = line;
smooth = 1;
x = 873;
y = 889;
},
{
smooth = 0;
x = 888;
y = 902;
},
{
smooth = 0;
x = 894;
y = 918;
},
{
segmentType = curve;
smooth = 1;
x = 894;
y = 933;
},
{
smooth = 0;
x = 894;
y = 968;
},
{
smooth = 0;
x = 858;
y = 1002;
},
{
segmentType = curve;
smooth = 1;
x = 821;
y = 1002;
},
{
smooth = 0;
x = 802;
y = 1002;
},
{
smooth = 0;
x = 785;
y = 994;
},
{
segmentType = curve;
smooth = 0;
x = 770;
y = 979;
},
{
segmentType = line;
smooth = 0;
x = 318;
y = 574;
}
);
}
);
lib = {
};
name = k;
unicodes = (
);
width = 984;
};
};
};
},
{
color = 3;
glyphname = kgreenlandic;
lastChange = "2019-07-17 15:12:59 +0000";
layers = (
{
anchors = (
{
name = bottom;
position = "{302, 0}";
},
{
name = top;
position = "{302, 484}";
}
);
background = {
anchors = (
{
name = bottom;
position = "{234, 0}";
},
{
name = top;
position = "{234, 484}";
}
);
paths = (
{
closed = 1;
nodes = (
"153 270 LINE",
"152 230 LINE",
"439 484 LINE",
"380 484 LINE",
"127 258 LINE",
"127 484 LINE",
"85 484 LINE",
"85 0 LINE",
"127 0 LINE",
"127 239 LINE",
"408 0 LINE",
"469 0 LINE"
);
}
);
};
layerId = "F1F93986-3ED8-4AAE-84C4-CA3EEECDDFA0";
paths = (
{
closed = 1;
nodes = (
"178 270 LINE",
"178 230 LINE",
"561 484 LINE",
"498 484 LINE",
"157 258 LINE",
"157 484 LINE",
"115 484 LINE",
"115 0 LINE",
"157 0 LINE",
"157 239 LINE",
"537 0 LINE",
"603 0 LINE"
);
}
);
width = 604;
},
{
anchors = (
{
name = bottom;
position = "{370, 0}";
},
{
name = top;
position = "{370, 484}";
}
);
background = {
anchors = (
{
name = bottom;
position = "{302, 0}";
},
{
name = top;
position = "{302, 484}";
}
);
paths = (
{
closed = 1;
nodes = (
"436 295 LINE",
"424 211 LINE",
"639 493 LINE",
"395 493 LINE",
"252 299 LINE",
"252 494 LINE",
"44 494 LINE",
"44 0 LINE",
"252 0 LINE",
"252 201 LINE",
"392 0 LINE",
"641 0 LINE"
);
}
);
};
layerId = "4121B50C-FD42-45C5-8FBE-41E76D98F91E";
paths = (
{
closed = 1;
nodes = (
"461 295 LINE",
"450 211 LINE",
"761 493 LINE",
"513 493 LINE",
"282 299 LINE",
"282 494 LINE",
"74 494 LINE",
"74 0 LINE",
"282 0 LINE",
"282 201 LINE",
"521 0 LINE",
"775 0 LINE"
);
}
);
width = 741;
}
);
leftKerningGroup = n;
leftMetricsKey = n;
rightKerningGroup = k;
rightMetricsKey = k;
unicode = 0138;
userData = {
com.typemytype.robofont.layerData = {
b = {
anchors = (
);
components = (
);
contours = (
);
lib = {
};
name = kgreenlandic;
unicodes = (
);
width = 1047;
};
};
};
},
{
color = 3;
glyphname = l;
lastChange = "2019-07-17 15:12:59 +0000";
layers = (
{
anchors = (
{
name = bottom;
position = "{136, 0}";
},
{
name = center;
position = "{136, 357}";
},
{
name = dot;
position = "{267, 353}";
},
{
name = top;
position = "{136, 705}";
},
{
name = topright;
position = "{210, 705}";
}
);
background = {
anchors = (
{
name = bottom;
position = "{106, 0}";
},
{
name = center;
position = "{106, 357}";
},
{
name = dot;
position = "{214, 353}";
},
{
name = top;
position = "{106, 705}";
},
{
name = topright;
position = "{179, 705}";
}
);
paths = (
{
closed = 1;
nodes = (
"127 0 LINE",
"127 705 LINE",
"85 705 LINE",
"85 0 LINE"
);
}
);
};
layerId = "F1F93986-3ED8-4AAE-84C4-CA3EEECDDFA0";
paths = (
{
closed = 1;
nodes = (
"157 0 LINE",
"157 705 LINE",
"115 705 LINE",
"115 0 LINE"
);
}
);
width = 272;
},
{
anchors = (
{
name = bottom;
position = "{178, 0}";
},
{
name = center;
position = "{178, 357}";
},
{
name = dot;
position = "{455, 350}";
},
{
name = top;
position = "{178, 705}";
},
{
name = topright;
position = "{325, 705}";
}
);
background = {
anchors = (
{
name = bottom;
position = "{148, 0}";
},
{
name = center;
position = "{148, 357}";
},
{
name = dot;
position = "{402, 350}";
},
{
name = top;
position = "{148, 705}";
},
{
name = topright;
position = "{282, 705}";
}
);
paths = (
{
closed = 1;
nodes = (
"252 0 LINE",
"252 705 LINE",
"44 705 LINE",
"44 0 LINE"
);
}
);
};
layerId = "4121B50C-FD42-45C5-8FBE-41E76D98F91E";
paths = (
{
closed = 1;
nodes = (
"282 0 LINE",
"282 705 LINE",
"74 705 LINE",
"74 0 LINE"
);
}
);
width = 356;
}
);
leftKerningGroup = h;
rightKerningGroup = l;
unicode = 006C;
userData = {
com.typemytype.robofont.layerData = {
b = {
anchors = (
);
components = (
);
contours = (
);
lib = {
};
name = l;
unicodes = (
);
width = 511;
};
};
};
},
{
color = 3;
glyphname = m;
lastChange = "2019-07-17 15:12:59 +0000";
layers = (
{
anchors = (
{
name = bottom;
position = "{549, 0}";
},
{
name = top;
position = "{549, 484}";
}
);
background = {
anchors = (
{
name = bottom;
position = "{420, 0}";
},
{
name = top;
position = "{420, 484}";
}
);
paths = (
{
closed = 1;
nodes = (
"507 496 OFFCURVE",
"439 446 OFFCURVE",
"420 369 CURVE",
"441 353 LINE",
"428 449 OFFCURVE",
"377 496 OFFCURVE",
"281 496 CURVE SMOOTH",
"201 496 OFFCURVE",
"140 453 OFFCURVE",
"117 370 CURVE",
"128 356 LINE",
"128 484 LINE",
"87 484 LINE",
"87 0 LINE",
"129 0 LINE",
"129 282 LINE SMOOTH",
"129 388 OFFCURVE",
"188 456 OFFCURVE",
"282 456 CURVE SMOOTH",
"365 456 OFFCURVE",
"399 410 OFFCURVE",
"399 308 CURVE SMOOTH",
"399 0 LINE",
"441 0 LINE",
"441 282 LINE SMOOTH",
"441 388 OFFCURVE",
"500 456 OFFCURVE",
"594 456 CURVE SMOOTH",
"677 456 OFFCURVE",
"711 410 OFFCURVE",
"711 308 CURVE SMOOTH",
"711 0 LINE",
"753 0 LINE",
"753 312 LINE SMOOTH",
"753 435 OFFCURVE",
"699 496 OFFCURVE",
"593 496 CURVE SMOOTH"
);
}
);
};
layerId = "F1F93986-3ED8-4AAE-84C4-CA3EEECDDFA0";
paths = (
{
closed = 1;
nodes = (
"659 496 OFFCURVE",
"567 447 OFFCURVE",
"543 369 CURVE",
"567 353 LINE",
"551 449 OFFCURVE",
"483 496 OFFCURVE",
"361 496 CURVE SMOOTH",
"256 496 OFFCURVE",
"175 453 OFFCURVE",
"146 370 CURVE",
"159 356 LINE",
"159 484 LINE",
"118 484 LINE",
"118 0 LINE",
"160 0 LINE",
"160 282 LINE SMOOTH",
"160 388 OFFCURVE",
"242 456 OFFCURVE",
"368 456 CURVE SMOOTH",
"499 456 OFFCURVE",
"528 391 OFFCURVE",
"528 308 CURVE SMOOTH",
"528 0 LINE",
"570 0 LINE",
"570 282 LINE SMOOTH",
"570 388 OFFCURVE",
"652 456 OFFCURVE",
"777 456 CURVE SMOOTH",
"909 456 OFFCURVE",
"937 391 OFFCURVE",
"937 308 CURVE SMOOTH",
"937 0 LINE",
"979 0 LINE",
"979 312 LINE SMOOTH",
"979 435 OFFCURVE",
"907 496 OFFCURVE",
"770 496 CURVE SMOOTH"
);
}
);
width = 1094;
},
{
anchors = (
{
name = bottom;
position = "{588, 0}";
},
{
name = top;
position = "{588, 484}";
}
);
background = {
anchors = (
{
name = bottom;
position = "{459, 0}";
},
{
name = top;
position = "{459, 484}";
}
);
paths = (
{
closed = 1;
nodes = (
"629 506 OFFCURVE",
"564 468 OFFCURVE",
"531 405 CURVE",
"555 372 LINE",
"536 462 OFFCURVE",
"476 506 OFFCURVE",
"398 506 CURVE SMOOTH",
"320 506 OFFCURVE",
"264 472 OFFCURVE",
"234 412 CURVE",
"249 392 LINE",
"249 494 LINE",
"46 494 LINE",
"46 0 LINE",
"254 0 LINE",
"254 264 LINE SMOOTH",
"254 320 OFFCURVE",
"274 348 OFFCURVE",
"313 348 CURVE SMOOTH",
"343 348 OFFCURVE",
"355 330 OFFCURVE",
"355 282 CURVE SMOOTH",
"355 0 LINE",
"563 0 LINE",
"563 264 LINE SMOOTH",
"563 320 OFFCURVE",
"583 348 OFFCURVE",
"622 348 CURVE SMOOTH",
"652 348 OFFCURVE",
"664 330 OFFCURVE",
"664 282 CURVE SMOOTH",
"664 0 LINE",
"872 0 LINE",
"872 287 LINE SMOOTH",
"872 437 OFFCURVE",
"818 506 OFFCURVE",
"702 506 CURVE SMOOTH"
);
}
);
};
layerId = "4121B50C-FD42-45C5-8FBE-41E76D98F91E";
paths = (
{
closed = 1;
nodes = (
"782 506 OFFCURVE",
"693 470 OFFCURVE",
"654 405 CURVE",
"684 372 LINE",
"661 462 OFFCURVE",
"584 506 OFFCURVE",
"478 506 CURVE SMOOTH",
"375 506 OFFCURVE",
"299 472 OFFCURVE",
"263 412 CURVE",
"280 392 LINE",
"280 494 LINE",
"77 494 LINE",
"77 0 LINE",
"285 0 LINE",
"285 264 LINE SMOOTH",
"285 320 OFFCURVE",
"328 348 OFFCURVE",
"399 348 CURVE SMOOTH",
"473 348 OFFCURVE",
"484 317 OFFCURVE",
"484 282 CURVE SMOOTH",
"484 0 LINE",
"692 0 LINE",
"692 264 LINE SMOOTH",
"692 319 OFFCURVE",
"734 348 OFFCURVE",
"805 348 CURVE SMOOTH",
"881 348 OFFCURVE",
"890 315 OFFCURVE",
"890 282 CURVE SMOOTH",
"890 0 LINE",
"1098 0 LINE",
"1098 287 LINE SMOOTH",
"1098 422 OFFCURVE",
"1038 506 OFFCURVE",
"879 506 CURVE SMOOTH"
);
}
);
width = 1172;
}
);
leftKerningGroup = n;
leftMetricsKey = "=n+2";
rightKerningGroup = n;
rightMetricsKey = "=n+2";
unicode = 006D;
userData = {
anchors = (
);
b = {
};
com.typemytype.robofont.layerData = {
b = {
anchors = (
);
components = (
);
contours = (
);
lib = {
};
name = m;
unicodes = (
);
width = 1838;
};
};
components = (
);
contours = (
);
lib = {
};
name = m;
unicodes = (
);
width = 1877;
};
},
{
color = 3;
glyphname = n;
lastChange = "2019-07-17 15:12:59 +0000";
layers = (
{
anchors = (
{
name = bottom;
position = "{362, 0}";
},
{
name = top;
position = "{362, 484}";
}
);
background = {
anchors = (
{
name = bottom;
position = "{277, 0}";
},
{
name = top;
position = "{277, 484}";
}
);
paths = (
{
closed = 1;
nodes = (
"209 496 OFFCURVE",
"139 453 OFFCURVE",
"115 368 CURVE",
"126 354 LINE",
"126 484 LINE",
"85 484 LINE",
"85 0 LINE",
"127 0 LINE",
"127 282 LINE SMOOTH",
"127 388 OFFCURVE",
"194 456 OFFCURVE",
"297 456 CURVE SMOOTH",
"389 456 OFFCURVE",
"428 410 OFFCURVE",
"428 308 CURVE SMOOTH",
"428 0 LINE",
"470 0 LINE",
"470 312 LINE SMOOTH",
"470 434 OFFCURVE",
"411 496 OFFCURVE",
"294 496 CURVE SMOOTH"
);
}
);
};
layerId = "F1F93986-3ED8-4AAE-84C4-CA3EEECDDFA0";
paths = (
{
closed = 1;
nodes = (
"266 496 OFFCURVE",
"173 453 OFFCURVE",
"143 368 CURVE",
"156 354 LINE",
"156 484 LINE",
"115 484 LINE",
"115 0 LINE",
"157 0 LINE",
"157 282 LINE SMOOTH",
"157 388 OFFCURVE",
"249 456 OFFCURVE",
"388 456 CURVE SMOOTH",
"547 456 OFFCURVE",
"566 377 OFFCURVE",
"566 308 CURVE SMOOTH",
"566 0 LINE",
"608 0 LINE",
"608 312 LINE SMOOTH",
"608 434 OFFCURVE",
"529 496 OFFCURVE",
"378 496 CURVE SMOOTH"
);
}
);
width = 721;
},
{
anchors = (
{
name = bottom;
position = "{396, 0}";
},
{
name = top;
position = "{396, 484}";
}
);
background = {
anchors = (
{
name = bottom;
position = "{311, 0}";
},
{
name = top;
position = "{311, 484}";
}
);
paths = (
{
closed = 1;
nodes = (
"326 506 OFFCURVE",
"266 469 OFFCURVE",
"230 406 CURVE",
"247 386 LINE",
"247 494 LINE",
"44 494 LINE",
"44 0 LINE",
"252 0 LINE",
"252 272 LINE SMOOTH",
"252 318 OFFCURVE",
"280 348 OFFCURVE",
"322 348 CURVE SMOOTH",
"351 348 OFFCURVE",
"368 330 OFFCURVE",
"368 279 CURVE SMOOTH",
"368 0 LINE",
"576 0 LINE",
"576 287 LINE SMOOTH",
"576 436 OFFCURVE",
"520 506 OFFCURVE",
"403 506 CURVE SMOOTH"
);
}
);
};
layerId = "4121B50C-FD42-45C5-8FBE-41E76D98F91E";
paths = (
{
closed = 1;
nodes = (
"383 506 OFFCURVE",
"300 469 OFFCURVE",
"258 406 CURVE",
"277 386 LINE",
"277 494 LINE",
"74 494 LINE",
"74 0 LINE",
"282 0 LINE",
"282 272 LINE SMOOTH",
"282 318 OFFCURVE",
"335 348 OFFCURVE",
"413 348 CURVE SMOOTH",
"489 348 OFFCURVE",
"506 320 OFFCURVE",
"506 279 CURVE SMOOTH",
"506 0 LINE",
"714 0 LINE",
"714 287 LINE SMOOTH",
"714 421 OFFCURVE",
"650 506 OFFCURVE",
"487 506 CURVE SMOOTH"
);
}
);
width = 786;
}
);
leftKerningGroup = n;
rightKerningGroup = n;
unicode = 006E;
userData = {
anchors = (
);
b = {
};
com.typemytype.robofont.layerData = {
b = {
anchors = (
);
components = (
);
contours = (
);
lib = {
};
name = n;
unicodes = (
);
width = 1152;
};
};
components = (
);
contours = {
};
lib = {
};
name = n;
points = {
};
segmentType = curve;
unicodes = (
);
width = 1195;
x = 137;
y = 113;
};
},
{
color = 3;
glyphname = eng;
lastChange = "2019-07-17 15:12:59 +0000";
layers = (
{
background = {
paths = (
{
closed = 1;
nodes = (
"209 496 OFFCURVE",
"139 453 OFFCURVE",
"115 368 CURVE",
"126 354 LINE",
"126 484 LINE",
"85 484 LINE",
"85 0 LINE",
"127 0 LINE",
"127 282 LINE SMOOTH",
"127 388 OFFCURVE",
"194 456 OFFCURVE",
"297 456 CURVE SMOOTH",
"389 456 OFFCURVE",
"428 410 OFFCURVE",
"428 308 CURVE SMOOTH",
"428 -22 LINE SMOOTH",
"428 -101 OFFCURVE",
"388 -152 OFFCURVE",
"312 -152 CURVE SMOOTH",
"298 -152 OFFCURVE",
"284 -151 OFFCURVE",
"272 -148 CURVE",
"272 -185 LINE",
"287 -188 OFFCURVE",
"300 -189 OFFCURVE",
"315 -189 CURVE SMOOTH",
"414 -189 OFFCURVE",
"470 -127 OFFCURVE",
"470 -6 CURVE SMOOTH",
"470 312 LINE SMOOTH",
"470 434 OFFCURVE",
"411 496 OFFCURVE",
"294 496 CURVE SMOOTH"
);
}
);
};
layerId = "F1F93986-3ED8-4AAE-84C4-CA3EEECDDFA0";
paths = (
{
closed = 1;
nodes = (
"608 312 LINE SMOOTH",
"608 434 OFFCURVE",
"529 496 OFFCURVE",
"378 496 CURVE SMOOTH",
"266 496 OFFCURVE",
"173 453 OFFCURVE",
"143 368 CURVE",
"156 354 LINE",
"156 484 LINE",
"115 484 LINE",
"115 0 LINE",
"157 0 LINE",
"157 282 LINE SMOOTH",
"157 388 OFFCURVE",
"249 456 OFFCURVE",
"388 456 CURVE SMOOTH",
"547 456 OFFCURVE",
"566 377 OFFCURVE",
"566 308 CURVE SMOOTH",
"566 -22 LINE SMOOTH",
"566 -101 OFFCURVE",
"516 -147 OFFCURVE",
"424 -152 CURVE SMOOTH",
"371 -155 LINE",
"375 -193 LINE",
"431 -190 LINE SMOOTH",
"540 -184 OFFCURVE",
"608 -123 OFFCURVE",
"608 -21 CURVE SMOOTH"
);
}
);
width = 721;
},
{
background = {
paths = (
{
closed = 1;
nodes = (
"326 506 OFFCURVE",
"266 469 OFFCURVE",
"230 406 CURVE",
"247 386 LINE",
"247 494 LINE",
"44 494 LINE",
"44 0 LINE",
"252 0 LINE",
"252 272 LINE SMOOTH",
"252 318 OFFCURVE",
"280 348 OFFCURVE",
"322 348 CURVE SMOOTH",
"351 348 OFFCURVE",
"368 330 OFFCURVE",
"368 279 CURVE SMOOTH",
"368 9 LINE SMOOTH",
"368 -30 OFFCURVE",
"346 -43 OFFCURVE",
"306 -43 CURVE SMOOTH",
"288 -43 OFFCURVE",
"267 -43 OFFCURVE",
"250 -40 CURVE",
"250 -185 LINE",
"271 -188 OFFCURVE",
"294 -189 OFFCURVE",
"309 -189 CURVE SMOOTH",
"516 -189 OFFCURVE",
"576 -76 OFFCURVE",
"576 -12 CURVE SMOOTH",
"576 287 LINE SMOOTH",
"576 436 OFFCURVE",
"520 506 OFFCURVE",
"403 506 CURVE SMOOTH"
);
}
);
};
layerId = "4121B50C-FD42-45C5-8FBE-41E76D98F91E";
paths = (
{
closed = 1;
nodes = (
"714 287 LINE SMOOTH",
"714 421 OFFCURVE",
"650 506 OFFCURVE",
"487 506 CURVE SMOOTH",
"383 506 OFFCURVE",
"300 469 OFFCURVE",
"258 406 CURVE",
"277 386 LINE",
"277 494 LINE",
"74 494 LINE",
"74 0 LINE",
"282 0 LINE",
"282 272 LINE SMOOTH",
"282 318 OFFCURVE",
"335 348 OFFCURVE",
"413 348 CURVE SMOOTH",
"489 348 OFFCURVE",
"506 320 OFFCURVE",
"506 279 CURVE SMOOTH",
"506 8 LINE SMOOTH",
"506 -24 OFFCURVE",
"480 -36 OFFCURVE",
"420 -42 CURVE SMOOTH",
"358 -48 LINE",
"373 -193 LINE",
"430 -190 LINE SMOOTH",
"660 -178 OFFCURVE",
"714 -101 OFFCURVE",
"714 39 CURVE SMOOTH"
);
}
);
width = 786;
}
);
leftKerningGroup = n;
leftMetricsKey = n;
widthMetricsKey = n;
rightKerningGroup = n;
unicode = 014B;
},
{
color = 3;
glyphname = o;
lastChange = "2019-07-17 15:12:59 +0000";
layers = (
{
anchors = (
{
name = bottom;
position = "{350, 0}";
},
{
name = center;
position = "{350, 245}";
},
{
name = ogonek;
position = "{428, 0}";
},
{
name = top;
position = "{350, 484}";
},
{
name = topright;
position = "{409, 484}";
}
);
background = {
anchors = (
{
name = bottom;
position = "{269, 0}";
},
{
name = center;
position = "{269, 245}";
},
{
name = ogonek;
position = "{321, 21}";
},
{
name = top;
position = "{269, 484}";
},
{
name = topright;
position = "{315, 484}";
}
);
paths = (
{
closed = 1;
nodes = (
"399 -7 OFFCURVE",
"485 92 OFFCURVE",
"485 245 CURVE SMOOTH",
"485 397 OFFCURVE",
"399 496 OFFCURVE",
"269 496 CURVE SMOOTH",
"139 496 OFFCURVE",
"53 397 OFFCURVE",
"53 245 CURVE SMOOTH",
"53 92 OFFCURVE",
"139 -7 OFFCURVE",
"269 -7 CURVE SMOOTH"
);
},
{
closed = 1;
nodes = (
"160 34 OFFCURVE",
"98 109 OFFCURVE",
"98 245 CURVE SMOOTH",
"98 377 OFFCURVE",
"162 455 OFFCURVE",
"269 455 CURVE SMOOTH",
"376 455 OFFCURVE",
"440 377 OFFCURVE",
"440 245 CURVE SMOOTH",
"440 109 OFFCURVE",
"378 34 OFFCURVE",
"268 34 CURVE SMOOTH"
);
}
);
};
layerId = "F1F93986-3ED8-4AAE-84C4-CA3EEECDDFA0";
paths = (
{
closed = 1;
nodes = (
"517 -7 OFFCURVE",
"628 93 OFFCURVE",
"628 245 CURVE SMOOTH",
"628 396 OFFCURVE",
"517 496 OFFCURVE",
"350 496 CURVE SMOOTH",
"183 496 OFFCURVE",
"72 397 OFFCURVE",
"72 245 CURVE SMOOTH",
"72 92 OFFCURVE",
"183 -7 OFFCURVE",
"350 -7 CURVE SMOOTH"
);
},
{
closed = 1;
nodes = (
"203 34 OFFCURVE",
"118 109 OFFCURVE",
"118 245 CURVE SMOOTH",
"118 377 OFFCURVE",
"205 455 OFFCURVE",
"350 455 CURVE SMOOTH",
"495 455 OFFCURVE",
"583 377 OFFCURVE",
"583 245 CURVE SMOOTH",
"583 109 OFFCURVE",
"498 34 OFFCURVE",
"349 34 CURVE SMOOTH"
);
}
);
width = 700;
},
{
anchors = (
{
name = bottom;
position = "{389, 0}";
},
{
name = center;
position = "{389, 250}";
},
{
name = ogonek;
position = "{467, 0}";
},
{
name = top;
position = "{389, 484}";
},
{
name = topright;
position = "{474, 484}";
}
);
background = {
anchors = (
{
name = bottom;
position = "{308, 0}";
},
{
name = center;
position = "{308, 250}";
},
{
name = ogonek;
position = "{407, 37}";
},
{
name = top;
position = "{308, 484}";
},
{
name = topright;
position = "{380, 484}";
}
);
paths = (
{
closed = 1;
nodes = (
"480 -9 OFFCURVE",
"591 90 OFFCURVE",
"591 250 CURVE SMOOTH",
"591 409 OFFCURVE",
"480 506 OFFCURVE",
"308 506 CURVE SMOOTH",
"136 506 OFFCURVE",
"25 409 OFFCURVE",
"25 250 CURVE SMOOTH",
"25 90 OFFCURVE",
"136 -9 OFFCURVE",
"308 -9 CURVE SMOOTH"
);
},
{
closed = 1;
nodes = (
"258 145 OFFCURVE",
"230 174 OFFCURVE",
"230 250 CURVE SMOOTH",
"230 326 OFFCURVE",
"257 354 OFFCURVE",
"308 354 CURVE SMOOTH",
"360 354 OFFCURVE",
"386 326 OFFCURVE",
"386 250 CURVE SMOOTH",
"386 174 OFFCURVE",
"359 145 OFFCURVE",
"309 145 CURVE SMOOTH"
);
}
);
};
layerId = "4121B50C-FD42-45C5-8FBE-41E76D98F91E";
paths = (
{
closed = 1;
nodes = (
"596 -9 OFFCURVE",
"735 90 OFFCURVE",
"735 250 CURVE SMOOTH",
"735 409 OFFCURVE",
"596 506 OFFCURVE",
"389 506 CURVE SMOOTH",
"181 506 OFFCURVE",
"43 409 OFFCURVE",
"43 250 CURVE SMOOTH",
"43 90 OFFCURVE",
"181 -9 OFFCURVE",
"389 -9 CURVE SMOOTH"
);
},
{
closed = 1;
nodes = (
"309 145 OFFCURVE",
"253 174 OFFCURVE",
"253 250 CURVE SMOOTH",
"253 326 OFFCURVE",
"308 354 OFFCURVE",
"389 354 CURVE SMOOTH",
"470 354 OFFCURVE",
"526 326 OFFCURVE",
"526 250 CURVE SMOOTH",
"526 174 OFFCURVE",
"472 145 OFFCURVE",
"390 145 CURVE SMOOTH"
);
}
);
width = 778;
}
);
leftKerningGroup = o;
rightKerningGroup = o;
unicode = 006F;
userData = {
anchors = (
);
b = {
};
com.typemytype.robofont.guides = (
);
com.typemytype.robofont.layerData = {
b = {
anchors = (
);
components = (
);
contours = (
);
lib = {
};
name = o;
unicodes = (
);
width = 1144;
};
};
components = (
);
contours = (
);
lib = {
};
name = o;
unicodes = (
);
width = 1199;
};
},
{
color = 3;
glyphname = oe;
lastChange = "2019-07-17 15:12:59 +0000";
layers = (
{
anchors = (
{
name = bottom;
position = "{608, 0}";
},
{
name = top;
position = "{608, 484}";
}
);
background = {
anchors = (
{
name = bottom;
position = "{464, 0}";
},
{
name = top;
position = "{464, 484}";
}
);
paths = (
{
closed = 1;
nodes = (
"373 -7 OFFCURVE",
"446 56 OFFCURVE",
"471 161 CURVE",
"453 161 LINE",
"478 51 OFFCURVE",
"557 -7 OFFCURVE",
"673 -7 CURVE SMOOTH",
"741 -7 OFFCURVE",
"810 19 OFFCURVE",
"850 61 CURVE",
"830 97 LINE",
"778 53 OFFCURVE",
"728 34 OFFCURVE",
"669 34 CURVE SMOOTH",
"551 34 OFFCURVE",
"486 110 OFFCURVE",
"486 244 CURVE SMOOTH",
"486 377 OFFCURVE",
"552 457 OFFCURVE",
"661 457 CURVE SMOOTH",
"766 457 OFFCURVE",
"822 384 OFFCURVE",
"818 253 CURVE",
"835 277 LINE",
"466 277 LINE",
"466 238 LINE",
"858 238 LINE",
"858 264 LINE SMOOTH",
"858 410 OFFCURVE",
"786 496 OFFCURVE",
"665 496 CURVE SMOOTH",
"556 496 OFFCURVE",
"480 433 OFFCURVE",
"454 325 CURVE",
"473 324 LINE",
"448 432 OFFCURVE",
"374 496 OFFCURVE",
"270 496 CURVE SMOOTH",
"139 496 OFFCURVE",
"53 397 OFFCURVE",
"53 245 CURVE SMOOTH",
"53 92 OFFCURVE",
"139 -7 OFFCURVE",
"270 -7 CURVE SMOOTH"
);
},
{
closed = 1;
nodes = (
"160 34 OFFCURVE",
"98 109 OFFCURVE",
"98 245 CURVE SMOOTH",
"98 377 OFFCURVE",
"162 455 OFFCURVE",
"269 455 CURVE SMOOTH",
"377 455 OFFCURVE",
"440 377 OFFCURVE",
"440 245 CURVE SMOOTH",
"440 109 OFFCURVE",
"379 34 OFFCURVE",
"268 34 CURVE SMOOTH"
);
}
);
};
layerId = "F1F93986-3ED8-4AAE-84C4-CA3EEECDDFA0";
paths = (
{
closed = 1;
nodes = (
"488 -7 OFFCURVE",
"584 56 OFFCURVE",
"615 161 CURVE",
"593 161 LINE",
"624 51 OFFCURVE",
"730 -7 OFFCURVE",
"883 -7 CURVE SMOOTH",
"973 -7 OFFCURVE",
"1062 19 OFFCURVE",
"1114 61 CURVE",
"1091 97 LINE",
"1021 53 OFFCURVE",
"956 34 OFFCURVE",
"877 34 CURVE SMOOTH",
"719 34 OFFCURVE",
"630 110 OFFCURVE",
"630 244 CURVE SMOOTH",
"630 377 OFFCURVE",
"721 457 OFFCURVE",
"869 457 CURVE SMOOTH",
"1010 457 OFFCURVE",
"1083 386 OFFCURVE",
"1083 266 CURVE",
"1103 276 LINE",
"603 276 LINE",
"603 238 LINE",
"1126 238 LINE",
"1126 264 LINE SMOOTH",
"1126 410 OFFCURVE",
"1031 496 OFFCURVE",
"874 496 CURVE SMOOTH",
"729 496 OFFCURVE",
"628 433 OFFCURVE",
"596 325 CURVE",
"618 324 LINE",
"587 432 OFFCURVE",
"489 496 OFFCURVE",
"352 496 CURVE SMOOTH",
"184 496 OFFCURVE",
"72 396 OFFCURVE",
"72 245 CURVE SMOOTH",
"72 93 OFFCURVE",
"184 -7 OFFCURVE",
"352 -7 CURVE SMOOTH"
);
},
{
closed = 1;
nodes = (
"203 34 OFFCURVE",
"118 109 OFFCURVE",
"118 245 CURVE SMOOTH",
"118 377 OFFCURVE",
"205 455 OFFCURVE",
"350 455 CURVE SMOOTH",
"496 455 OFFCURVE",
"583 377 OFFCURVE",
"583 245 CURVE SMOOTH",
"583 109 OFFCURVE",
"499 34 OFFCURVE",
"349 34 CURVE SMOOTH"
);
}
);
width = 1192;
},
{
anchors = (
{
name = bottom;
position = "{628, 0}";
},
{
name = top;
position = "{628, 484}";
}
);
background = {
anchors = (
{
name = bottom;
position = "{484, 0}";
},
{
name = top;
position = "{484, 484}";
}
);
paths = (
{
closed = 1;
nodes = (
"392 -9 OFFCURVE",
"460 18 OFFCURVE",
"508 68 CURVE",
"469 66 LINE",
"517 17 OFFCURVE",
"590 -9 OFFCURVE",
"683 -9 CURVE SMOOTH",
"747 -9 OFFCURVE",
"817 13 OFFCURVE",
"864 48 CURVE",
"813 183 LINE",
"779 158 OFFCURVE",
"729 143 OFFCURVE",
"685 143 CURVE SMOOTH",
"617 143 OFFCURVE",
"586 171 OFFCURVE",
"586 272 CURVE SMOOTH",
"586 338 OFFCURVE",
"604 370 OFFCURVE",
"645 370 CURVE SMOOTH",
"682 370 OFFCURVE",
"698 345 OFFCURVE",
"700 289 CURVE",
"747 303 LINE",
"576 303 LINE",
"576 202 LINE",
"872 202 LINE",
"872 249 LINE SMOOTH",
"872 407 OFFCURVE",
"785 506 OFFCURVE",
"651 506 CURVE SMOOTH",
"575 506 OFFCURVE",
"510 482 OFFCURVE",
"467 433 CURVE",
"506 436 LINE",
"458 481 OFFCURVE",
"391 506 OFFCURVE",
"303 506 CURVE SMOOTH",
"134 506 OFFCURVE",
"26 407 OFFCURVE",
"26 250 CURVE SMOOTH",
"26 92 OFFCURVE",
"134 -9 OFFCURVE",
"303 -9 CURVE SMOOTH"
);
},
{
closed = 1;
nodes = (
"259 145 OFFCURVE",
"231 174 OFFCURVE",
"231 250 CURVE SMOOTH",
"231 326 OFFCURVE",
"258 354 OFFCURVE",
"306 354 CURVE SMOOTH",
"355 354 OFFCURVE",
"381 326 OFFCURVE",
"381 250 CURVE SMOOTH",
"381 174 OFFCURVE",
"354 145 OFFCURVE",
"307 145 CURVE SMOOTH"
);
}
);
};
color = 11;
layerId = "4121B50C-FD42-45C5-8FBE-41E76D98F91E";
paths = (
{
closed = 1;
nodes = (
"506 -9 OFFCURVE",
"596 18 OFFCURVE",
"650 68 CURVE",
"609 66 LINE",
"663 17 OFFCURVE",
"762 -9 OFFCURVE",
"893 -9 CURVE SMOOTH",
"980 -9 OFFCURVE",
"1069 13 OFFCURVE",
"1128 48 CURVE",
"1074 183 LINE",
"1022 158 OFFCURVE",
"957 143 OFFCURVE",
"893 143 CURVE SMOOTH",
"785 143 OFFCURVE",
"730 171 OFFCURVE",
"730 272 CURVE SMOOTH",
"730 338 OFFCURVE",
"773 370 OFFCURVE",
"853 370 CURVE SMOOTH",
"927 370 OFFCURVE",
"963 345 OFFCURVE",
"965 289 CURVE",
"1015 303 LINE",
"713 303 LINE",
"713 202 LINE",
"1140 202 LINE",
"1140 249 LINE SMOOTH",
"1140 407 OFFCURVE",
"1030 506 OFFCURVE",
"860 506 CURVE SMOOTH",
"748 506 OFFCURVE",
"658 482 OFFCURVE",
"609 433 CURVE",
"649 436 LINE",
"595 481 OFFCURVE",
"504 506 OFFCURVE",
"383 506 CURVE SMOOTH",
"178 506 OFFCURVE",
"43 407 OFFCURVE",
"43 250 CURVE SMOOTH",
"43 92 OFFCURVE",
"178 -9 OFFCURVE",
"383 -9 CURVE SMOOTH"
);
},
{
closed = 1;
nodes = (
"309 145 OFFCURVE",
"253 174 OFFCURVE",
"253 250 CURVE SMOOTH",
"253 326 OFFCURVE",
"308 354 OFFCURVE",
"389 354 CURVE SMOOTH",
"470 354 OFFCURVE",
"526 326 OFFCURVE",
"526 250 CURVE SMOOTH",
"526 174 OFFCURVE",
"472 145 OFFCURVE",
"390 145 CURVE SMOOTH"
);
}
);
width = 1178;
},
{
anchors = (
{
name = bottom;
position = "{482, 0}";
},
{
name = top;
position = "{482, 494}";
}
);
associatedMasterId = "4121B50C-FD42-45C5-8FBE-41E76D98F91E";
background = {
anchors = (
{
name = bottom;
position = "{482, 0}";
},
{
name = top;
position = "{482, 494}";
}
);
paths = (
{
closed = 1;
nodes = (
"870 209 LINE",
"870 249 LINE SMOOTH",
"870 407 OFFCURVE",
"784 506 OFFCURVE",
"650 506 CURVE SMOOTH",
"581 506 OFFCURVE",
"523 486 OFFCURVE",
"480 438 CURVE",
"521 439 LINE",
"483 488 OFFCURVE",
"427 506 OFFCURVE",
"345 506 CURVE SMOOTH",
"269 506 OFFCURVE",
"171 479 OFFCURVE",
"111 444 CURVE",
"162 309 LINE",
"211 337 OFFCURVE",
"279 356 OFFCURVE",
"323 356 CURVE SMOOTH",
"372 356 OFFCURVE",
"386 342 OFFCURVE",
"386 308 CURVE SMOOTH",
"386 199 LINE SMOOTH",
"386 161 OFFCURVE",
"364 128 OFFCURVE",
"331 128 CURVE SMOOTH",
"305 128 OFFCURVE",
"288 143 OFFCURVE",
"288 169 CURVE SMOOTH",
"288 195 OFFCURVE",
"316 209 OFFCURVE",
"370 209 CURVE SMOOTH",
"402 209 LINE",
"402 300 LINE",
"357 300 LINE SMOOTH",
"167 300 OFFCURVE",
"92 260 OFFCURVE",
"91 155 CURVE SMOOTH",
"90 59 OFFCURVE",
"178 -9 OFFCURVE",
"297 -9 CURVE SMOOTH",
"384 -9 OFFCURVE",
"450 29 OFFCURVE",
"479 103 CURVE",
"451 99 LINE",
"494 28 OFFCURVE",
"575 -9 OFFCURVE",
"681 -9 CURVE SMOOTH",
"745 -9 OFFCURVE",
"815 13 OFFCURVE",
"862 48 CURVE",
"812 183 LINE",
"777 158 OFFCURVE",
"726 142 OFFCURVE",
"691 142 CURVE SMOOTH",
"612 142 OFFCURVE",
"583 171 OFFCURVE",
"583 257 CURVE SMOOTH",
"583 339 OFFCURVE",
"602 372 OFFCURVE",
"643 372 CURVE SMOOTH",
"679 372 OFFCURVE",
"696 346 OFFCURVE",
"698 290 CURVE",
"745 300 LINE",
"574 300 LINE",
"574 209 LINE"
);
}
);
};
layerId = "95007EC8-EECD-456E-B787-BFE6C0A97F04";
name = "Bold [177]";
paths = (
{
closed = 1;
nodes = (
"390 -9 OFFCURVE",
"458 18 OFFCURVE",
"506 68 CURVE",
"467 66 LINE",
"515 17 OFFCURVE",
"588 -9 OFFCURVE",
"681 -9 CURVE SMOOTH",
"745 -9 OFFCURVE",
"815 13 OFFCURVE",
"862 48 CURVE",
"812 183 LINE",
"778 158 OFFCURVE",
"726 142 OFFCURVE",
"691 142 CURVE SMOOTH",
"612 142 OFFCURVE",
"583 171 OFFCURVE",
"583 257 CURVE SMOOTH",
"583 339 OFFCURVE",
"602 372 OFFCURVE",
"643 372 CURVE SMOOTH",
"679 372 OFFCURVE",
"696 346 OFFCURVE",
"698 289 CURVE",
"745 300 LINE",
"574 300 LINE",
"574 209 LINE",
"870 209 LINE",
"870 249 LINE SMOOTH",
"870 407 OFFCURVE",
"783 506 OFFCURVE",
"649 506 CURVE SMOOTH",
"573 506 OFFCURVE",
"508 482 OFFCURVE",
"465 433 CURVE",
"504 436 LINE",
"456 481 OFFCURVE",
"389 506 OFFCURVE",
"301 506 CURVE SMOOTH",
"132 506 OFFCURVE",
"24 407 OFFCURVE",
"24 250 CURVE SMOOTH",
"24 92 OFFCURVE",
"132 -9 OFFCURVE",
"301 -9 CURVE SMOOTH"
);
},
{
closed = 1;
nodes = (
"257 145 OFFCURVE",
"229 174 OFFCURVE",
"229 250 CURVE SMOOTH",
"229 326 OFFCURVE",
"256 354 OFFCURVE",
"304 354 CURVE SMOOTH",
"353 354 OFFCURVE",
"379 326 OFFCURVE",
"379 250 CURVE SMOOTH",
"379 174 OFFCURVE",
"352 145 OFFCURVE",
"305 145 CURVE SMOOTH"
);
}
);
width = 890;
}
);
leftKerningGroup = o;
leftMetricsKey = o;
rightKerningGroup = e;
rightMetricsKey = e;
unicode = 0153;
},
{
color = 3;
glyphname = p;
lastChange = "2019-07-17 15:12:59 +0000";
layers = (
{
anchors = (
{
name = bottom;
position = "{366, 0}";
},
{
name = top;
position = "{366, 484}";
}
);
background = {
anchors = (
{
name = bottom;
position = "{281, 0}";
},
{
name = top;
position = "{281, 484}";
}
);
paths = (
{
closed = 1;
nodes = (
"204 496 OFFCURVE",
"140 449 OFFCURVE",
"116 361 CURVE",
"127 347 LINE",
"127 484 LINE",
"85 484 LINE",
"85 -180 LINE",
"127 -180 LINE",
"127 143 LINE",
"116 129 LINE",
"139 41 OFFCURVE",
"204 -7 OFFCURVE",
"297 -7 CURVE SMOOTH",
"426 -7 OFFCURVE",
"513 94 OFFCURVE",
"513 247 CURVE SMOOTH",
"513 398 OFFCURVE",
"427 496 OFFCURVE",
"297 496 CURVE SMOOTH"
);
},
{
closed = 1;
nodes = (
"187 34 OFFCURVE",
"127 111 OFFCURVE",
"127 245 CURVE SMOOTH",
"127 378 OFFCURVE",
"187 455 OFFCURVE",
"296 455 CURVE SMOOTH",
"404 455 OFFCURVE",
"467 379 OFFCURVE",
"467 247 CURVE SMOOTH",
"467 113 OFFCURVE",
"404 34 OFFCURVE",
"297 34 CURVE SMOOTH"
);
}
);
};
layerId = "F1F93986-3ED8-4AAE-84C4-CA3EEECDDFA0";
paths = (
{
closed = 1;
nodes = (
"259 496 OFFCURVE",
"175 449 OFFCURVE",
"142 361 CURVE",
"157 347 LINE",
"157 484 LINE",
"115 484 LINE",
"115 -180 LINE",
"157 -180 LINE",
"157 143 LINE",
"142 129 LINE",
"173 41 OFFCURVE",
"260 -7 OFFCURVE",
"382 -7 CURVE SMOOTH",
"551 -7 OFFCURVE",
"666 94 OFFCURVE",
"666 247 CURVE SMOOTH",
"666 398 OFFCURVE",
"552 496 OFFCURVE",
"382 496 CURVE SMOOTH"
);
},
{
closed = 1;
nodes = (
"240 34 OFFCURVE",
"157 111 OFFCURVE",
"157 245 CURVE SMOOTH",
"157 378 OFFCURVE",
"240 455 OFFCURVE",
"387 455 CURVE SMOOTH",
"532 455 OFFCURVE",
"619 379 OFFCURVE",
"619 247 CURVE SMOOTH",
"619 113 OFFCURVE",
"532 34 OFFCURVE",
"389 34 CURVE SMOOTH"
);
}
);
width = 738;
},
{
anchors = (
{
name = bottom;
position = "{405, 0}";
},
{
name = top;
position = "{405, 484}";
}
);
background = {
anchors = (
{
name = bottom;
position = "{320, 0}";
},
{
name = top;
position = "{320, 484}";
}
);
paths = (
{
closed = 1;
nodes = (
"323 506 OFFCURVE",
"257 468 OFFCURVE",
"238 415 CURVE",
"249 394 LINE",
"249 494 LINE",
"44 494 LINE",
"44 -180 LINE",
"252 -180 LINE",
"252 99 LINE",
"240 77 LINE",
"261 28 OFFCURVE",
"326 -9 OFFCURVE",
"396 -9 CURVE SMOOTH",
"522 -9 OFFCURVE",
"614 97 OFFCURVE",
"614 252 CURVE SMOOTH",
"614 407 OFFCURVE",
"523 506 OFFCURVE",
"396 506 CURVE SMOOTH"
);
},
{
closed = 1;
nodes = (
"279 145 OFFCURVE",
"249 181 OFFCURVE",
"249 250 CURVE SMOOTH",
"249 317 OFFCURVE",
"279 353 OFFCURVE",
"330 353 CURVE SMOOTH",
"381 353 OFFCURVE",
"409 318 OFFCURVE",
"409 252 CURVE SMOOTH",
"409 183 OFFCURVE",
"379 145 OFFCURVE",
"329 145 CURVE SMOOTH"
);
}
);
};
layerId = "4121B50C-FD42-45C5-8FBE-41E76D98F91E";
paths = (
{
closed = 1;
nodes = (
"378 506 OFFCURVE",
"292 468 OFFCURVE",
"264 415 CURVE",
"279 394 LINE",
"279 494 LINE",
"74 494 LINE",
"74 -180 LINE",
"282 -180 LINE",
"282 99 LINE",
"266 77 LINE",
"295 28 OFFCURVE",
"380 -9 OFFCURVE",
"481 -9 CURVE SMOOTH",
"649 -9 OFFCURVE",
"771 97 OFFCURVE",
"771 252 CURVE SMOOTH",
"771 407 OFFCURVE",
"650 506 OFFCURVE",
"481 506 CURVE SMOOTH"
);
},
{
closed = 1;
nodes = (
"332 145 OFFCURVE",
"279 181 OFFCURVE",
"279 250 CURVE SMOOTH",
"279 317 OFFCURVE",
"332 353 OFFCURVE",
"421 353 CURVE SMOOTH",
"508 353 OFFCURVE",
"560 318 OFFCURVE",
"560 252 CURVE SMOOTH",
"560 183 OFFCURVE",
"506 145 OFFCURVE",
"420 145 CURVE SMOOTH"
);
}
);
width = 814;
}
);
leftKerningGroup = n;
leftMetricsKey = n;
rightKerningGroup = o;
rightMetricsKey = o;
unicode = 0070;
userData = {
anchors = (
);
b = {
};
com.typemytype.robofont.layerData = {
b = {
anchors = (
);
components = (
);
contours = (
);
lib = {
};
name = p;
unicodes = (
);
width = 1181;
};
};
components = (
);
contours = (
);
lib = {
};
name = p;
unicodes = (
);
width = 1207;
};
},
{
color = 3;
glyphname = thorn;
lastChange = "2019-07-17 15:12:59 +0000";
layers = (
{
anchors = (
{
name = bottom;
position = "{366, 0}";
},
{
name = top;
position = "{366, 484}";
}
);
background = {
anchors = (
{
name = bottom;
position = "{281, 0}";
},
{
name = top;
position = "{281, 484}";
}
);
paths = (
{
closed = 1;
nodes = (
"204 496 OFFCURVE",
"139 448 OFFCURVE",
"116 361 CURVE",
"127 346 LINE",
"127 705 LINE",
"85 705 LINE",
"85 -180 LINE",
"127 -180 LINE",
"127 143 LINE",
"116 129 LINE",
"139 41 OFFCURVE",
"204 -7 OFFCURVE",
"297 -7 CURVE SMOOTH",
"426 -7 OFFCURVE",
"513 94 OFFCURVE",
"513 247 CURVE SMOOTH",
"513 398 OFFCURVE",
"427 496 OFFCURVE",
"297 496 CURVE SMOOTH"
);
},
{
closed = 1;
nodes = (
"187 34 OFFCURVE",
"127 111 OFFCURVE",
"127 245 CURVE SMOOTH",
"127 378 OFFCURVE",
"187 455 OFFCURVE",
"296 455 CURVE SMOOTH",
"404 455 OFFCURVE",
"467 379 OFFCURVE",
"467 247 CURVE SMOOTH",
"467 113 OFFCURVE",
"404 34 OFFCURVE",
"297 34 CURVE SMOOTH"
);
}
);
};
layerId = "F1F93986-3ED8-4AAE-84C4-CA3EEECDDFA0";
paths = (
{
closed = 1;
nodes = (
"260 496 OFFCURVE",
"173 448 OFFCURVE",
"142 361 CURVE",
"157 346 LINE",
"157 705 LINE",
"115 705 LINE",
"115 -180 LINE",
"157 -180 LINE",
"157 143 LINE",
"142 129 LINE",
"173 41 OFFCURVE",
"260 -7 OFFCURVE",
"382 -7 CURVE SMOOTH",
"551 -7 OFFCURVE",
"666 94 OFFCURVE",
"666 247 CURVE SMOOTH",
"666 398 OFFCURVE",
"552 496 OFFCURVE",
"382 496 CURVE SMOOTH"
);
},
{
closed = 1;
nodes = (
"240 34 OFFCURVE",
"157 111 OFFCURVE",
"157 245 CURVE SMOOTH",
"157 378 OFFCURVE",
"240 455 OFFCURVE",
"387 455 CURVE SMOOTH",
"532 455 OFFCURVE",
"619 379 OFFCURVE",
"619 247 CURVE SMOOTH",
"619 113 OFFCURVE",
"532 34 OFFCURVE",
"389 34 CURVE SMOOTH"
);
}
);
width = 738;
},
{
anchors = (
{
name = bottom;
position = "{405, 0}";
},
{
name = top;
position = "{405, 484}";
}
);
background = {
anchors = (
{
name = bottom;
position = "{320, 0}";
},
{
name = top;
position = "{320, 484}";
}
);
paths = (
{
closed = 1;
nodes = (
"326 506 OFFCURVE",
"261 470 OFFCURVE",
"240 421 CURVE",
"252 398 LINE",
"252 705 LINE",
"44 705 LINE",
"44 -180 LINE",
"252 -180 LINE",
"252 99 LINE",
"240 77 LINE",
"261 28 OFFCURVE",
"326 -9 OFFCURVE",
"396 -9 CURVE SMOOTH",
"522 -9 OFFCURVE",
"614 97 OFFCURVE",
"614 252 CURVE SMOOTH",
"614 407 OFFCURVE",
"523 506 OFFCURVE",
"396 506 CURVE SMOOTH"
);
},
{
closed = 1;
nodes = (
"279 145 OFFCURVE",
"249 181 OFFCURVE",
"249 250 CURVE SMOOTH",
"249 317 OFFCURVE",
"279 353 OFFCURVE",
"330 353 CURVE SMOOTH",
"381 353 OFFCURVE",
"409 318 OFFCURVE",
"409 252 CURVE SMOOTH",
"409 183 OFFCURVE",
"379 145 OFFCURVE",
"329 145 CURVE SMOOTH"
);
}
);
};
layerId = "4121B50C-FD42-45C5-8FBE-41E76D98F91E";
paths = (
{
closed = 1;
nodes = (
"382 506 OFFCURVE",
"295 470 OFFCURVE",
"266 421 CURVE",
"282 398 LINE",
"282 705 LINE",
"74 705 LINE",
"74 -180 LINE",
"282 -180 LINE",
"282 99 LINE",
"266 77 LINE",
"295 28 OFFCURVE",
"380 -9 OFFCURVE",
"481 -9 CURVE SMOOTH",
"649 -9 OFFCURVE",
"771 97 OFFCURVE",
"771 252 CURVE SMOOTH",
"771 407 OFFCURVE",
"650 506 OFFCURVE",
"481 506 CURVE SMOOTH"
);
},
{
closed = 1;
nodes = (
"332 145 OFFCURVE",
"279 181 OFFCURVE",
"279 250 CURVE SMOOTH",
"279 317 OFFCURVE",
"332 353 OFFCURVE",
"421 353 CURVE SMOOTH",
"508 353 OFFCURVE",
"560 318 OFFCURVE",
"560 252 CURVE SMOOTH",
"560 183 OFFCURVE",
"506 145 OFFCURVE",
"420 145 CURVE SMOOTH"
);
}
);
width = 814;
}
);
leftKerningGroup = h;
leftMetricsKey = n;
rightKerningGroup = o;
rightMetricsKey = o;
unicode = 00FE;
},
